<svg id="Capa_1" enable-background="new 0 0 512 512" height="512" viewBox="0 0 512 512" width="512" xmlns="http://www.w3.org/2000/svg"><g><path d="m347.58 320.109c-3.553-2.127-8.16-.97-10.287 2.584s-.97 8.16 2.584 10.287c8.274 4.952 12.832 10.352 12.832 15.206 0 13.604-36.792 32.581-96.709 32.581s-96.709-18.976-96.709-32.581 36.792-32.581 96.709-32.581c19.049 0 37.565 2.039 53.547 5.895 4.024.975 8.079-1.504 9.05-5.531.972-4.026-1.505-8.079-5.531-9.05-17.116-4.13-36.849-6.313-57.065-6.313-54.154 0-111.709 16.676-111.709 47.581s57.554 47.579 111.708 47.579 111.709-16.676 111.709-47.581c0-7.312-3.492-18.12-20.129-28.076z"/><path d="m434.224 134.476c-47.72-16.933-111.015-26.258-178.224-26.258s-130.504 9.326-178.224 26.258c-50.155 17.797-77.776 42.45-77.776 69.419v192.387c0 4.142 3.358 7.5 7.5 7.5h112.226c2.686 0 5.166-1.436 6.503-3.765 1.338-2.329 1.328-5.195-.025-7.514l-30.302-51.947c7.985-40.965 78.292-73.048 160.098-73.048 41.676 0 81.292 8.149 111.552 22.945 27.751 13.57 44.882 31.293 48.542 50.11l-30.298 51.94c-1.353 2.319-1.363 5.186-.025 7.514 1.337 2.329 3.818 3.765 6.503 3.765h112.226c4.142 0 7.5-3.358 7.5-7.5v-192.387c0-26.969-27.621-51.622-77.776-69.419zm62.7 67.522-15.537 26.635c-5.822-10.11-15.468-19.607-28.896-28.363-3.47-2.263-8.117-1.284-10.379 2.186-2.263 3.47-1.284 8.117 2.186 10.379 15.298 9.975 24.801 20.954 27.692 31.909l-20.432 35.027c-7.369-16.979-24.008-32.48-48.723-45.13l37.534-81.791c34.892 14.157 55.178 31.706 56.555 49.148zm-128.746 72.198c-16.744-7.475-35.801-13.146-56.203-16.81l4.115-33.525c24.638 3.775 47.368 9.889 66.883 18.094zm-225.394-45.517c1.202 3.964 5.391 6.2 9.354 5 13.688-4.152 28.396-7.427 43.775-9.791l4.114 33.515c-20.404 3.666-39.463 9.342-56.196 16.811l-36.812-80.217c.197-.071.389-.144.586-.214 23.902-8.535 52.011-14.808 82.339-18.525l4.142 33.742c-16.251 2.477-31.812 5.93-46.301 10.324-3.964 1.203-6.203 5.391-5.001 9.355zm-102.78 16.052c4.283-16.281 23.325-32.379 53.042-45.22l16.123 35.134c-24.696 12.647-41.342 28.168-48.717 45.14zm144.016-117.736 4.097 33.382c-31.442 3.858-60.652 10.388-85.556 19.281-.613.219-1.211.444-1.818.665l-15.018-32.726c28.124-9.657 61.704-16.646 98.295-20.602zm20.84 46.658c16.604-1.542 33.751-2.339 51.14-2.339 17.443 0 34.577.793 51.141 2.325l-4.096 33.372c-15.226-1.714-30.992-2.601-47.045-2.601-15.986 0-31.757.897-47.042 2.624zm117.198 1.586c30.6 3.741 58.848 10.093 82.921 18.763l-15.748 34.316c-20.845-8.812-45.092-15.354-71.314-19.344zm104.216-27.642-15.016 32.722c-25.358-9.256-55.149-16.015-87.374-19.959l4.095-33.364c36.592 3.955 70.172 10.944 98.295 20.601zm-113.232-22.029-4.073 33.184c-17.173-1.605-34.921-2.437-52.969-2.437-17.993 0-35.754.835-52.967 2.451l-4.075-33.198c18.462-1.548 37.571-2.35 57.042-2.35s38.58.802 57.042 2.35zm-241.41 27.282 15.154 33.021c-27.455 11.912-46.733 26.641-56.141 42.816l-15.569-26.689c1.377-17.442 21.663-34.991 56.556-49.148zm-56.632 235.932v-157.145l91.668 157.146h-91.668zm70.942-65.299-14.773-25.324c1.035-18.101 16.6-35.613 44.257-49.877l14.953 32.583c-21.473 11.832-36.719 26.502-44.437 42.618zm128.919-68.357-4.076-33.205c14.676-1.652 29.834-2.51 45.215-2.51 15.453 0 30.608.845 45.219 2.481l-4.078 33.222c-13.349-1.714-27.143-2.606-41.141-2.606-13.983 0-27.778.9-41.139 2.618zm166.758 25.743 14.949-32.575c27.299 14.14 43.192 31.972 44.26 49.868l-14.767 25.316c-7.701-16.104-22.917-30.754-44.442-42.609zm115.381 107.913h-91.668l91.668-157.145z"/></g></svg>