<?xml version="1.0" encoding="iso-8859-1"?>
<!-- Generator: Adobe Illustrator 19.0.0, SVG Export Plug-In . SVG Version: 6.00 Build 0)  -->
<svg version="1.1" id="Layer_1" xmlns="http://www.w3.org/2000/svg" xmlns:xlink="http://www.w3.org/1999/xlink" x="0px" y="0px"
	 viewBox="0 0 512 512" style="enable-background:new 0 0 512 512;" xml:space="preserve">
<g>
	<g>
		<g>
			<rect x="23.857" y="496.305" width="128.078" height="15.693"/>
			<rect x="32.018" y="344.06" width="15.693" height="144.085"/>
			<rect x="64.039" y="344.06" width="15.693" height="144.085"/>
			<rect x="96.053" y="344.06" width="15.693" height="144.085"/>
			<rect x="128.078" y="344.06" width="15.693" height="144.085"/>
			<path d="M0,0.002v47.712h16.01v48.03h16.009v224.456h-8.163v15.693h128.079v-15.693H47.712V95.744h416.576V320.2H360.064v15.693
				h128.079V320.2h-8.163V95.744h16.009V47.713H512V0.002H0z M480.297,80.051H31.703V47.713h448.593V80.051z M496.307,32.02H15.693
				V15.695h480.614V32.02z"/>
			<rect x="360.065" y="496.305" width="128.078" height="15.693"/>
			<rect x="464.289" y="344.06" width="15.693" height="144.085"/>
			<rect x="432.265" y="344.06" width="15.693" height="144.085"/>
			<rect x="400.251" y="344.06" width="15.693" height="144.085"/>
			<rect x="368.226" y="344.06" width="15.693" height="144.085"/>
			<path d="M368.229,311.878h87.896v-15.693h-72.204v-40.183c0-70.536-57.386-127.922-127.922-127.922
				s-127.922,57.386-127.922,127.922v40.183H55.875v15.693h87.897v-55.876c0-61.883,50.345-112.229,112.229-112.229
				s112.229,50.345,112.229,112.229V311.878z"/>
			<rect x="39.861" y="56.037" width="16.01" height="15.693"/>
			<rect x="71.885" y="56.037" width="16.01" height="15.693"/>
			<rect x="103.9" y="56.037" width="16.01" height="15.693"/>
			<rect x="135.924" y="56.037" width="16.01" height="15.693"/>
			<rect x="167.949" y="56.037" width="16.01" height="15.693"/>
			<rect x="199.963" y="56.037" width="16.01" height="15.693"/>
			<rect x="231.988" y="56.037" width="16.01" height="15.693"/>
			<rect x="264.002" y="56.037" width="16.01" height="15.693"/>
			<rect x="296.027" y="56.037" width="16.01" height="15.693"/>
			<rect x="328.041" y="56.037" width="16.01" height="15.693"/>
			<rect x="360.065" y="56.037" width="16.01" height="15.693"/>
			<rect x="392.08" y="56.037" width="16.01" height="15.693"/>
			<rect x="424.104" y="56.037" width="16.01" height="15.693"/>
			<rect x="456.129" y="56.037" width="16.01" height="15.693"/>
		</g>
	</g>
</g>
<g>
</g>
<g>
</g>
<g>
</g>
<g>
</g>
<g>
</g>
<g>
</g>
<g>
</g>
<g>
</g>
<g>
</g>
<g>
</g>
<g>
</g>
<g>
</g>
<g>
</g>
<g>
</g>
<g>
</g>
</svg>
