<svg id="Layer_1" enable-background="new 0 0 64 64" viewBox="0 0 64 64" xmlns="http://www.w3.org/2000/svg"><g><g><path d="m53.08 21.69c-.49 0-.91-.35-.99-.85l-1.04-6.83h-38.1l-1.04 6.83c-.08.55-.6.92-1.14.84-.55-.08-.92-.59-.84-1.14l1.16-7.68c.07-.49.49-.85.99-.85h39.83c.49 0 .91.36.99.85l1.17 7.68c.08.55-.29 1.06-.84 1.14-.05 0-.1.01-.15.01z" fill="rgb(0,0,0)"/></g><g><path d="m57.68 51.99h-51.36c-.29 0-.57-.13-.76-.35s-.27-.51-.23-.8l2.49-16.38c.08-.55.6-.92 1.14-.84.55.08.92.59.84 1.14l-2.32 15.23h49.03l-2.31-15.22c-.08-.55.29-1.06.84-1.14.54-.08 1.06.29 1.14.84l2.49 16.38c.04.29-.04.58-.23.8s-.47.34-.76.34z" fill="rgb(0,0,0)"/></g><g><path d="m49.27 46.63h-34.54c-.29 0-.57-.13-.76-.35s-.27-.51-.23-.8l1.68-11.01c.08-.55.6-.92 1.14-.84.55.08.92.59.84 1.14l-1.5 9.86h32.22l-1.5-9.86c-.08-.55.29-1.06.84-1.14.54-.09 1.06.29 1.14.84l1.68 11.01c.04.29-.04.58-.23.8-.21.22-.48.35-.78.35z" fill="rgb(0,0,0)"/></g><g><g><path d="m62.12 35.62h-60.24c-.55 0-1-.45-1-1v-13.94c0-.55.45-1 1-1h60.24c.55 0 1 .45 1 1v13.93c0 .56-.45 1.01-1 1.01zm-59.24-2h58.24v-11.94h-58.24z" fill="rgb(0,0,0)"/></g><g><path d="m55.88 35.61c-.55 0-1-.45-1-1v-13.93c0-.55.45-1 1-1s1 .45 1 1v13.93c0 .56-.45 1-1 1z" fill="rgb(0,0,0)"/></g><g><path d="m8.12 35.61c-.55 0-1-.45-1-1v-13.93c0-.55.45-1 1-1s1 .45 1 1v13.93c0 .56-.45 1-1 1z" fill="rgb(0,0,0)"/></g><g><path d="m49.27 35.61c-.55 0-1-.45-1-1v-13.93c0-.55.45-1 1-1s1 .45 1 1v13.93c0 .56-.44 1-1 1z" fill="rgb(0,0,0)"/></g><g><path d="m14.73 35.61c-.55 0-1-.45-1-1v-13.93c0-.55.45-1 1-1s1 .45 1 1v13.93c0 .56-.45 1-1 1z" fill="rgb(0,0,0)"/></g><g><path d="m42.66 35.61c-.55 0-1-.45-1-1v-13.93c0-.55.45-1 1-1s1 .45 1 1v13.93c0 .56-.45 1-1 1z" fill="rgb(0,0,0)"/></g><g><path d="m21.35 35.61c-.55 0-1-.45-1-1v-13.93c0-.55.45-1 1-1s1 .45 1 1v13.93c0 .56-.45 1-1 1z" fill="rgb(0,0,0)"/></g><g><path d="m35.74 35.61c-.55 0-1-.45-1-1v-13.93c0-.55.45-1 1-1s1 .45 1 1v13.93c0 .56-.45 1-1 1z" fill="rgb(0,0,0)"/></g><g><path d="m28.26 35.61c-.55 0-1-.45-1-1v-13.93c0-.55.45-1 1-1s1 .45 1 1v13.93c0 .56-.44 1-1 1z" fill="rgb(0,0,0)"/></g><g><path d="m62.12 30.97h-60.24c-.55 0-1-.45-1-1v-4.64c0-.55.45-1 1-1h60.24c.55 0 1 .45 1 1v4.64c0 .56-.45 1-1 1zm-59.24-2h58.24v-2.64h-58.24z" fill="rgb(0,0,0)"/></g><g><path d="m14.73 30.71c-.55 0-1-.45-1-1v-4.13c0-.55.45-1 1-1s1 .45 1 1v4.13c0 .56-.45 1-1 1z" fill="rgb(0,0,0)"/></g><g><path d="m21.35 30.71c-.55 0-1-.45-1-1v-4.13c0-.55.45-1 1-1s1 .45 1 1v4.13c0 .56-.45 1-1 1z" fill="rgb(0,0,0)"/></g></g><g><path d="m31.94 46.63c-.55 0-1-.45-1-1v-11.01c0-.55.45-1 1-1s1 .45 1 1v11.01c0 .55-.45 1-1 1z" fill="rgb(0,0,0)"/></g></g></svg>