<svg id="Capa_1" enable-background="new 0 0 512.416 512.416" height="512" viewBox="0 0 512.416 512.416" width="512" xmlns="http://www.w3.org/2000/svg"><g><path d="m269.889 247.534c0-4.142-3.358-7.5-7.5-7.5h-96.176c-4.142 0-7.5 3.358-7.5 7.5s3.358 7.5 7.5 7.5h96.176c4.142 0 7.5-3.358 7.5-7.5z"/><path d="m237.595 307.534c0-4.142-3.358-7.5-7.5-7.5h-40.765c-4.142 0-7.5 3.358-7.5 7.5s3.358 7.5 7.5 7.5h40.765c4.142 0 7.5-3.358 7.5-7.5z"/><path d="m202.654 277.534c0 4.142 3.358 7.5 7.5 7.5h91.232c4.142 0 7.5-3.358 7.5-7.5s-3.358-7.5-7.5-7.5h-91.232c-4.142 0-7.5 3.358-7.5 7.5z"/><path d="m286.212 124.062c21.207 0 38.46-17.253 38.46-38.46s-17.253-38.46-38.46-38.46-38.46 17.253-38.46 38.46 17.253 38.46 38.46 38.46zm0-61.921c12.936 0 23.46 10.524 23.46 23.46s-10.524 23.46-23.46 23.46-23.46-10.524-23.46-23.46 10.524-23.46 23.46-23.46z"/><path d="m286.212 31.81c4.142 0 7.5-3.358 7.5-7.5v-16.81c0-4.142-3.358-7.5-7.5-7.5s-7.5 3.358-7.5 7.5v16.81c0 4.142 3.358 7.5 7.5 7.5z"/><path d="m278.712 146.892v16.81c0 4.142 3.358 7.5 7.5 7.5s7.5-3.358 7.5-7.5v-16.81c0-4.142-3.358-7.5-7.5-7.5s-7.5 3.358-7.5 7.5z"/><path d="m329.552 49.761c1.919 0 3.839-.732 5.303-2.197l11.887-11.886c2.929-2.929 2.929-7.677 0-10.606-2.928-2.929-7.677-2.929-10.606 0l-11.887 11.886c-2.929 2.929-2.929 7.677 0 10.606 1.464 1.465 3.383 2.197 5.303 2.197z"/><path d="m237.57 123.637-11.887 11.886c-2.929 2.929-2.929 7.677 0 10.606 1.464 1.465 3.384 2.197 5.303 2.197s3.839-.732 5.303-2.197l11.887-11.886c2.929-2.929 2.929-7.677 0-10.606-2.928-2.929-7.677-2.929-10.606 0z"/><path d="m340.004 85.601c0 4.142 3.358 7.5 7.5 7.5h16.81c4.142 0 7.5-3.358 7.5-7.5s-3.358-7.5-7.5-7.5h-16.81c-4.142 0-7.5 3.358-7.5 7.5z"/><path d="m208.111 93.101h16.81c4.142 0 7.5-3.358 7.5-7.5s-3.358-7.5-7.5-7.5h-16.81c-4.142 0-7.5 3.358-7.5 7.5s3.358 7.5 7.5 7.5z"/><path d="m334.855 123.637c-2.929-2.93-7.678-2.929-10.606 0-2.929 2.929-2.929 7.678 0 10.606l11.887 11.886c1.464 1.465 3.384 2.197 5.303 2.197s3.839-.732 5.303-2.197c2.929-2.929 2.929-7.678 0-10.606z"/><path d="m237.57 47.564c1.464 1.465 3.384 2.197 5.303 2.197s3.839-.732 5.303-2.197c2.929-2.929 2.929-7.678 0-10.606l-11.886-11.886c-2.929-2.93-7.678-2.929-10.606 0-2.929 2.929-2.929 7.678 0 10.606z"/><path d="m512.212 185.936c0-5.462-2.969-10.496-7.749-13.136-4.776-2.637-10.611-2.471-15.231.435l-32.261 20.295-32.606-25.418c-4.802-3.743-11.328-4.222-16.624-1.217l-23.812 13.509c-.732-.238-189.312-.371-189.312-.371-11.364 0-21.059-8.348-22.55-19.417-.164-1.216-.362-2.216-.606-3.053-7.014-24.166-29.505-41.044-54.692-41.044-6.23 0-12.384 1.018-18.223 2.989-3.563-28.125-27.64-49.945-56.717-49.945-11.32 0-22.265 3.304-31.653 9.556-6.245 4.159-9.973 11.15-9.972 18.7l.009 267.726c0 4.142 3.358 7.5 7.5 7.5s7.5-3.358 7.5-7.5l-.005-161.76 95.719 44.82c-.01.003-.021.01-.032.024-31.718 16.165-47.8 40.591-47.8 72.601 0 35.648 19.864 61.799 59.042 77.729 31.733 12.902 75.59 19.174 134.077 19.174 16.029 0 30.951-.474 44.833-1.424v28.682c-22.581 7.596-39.456 27.69-42.367 52.027h-64.241c-9.697-21.708-31.98-36.063-57.29-36.492-5.041-15.036-18.833-26.304-35.309-28.848-3.668-29.716-30.535-52.856-63.027-52.856-12.54 0-24.67 3.447-35.082 9.968-2.189 1.371-3.519 3.772-3.519 6.356v94.372c0 12.407 10.093 22.5 22.5 22.5h388.895c4.142 0 7.5-3.358 7.5-7.5s-3.358-7.5-7.5-7.5h-137.799c3.61-22.807 23.402-40.301 47.208-40.301 6.362 0 12.546 1.233 18.379 3.666 3.472 1.448 7.482.099 9.371-3.155 8.542-14.705 24.388-23.839 41.354-23.839 3.908 0 7.815.48 11.612 1.427 2.581.646 5.31-.127 7.172-2.028 1.862-1.9 2.578-4.645 1.881-7.212-1.112-4.1-1.676-8.322-1.676-12.55 0-26.358 21.443-47.801 47.801-47.801 16.36 0 31.549 8.408 40.301 22.106v102.188c0 4.136-3.364 7.5-7.5 7.5h-48.105c-4.142 0-7.5 3.358-7.5 7.5s3.358 7.5 7.5 7.5h48.105c12.407 0 22.5-10.093 22.5-22.5v-303.983zm-489.5 311.48c-4.136 0-7.5-3.365-7.5-7.5v-90.023c7.19-3.721 15.269-5.672 23.6-5.672 26.717 0 48.454 20.104 48.454 44.814 0 4.142 3.358 7.5 7.5 7.5 14.577 0 27.107 9.981 29.146 23.217.597 3.876 4.082 6.633 7.99 6.335 1.5-.116 2.836-.172 4.082-.172 17.287 0 32.788 8.319 41.415 21.501zm392.431-317.474 28.327 22.081-12.777 8.038c-.179-.013-68.59-.027-68.59-.027zm-158.931 223.189c-55.729 0-98.938-6.08-128.427-18.069-25.441-10.344-40.924-24.911-46.879-44.216 8.03 9.327 18.742 17.282 32.082 23.79 21.653 10.563 51.01 17.601 87.255 20.919.232.021.463.032.692.032 3.833 0 7.104-2.925 7.46-6.817.377-4.125-2.66-7.775-6.785-8.152-71.404-6.536-118.692-35.731-122.024-63.985 4.092-19.016 16.665-33.706 38.12-44.64 5.17-2.636 8.323-7.871 8.226-13.662-.097-5.762-3.402-10.861-8.628-13.308l-21.336-9.99h125.48c4.142 0 7.5-3.358 7.5-7.5s-3.358-7.5-7.5-7.5h-156.942c-.175 0-.347.014-.52.026l-48.78-22.839-.003-89.402c0-2.521 1.229-4.844 3.287-6.214 6.917-4.606 14.987-7.041 23.338-7.041 23.254 0 42.172 18.917 42.172 42.17 0 1.148-.057 2.357-.173 3.698-.244 2.81 1.109 5.52 3.502 7.013s5.422 1.516 7.838.061c6.503-3.916 13.972-5.986 21.601-5.986 18.555 0 35.122 12.429 40.281 30.204.003.01.065.255.152.896 2.491 18.479 18.576 32.414 37.416 32.414h163.526l-26.439 15h-80.256c-4.142 0-7.5 3.358-7.5 7.5s3.358 7.5 7.5 7.5h155.443l-15.589 9.807c-4.595 2.891-7.268 8.049-6.975 13.462.295 5.453 3.539 10.331 8.465 12.73 22.54 10.979 35.733 25.912 39.999 45.383 0 17.353-24.946 40.95-57.598 51.889-16.251 5.445-36.033 9.379-59.148 11.779v-22.75c5.765-4.252 20.415-12.352 35.349 1.071 3.081 2.769 7.821 2.517 10.592-.564 2.769-3.081 2.516-7.823-.564-10.591-14.265-12.823-29.31-12.935-41.067-8.929 1.123-1.983 2.535-3.917 4.319-5.631 5.012-4.818 12.213-7.117 21.421-6.848 4.136.134 7.596-3.133 7.719-7.274.123-4.14-3.134-7.596-7.274-7.719-13.459-.41-24.357 3.354-32.394 11.155-2.223 2.158-4.068 4.488-5.601 6.873-1.533-2.384-3.378-4.714-5.601-6.873-8.037-7.801-18.944-11.562-32.394-11.155-4.14.123-7.397 3.579-7.274 7.719.123 4.141 3.602 7.404 7.719 7.274 9.199-.275 16.409 2.031 21.421 6.848 1.781 1.711 3.191 3.641 4.312 5.62-17.257-5.461-33.358 2.268-40.921 8.739-3.136 2.682-3.5 7.379-.835 10.529s7.39 3.543 10.555.896c.051-.043 5.185-4.288 12.537-6.155 8.159-2.07 15.875-.38 22.981 5.003v24.069c-13.899.995-28.853 1.497-44.833 1.497-6.735 0-13.373-.088-19.729-.263-4.15-.134-7.589 3.151-7.703 7.292s3.151 7.589 7.292 7.703c6.492.178 13.268.269 20.14.269 16.043 0 30.962-.473 44.833-1.422v15.168c-13.896.994-28.847 1.497-44.833 1.497zm128.428-18.069c-17.897 7.277-40.857 12.372-68.594 15.257v-15.111c24.848-2.476 46.007-6.682 63.913-12.681 22.73-7.615 39.959-18.231 51.568-31.708-5.949 19.318-21.434 33.894-46.887 44.243zm5.481 33.725c-20.18 0-39.149 9.83-50.884 26.017-5.884-1.787-11.989-2.689-18.22-2.689-1.675 0-3.329.086-4.971.215v-26.871c29.883-2.973 54.427-8.444 74.244-16.501 2.136-.869 4.204-1.773 6.225-2.702-1.555 5.461-2.405 11.215-2.405 17.168 0 1.838.081 3.676.243 5.506-1.409-.096-2.82-.143-4.232-.143zm66.79-68.165c-4.633 0-9.145.519-13.495 1.476 3.934-9.331 5.915-19.626 5.915-30.868 0-32.725-16.796-57.507-49.977-73.733l97.858-61.56v179.335c-11.136-9.309-25.348-14.65-40.301-14.65z"/></g></svg>