<svg id="Capa_1" enable-background="new 0 0 512 512" height="512" viewBox="0 0 512 512" width="512" xmlns="http://www.w3.org/2000/svg"><path d="m51.147 197.731c17.226 0 32.372-9.04 40.971-22.618 8.598 13.578 23.744 22.618 40.97 22.618 17.227 0 32.372-9.041 40.971-22.619 8.598 13.578 23.744 22.619 40.971 22.619s32.372-9.041 40.971-22.619c8.598 13.578 23.744 22.619 40.971 22.619s32.372-9.041 40.971-22.619c8.598 13.578 23.744 22.619 40.971 22.619 17.226 0 32.372-9.04 40.97-22.618 8.599 13.578 23.744 22.618 40.971 22.618 26.727 0 48.471-21.743 48.471-48.47v-21.418c0-.905-.197-2.004-.614-2.97v-.001l-34.842-80.725v-18.575c0-14.061-11.438-25.499-25.499-25.499h-384.739c-14.061 0-25.499 11.438-25.499 25.499v18.575l-34.842 80.725s0 .001-.001.002c-.421.974-.614 2.069-.614 2.97v21.418c.001 26.726 21.745 48.469 48.471 48.469zm0-15c-18.456 0-33.471-15.015-33.471-33.47v-13.918h66.941v13.918c.001 18.456-15.013 33.47-33.47 33.47zm126.074-129.538-9.661 67.15h-65.48l19.323-67.15zm142.403 0 9.662 67.15h-65.786v-67.15zm-71.124 67.151h-65.785l9.661-67.15h56.124zm-115.412 62.387c-18.455 0-33.47-15.015-33.47-33.47v-13.918h66.94v13.918c.001 18.456-15.014 33.47-33.47 33.47zm81.941 0c-18.456 0-33.471-15.015-33.471-33.47v-13.918h66.942v13.918c0 18.456-15.015 33.47-33.471 33.47zm81.942 0c-18.456 0-33.471-15.015-33.471-33.47v-13.918h66.941v13.918c0 18.456-15.014 33.47-33.47 33.47zm81.941 0c-18.456 0-33.471-15.015-33.471-33.47v-13.918h66.94v13.918c.001 18.456-15.014 33.47-33.469 33.47zm81.941 0c-18.456 0-33.471-15.015-33.471-33.47v-13.918h66.941v13.918c0 18.456-15.014 33.47-33.47 33.47zm-35.324-62.387-5.25-18.248c-1.146-3.981-5.305-6.28-9.281-5.135-3.981 1.146-6.279 5.301-5.135 9.281l4.058 14.102h-65.48l-9.661-67.15h55.819l5.565 19.338c1.147 3.987 5.308 6.277 9.282 5.134 3.98-1.146 6.278-5.302 5.134-9.282l-4.371-15.189h55.228l28.982 67.15h-64.89zm-372.396-94.772c0-5.789 4.71-10.499 10.499-10.499h384.736c5.789 0 10.499 4.71 10.499 10.499v12.621c-18.731 0-374.307 0-405.734 0v-12.621zm-2.568 27.621h55.228l-19.322 67.15h-64.888z"/><path d="m288.371 469.813h-1.082c-.086-2.058.697-22.819-4.251-49.796-2.657-14.485-4.005-29.296-4.005-44.021v-34.829h106.833c8.379 0 15.196-6.817 15.196-15.196v-20.481c0-8.379-6.817-15.196-15.196-15.196h-259.732c-8.379 0-15.196 6.817-15.196 15.196v20.481c0 8.379 6.817 15.196 15.196 15.196h24.682c4.143 0 7.5-3.357 7.5-7.5s-3.357-7.5-7.5-7.5h-24.682c-.108 0-.196-.088-.196-.196v-20.481c0-.108.088-.196.196-.196h259.732c.108 0 .196.088.196.196v20.481c0 .108-.088.196-.196.196h-199.988c-4.143 0-7.5 3.357-7.5 7.5s3.357 7.5 7.5 7.5h47.089v34.829c0 14.726-1.348 29.536-4.005 44.021-4.927 26.865-4.17 47.854-4.251 49.796h-1.082c-17.171 0-31.141 13.97-31.141 31.141 0 5.947 4.839 10.786 10.786 10.786h105.451c5.947 0 10.786-4.839 10.786-10.786.001-17.171-13.969-31.141-31.14-31.141zm-44.655-47.088c2.82-15.376 4.251-31.098 4.251-46.729v-34.829h16.066v34.829c0 15.631 1.431 31.353 4.251 46.729 4.652 25.361 3.926 45.189 4.005 47.089h-32.578c.086-2.082-.679-21.556 4.005-47.089zm-35.67 74.015c1.858-6.863 8.141-11.927 15.583-11.927h64.742c7.442 0 13.725 5.063 15.583 11.927z"/><path d="m184.414 390.621c0-18.493-15.046-33.539-33.539-33.539h-107.548l7.633-103.259c.933-12.608-7.682-24.135-20.037-26.811-15.909-3.45-30.909 8.683-30.909 24.93v137.16c0 .111.012.218.017.328-.015.397-.031.792-.031 1.192 0 7.759 6.169 14.088 13.858 14.382l-9.149 92.132c-.84 7.884 5.342 14.791 13.297 14.791h6.978c6.306 0 11.672-4.297 13.049-10.45.008-.035.016-.07.023-.105l20.125-96.339h69.925l20.125 96.339c.008.035.016.07.023.105 1.377 6.153 6.743 10.45 13.049 10.45h6.978c7.997 0 14.132-6.971 13.303-14.736l-9.173-92.376c6.8-1.151 12.003-7.069 12.003-14.194zm-15.009-.589c-45.443 0-126.665 0-154.396 0 .313-9.951 8.506-17.95 18.531-17.95h117.335c10.025 0 18.218 7.999 18.53 17.95zm-141.658-148.359c5.09 1.103 8.638 5.851 8.254 11.045l-7.746 104.784c-4.833.768-9.325 2.573-13.241 5.179v-110.739c0-6.729 6.219-11.687 12.733-10.269zm-4.087 255.254h-3.856l9.125-91.895h13.928zm138.965 0-19.196-91.895h13.929l9.125 91.895z"/><path d="m481.09 227.013c-12.355 2.677-20.97 14.202-20.037 26.81l7.634 103.26h-107.583c-18.494 0-33.54 15.046-33.54 33.54 0 7.125 5.203 13.043 12.006 14.193l-9.168 92.321c-.84 7.884 5.343 14.791 13.298 14.791h6.978c6.306 0 11.672-4.297 13.049-10.45.008-.035.016-.07.023-.105l20.125-96.339h69.924l20.125 96.339c.008.036.016.072.023.107 1.38 6.152 6.746 10.448 13.05 10.448h6.978c8.014 0 14.129-6.989 13.302-14.736l-9.154-92.186c.02-.001.041-.001.062-.003.195.009.39.029.585.029 2.562 0 5.105-.747 7.313-2.21 3.707-2.459 5.921-6.583 5.921-11.032v-139.848c-.004-16.273-15.027-28.372-30.914-24.929zm3.176 14.66c6.527-1.418 12.734 3.55 12.734 10.27v137.025c-7.004-3.924-11.65-11.05-12.328-19.108l-8.66-117.143c-.384-5.195 3.164-9.942 8.254-11.044zm-123.162 130.409h108.739c.727 6.569 3.056 12.701 6.665 17.95-15.764 0-116.256 0-133.935 0 .312-9.951 8.505-17.95 18.531-17.95zm-11.75 124.845h-3.857l9.125-91.895h13.929zm138.963 0-19.196-91.895h13.929l9.125 91.895z"/></svg>