<svg id="Capa_1" enable-background="new 0 0 512.002 512.002" viewBox="0 0 512.002 512.002" xmlns="http://www.w3.org/2000/svg"><g><path d="m488.467 200.404c-13.817 0-26.438 7.296-33.536 18.8-4.602-1.823-9.526-2.768-14.561-2.768-5.534 0-10.89 1.123-15.919 3.338-3.791 1.669-5.51 6.096-3.841 9.887s6.096 5.511 9.887 3.841c3.113-1.371 6.435-2.066 9.874-2.066 4.928 0 9.681 1.454 13.746 4.205 1.256.85 2.723 1.289 4.204 1.289.791 0 1.586-.125 2.356-.38 2.209-.73 3.954-2.446 4.723-4.643 3.455-9.871 12.725-16.503 23.068-16.503 4.32 0 8.565 1.135 12.277 3.282 3.584 2.073 8.174.849 10.248-2.737 2.074-3.585.849-8.173-2.737-10.247-5.993-3.466-12.836-5.298-19.789-5.298z"/><path d="m468.31 327.63h36.19c4.142 0 7.5-3.358 7.5-7.5s-3.358-7.5-7.5-7.5h-36.19c-14.85 0-28.812 5.783-39.313 16.284l-31.812 31.812h-147.127l21.206-21.206c7.668-7.668 17.863-11.891 28.707-11.891h30.925c10.568 0 20.503-4.115 27.976-11.588l16.602-16.602c7.668-7.667 17.863-11.891 28.707-11.891h100.319c4.142 0 7.5-3.358 7.5-7.5s-3.358-7.5-7.5-7.5h-100.32c-10.176 0-19.933 2.717-28.447 7.805-.001-.102-.007-.203-.007-.305 0-13.545 11.02-24.564 24.564-24.564 1.039 0 2.098.091 3.239.28 4.085.674 7.946-2.093 8.621-6.18s-2.092-7.946-6.179-8.621c-1.957-.323-3.815-.479-5.68-.479-21.816 0-39.564 17.749-39.564 39.564 0 3.862.556 7.64 1.641 11.285l-14.101 14.101c-4.64 4.64-10.808 7.195-17.37 7.195h-30.927c-10.179 0-19.939 2.719-28.455 7.81v-32.374c0-21.816-17.749-39.564-39.564-39.564h-80.161c-21.816 0-39.564 17.749-39.564 39.564v72.661h-65.162v-11.283c0-6.561 2.555-12.729 7.195-17.37l13.281-13.282c7.473-7.473 11.588-17.408 11.588-27.976v-2.751c0-40.065 32.596-72.661 72.661-72.661h122.992c10.568 0 20.503-4.115 27.976-11.588l21.298-21.298c4.64-4.64 10.808-7.195 17.37-7.195h163.073c4.142 0 7.5-3.358 7.5-7.5s-3.358-7.5-7.5-7.5h-128.751c-.005-.172-.022-.343-.022-.516 0-9.125 7.423-16.548 16.548-16.548 4.518 0 8.752 1.825 11.923 5.137 1.863 1.946 4.628 2.746 7.242 2.089 2.614-.656 4.675-2.663 5.4-5.259 2.957-10.598 12.634-18 23.532-18 4.973 0 9.779 1.5 13.898 4.339 3.126 2.154 7.369 1.632 9.879-1.214 6.34-7.185 14.977-11.142 24.319-11.142 4.534 0 8.918.911 13.03 2.708 3.797 1.658 8.217-.073 9.876-3.869 1.659-3.795-.074-8.217-3.869-9.876-6.018-2.629-12.423-3.963-19.037-3.963-11.458 0-22.524 4.253-31.169 11.833-5.27-2.51-11.024-3.817-16.927-3.817-14.085 0-26.9 7.627-33.897 19.414-4.348-2.212-9.179-3.381-14.2-3.381-17.396 0-31.548 14.153-31.548 31.548 0 .173.019.344.022.516h-19.321c-10.568 0-20.503 4.116-27.976 11.588l-21.298 21.298c-4.64 4.639-10.808 7.194-17.37 7.194h-122.992c-45.81 0-83.519 35.323-87.337 80.161h-56.953c-4.142 0-7.5 3.358-7.5 7.5s3.358 7.5 7.5 7.5h56.171c-.926 4.751-3.238 9.121-6.737 12.62l-13.281 13.282c-7.473 7.473-11.588 17.409-11.588 27.976v11.283h-8.532c-4.142 0-7.5 3.358-7.5 7.5s3.358 7.5 7.5 7.5h112.226c4.142 0 7.5-3.358 7.5-7.5s-3.358-7.5-7.5-7.5h-8.532v-65.161h104.727c4.142 0 7.5-3.358 7.5-7.5s-3.358-7.5-7.5-7.5h-103.553c3.178-9.888 12.46-17.064 23.389-17.064h80.161c13.545 0 24.564 11.02 24.564 24.564v40.597h-40.597c-21.816 0-39.564 17.749-39.564 39.564s17.749 39.564 39.564 39.564h288.58c4.142 0 7.5-3.358 7.5-7.5s-3.358-7.5-7.5-7.5h-288.58c-13.545 0-24.564-11.02-24.564-24.564s11.02-24.564 24.564-24.564h29.99l-19.261 19.261c-2.145 2.145-2.787 5.371-1.626 8.173 1.161 2.803 3.896 4.63 6.929 4.63h272.548c4.142 0 7.5-3.358 7.5-7.5s-3.358-7.5-7.5-7.5h-86.102l21.206-21.206c7.669-7.664 17.864-11.887 28.708-11.887z"/></g><g/><g/><g/><g/><g/><g/><g/><g/><g/><g/><g/><g/><g/><g/><g/></svg>