<svg height="512" viewBox="0 0 64 64" width="512" xmlns="http://www.w3.org/2000/svg"><g id="outline"><g id="_10-Letter_copy" data-name="10-Letter copy"><path d="m61 11h-58a1 1 0 0 0 -1 1v40a1 1 0 0 0 1 1h58a1 1 0 0 0 1-1v-40a1 1 0 0 0 -1-1zm-24 36v-14h18v14zm18 2v2h-18v-2zm-46-2v-14h18v14zm18 2v2h-18v-2zm0-32v14h-18v-14zm-18-2v-2h18v2zm-2 16h-3v-14h3zm-3 2h3v14h-3zm25-16h6v30h-6zm26 0v14h-18v-14zm-18-2v-2h18v2zm20 2h3v14h-3zm0 16h3v14h-3zm3-18h-3v-2h3zm-25-2v2h-6v-2zm-28 0v2h-3v-2zm-3 36h3v2h-3zm25 2v-2h6v2zm28 0v-2h3v2z"/></g></g></svg>