<svg id="Capa_1" enable-background="new 0 0 502.154 502.154" height="512" viewBox="0 0 502.154 502.154" width="512" xmlns="http://www.w3.org/2000/svg"><g><path d="m372.527 405.408c-3.726.015-6.842-2.825-7.174-6.535-10.761-119.568 119.984-208.144 125.544-211.853 3.258-2.255 7.727-1.441 9.981 1.817 2.255 3.258 1.441 7.727-1.817 9.981-.069.048-.138.094-.209.139-5.28 3.522-129.224 87.464-119.223 198.632.352 3.946-2.561 7.431-6.507 7.784-.164.02-.379.035-.595.035z"/><path d="m420.442 403.829c-3.59-.004-6.625-2.661-7.102-6.22-15.862-117.846 72.787-206.057 76.567-209.715 2.8-2.803 7.342-2.806 10.145-.006.002.002.004.004.006.006 2.781 2.784 2.781 7.295 0 10.079l-.072.072c-3.63 3.551-87.35 86.848-72.457 197.642.53 3.926-2.223 7.539-6.149 8.07-.002 0-.004.001-.006.001-.308.043-.62.067-.932.071z"/><path d="m381.107 338.819c-2.613.002-5.02-1.416-6.284-3.702-.258-.459-25.79-46.135-52.334-56.165-3.706-1.401-5.576-5.541-4.175-9.247s5.541-5.576 9.247-4.175c31.479 11.894 58.676 60.577 59.816 62.643 1.918 3.467.662 7.832-2.805 9.75-1.061.587-2.253.895-3.465.896z"/><path d="m353.065 405.264h-.56c-3.95-.305-6.905-3.755-6.6-7.705 5.696-74.236-30.224-107.609-30.59-107.917-3.004-2.584-3.344-7.113-.76-10.117s7.113-3.344 10.117-.76c.09.077.177.157.263.238 1.693 1.535 41.515 38.488 35.274 119.668-.302 3.723-3.41 6.59-7.144 6.593z"/><path d="m246.632 405.408h-.251c-3.96-.136-7.059-3.457-6.923-7.416v-.001c1.141-35.321 7.823-70.243 19.8-103.491 30.133-80.147 86.787-147.568 160.545-191.056 3.523-1.813 7.849-.426 9.661 3.097 1.773 3.447.488 7.679-2.903 9.558-1.083.581-109.216 59.544-153.809 183.272-11.471 31.839-17.867 65.283-18.954 99.108-.13 3.862-3.3 6.927-7.166 6.929z"/><path d="m311.183 405.264c-3.682-.004-6.763-2.793-7.131-6.457-2.414-38.668 1.011-77.479 10.158-115.127 17.16-73.368 52.241-133.693 104.273-179.305.488-.429 1.034-.789 1.621-1.069 3.527-1.805 7.849-.41 9.655 3.117 1.423 2.78.884 6.161-1.333 8.361-.283.28-.587.537-.911.768-49.5 43.553-82.916 101.217-99.33 171.407-8.676 36.123-11.995 73.325-9.85 110.414.386 3.943-2.497 7.453-6.44 7.839-.006.001-.011.001-.017.002-.221.05-.458.05-.695.05z"/><path d="m217.571 405.264c-.326.001-.652-.021-.976-.065-3.924-.534-6.672-4.147-6.141-8.071 21.256-155.954-105.392-286.878-106.676-288.184-2.775-2.828-2.732-7.37.095-10.145 2.371-2.327 6.031-2.722 8.843-.953 125.737 79.164 158.816 192.39 160.158 197.175 1.076 3.813-1.144 7.777-4.957 8.853s-7.777-1.144-8.853-4.957c-.273-.968-24.736-84.215-109.008-155.911 37.713 52.757 89.387 147.517 74.609 256.109-.509 3.528-3.531 6.147-7.094 6.149z"/><path d="m216.997 211.475c-3.962-.005-7.17-3.221-7.165-7.183.002-1.225.317-2.43.916-3.499 12.67-22.34 27.021-43.685 42.929-63.848-19.103 13.359-36.699 28.754-52.477 45.913-2.682 2.916-7.221 3.106-10.137.423s-3.106-7.221-.423-10.137c25.973-29.06 57.323-52.821 92.321-69.974 3.638-1.569 7.859.109 9.428 3.748 1.103 2.559.625 5.526-1.228 7.609-25.924 28.582-48.689 59.876-67.901 93.34-1.285 2.243-3.678 3.622-6.263 3.608z"/><path d="m108.8 405.4h-.28c-3.959-.152-7.046-3.484-6.894-7.443 0-.001 0-.002 0-.003 1.457-72.81 25.745-143.324 69.436-201.587 2.399-3.154 6.9-3.766 10.054-1.367s3.766 6.9 1.367 10.054c-41.891 55.928-65.156 123.602-66.509 193.466-.158 3.847-3.324 6.884-7.174 6.88z"/><path d="m172.325 405.4c-3.334-.004-6.227-2.304-6.98-5.553-.61-2.64-14.499-65.763 25.109-158.142 1.613-3.619 5.854-5.245 9.473-3.632 3.546 1.581 5.191 5.695 3.712 9.285-37.613 87.723-24.449 148.665-24.298 149.297.892 3.86-1.513 7.713-5.374 8.605-.005.001-.009.002-.014.003-.536.109-1.082.155-1.628.137z"/><path d="m74.752 405.408c-3.962.004-7.177-3.204-7.182-7.166 0-.419.036-.837.108-1.249 21.522-122.603-64.471-202.57-65.339-203.367-2.927-2.67-3.135-7.208-.464-10.135 2.097-2.299 5.437-2.983 8.269-1.695 50.813 24.534 93.386 63.328 122.523 111.648 1.932 3.461.692 7.832-2.769 9.764s-7.832.692-9.764-2.769c-20.878-33.937-48.542-63.194-81.259-85.936 38.787 53.291 54.27 120.049 42.9 184.972-.599 3.415-3.556 5.912-7.023 5.933z"/><path d="m437.602 405.4h-387.392c-3.962 0-7.174-3.212-7.174-7.174s3.212-7.174 7.174-7.174h387.392c3.962 0 7.174 3.212 7.174 7.174 0 3.963-3.212 7.174-7.174 7.174z"/></g></svg>