<svg id="Capa_1" enable-background="new 0 0 512 512" height="512" viewBox="0 0 512 512" width="512" xmlns="http://www.w3.org/2000/svg"><path d="m498.865 289.589c3.253-1.645 5.968-4.298 7.693-7.697 2.999-5.91 2.432-12.903-1.481-18.252l-13.697-18.725c2.558-1.646 4.687-3.969 6.128-6.809 2.999-5.91 2.431-12.903-1.481-18.252l-13.698-18.725c2.559-1.647 4.688-3.969 6.129-6.809 2.998-5.91 2.431-12.903-1.481-18.252l-29.766-40.688c-3.332-4.555-8.48-7.167-14.124-7.167s-10.792 2.612-14.125 7.167l-15.039 20.558-29.327-59.734c-2.697-5.494-8.402-8.907-14.887-8.907-6.882 0-13.021 3.8-16.025 9.918l-48.558 98.9-23.279-47.416c-2.963-6.035-8.981-9.784-15.704-9.783-6.723 0-12.74 3.749-15.703 9.784l-15.645 31.864c-2.553 5.201-5.539 10.1-8.889 14.677l-7.688-10.51c2.263-1.561 4.147-3.687 5.449-6.252 2.884-5.683 2.337-12.409-1.426-17.552l-27.767-37.957c-3.204-4.381-8.155-6.894-13.583-6.894s-10.379 2.513-13.582 6.893l-27.769 37.961c-3.764 5.143-4.31 11.869-1.426 17.552 1.302 2.565 3.187 4.691 5.449 6.252l-12.468 17.043c-3.763 5.144-4.309 11.869-1.424 17.552 1.301 2.564 3.187 4.69 5.448 6.251l-10.095 13.8c-9.537 1.718-18.6 3.626-27.117 5.718-23.734 5.831-43.184 13.093-57.808 21.585-34.889 20.264-40.099 46.323-40.099 60.053s5.21 39.79 40.101 60.052c12.902 7.492 29.624 14.05 49.702 19.49.656.178 1.316.263 1.966.263 3.303 0 6.329-2.2 7.234-5.541 1.083-3.998-1.28-8.117-5.277-9.2-18.814-5.098-34.322-11.148-46.092-17.984-12.188-7.077-32.634-22.605-32.634-47.08s20.446-40.003 32.634-47.081c13.388-7.775 31.507-14.501 53.853-19.99 17.509-4.301 37.438-7.817 59.234-10.45 37.993-4.589 70.717-27.782 87.537-62.04l15.645-31.864c.596-1.214 1.658-1.395 2.238-1.395.581 0 1.645.181 2.24 1.395l28.343 57.731-9.883 19.072c-1.905 3.678-.469 8.204 3.208 10.11 1.104.571 2.283.842 3.445.842 2.712 0 5.331-1.476 6.665-4.051l11.624-22.432c.015-.03.026-.061.041-.091.01-.019.022-.036.032-.055l55.29-112.613c.677-1.379 2.016-1.528 2.561-1.528.666 0 1.277.223 1.422.518l46.343 94.39c1.825 3.718 6.318 5.253 10.038 3.427 3.718-1.826 5.252-6.32 3.427-10.038l-9.551-19.453 19.681-26.905c.652-.891 1.545-1.024 2.019-1.024s1.366.133 2.018 1.024l29.766 40.688c.788 1.078.471 2.096.211 2.607-.259.511-.894 1.369-2.229 1.369h-3.273c-2.824 0-5.41 1.587-6.688 4.106s-1.032 5.542.635 7.822l20.396 27.881c.788 1.078.471 2.097.211 2.608-.259.511-.894 1.368-2.229 1.368h-3.274c-2.825 0-5.41 1.587-6.688 4.106s-1.032 5.542.636 7.822l20.396 27.881c.789 1.078.472 2.096.212 2.607s-.894 1.369-2.229 1.369h-4.873c-4.092-3.369-8.809-6.667-14.248-9.826-3.394-1.969-5.937-4.848-8.004-9.059l-17.935-36.529c-1.825-3.719-6.318-5.252-10.038-3.427-3.718 1.826-5.252 6.32-3.427 10.038l17.935 36.529c3.387 6.899 7.946 11.943 14.003 15.458 12.184 7.08 32.63 22.608 32.63 47.083s-20.446 40.003-32.634 47.081c-13.387 7.775-31.506 14.5-53.853 19.989-41.729 10.25-96.604 15.896-154.514 15.896-46.876 0-91.692-3.667-129.605-10.603-4.07-.744-7.981 1.953-8.728 6.028-.745 4.074 1.953 7.982 6.028 8.727 38.788 7.097 84.539 10.848 132.305 10.848 59.081 0 115.226-5.799 158.092-16.328 23.735-5.831 43.185-13.093 57.808-21.585 34.891-20.264 40.101-46.323 40.101-60.053 0-8.865-2.186-22.871-13.135-37.147zm-339.943-55.264c-4.354.526-8.635 1.088-12.844 1.683l7.709-10.538c1.668-2.28 1.914-5.303.636-7.822s-3.864-4.106-6.688-4.106h-3.055c-.929 0-1.399-.544-1.631-1.001s-.394-1.159.154-1.908l19.027-26.01c1.668-2.28 1.914-5.303.636-7.822s-3.864-4.106-6.688-4.106h-3.055c-.928 0-1.399-.544-1.631-1.001s-.394-1.158.154-1.907l27.769-37.958c.452-.619 1.052-.749 1.476-.749s1.023.13 1.477.75l27.768 37.958c.548.749.387 1.451.154 1.907-.231.457-.703 1.001-1.631 1.001h-3.055c-2.824 0-5.41 1.587-6.688 4.106s-1.032 5.542.636 7.822l16.303 22.286c-15.151 14.985-35.027 24.768-56.933 27.415z"/><path d="m57.244 326.736c0 17.71 20.727 32.161 61.604 42.952 36.73 9.696 85.438 15.036 137.152 15.036s100.422-5.34 137.152-15.036c40.877-10.791 61.604-25.242 61.604-42.952 0-36.887-94.389-55.818-182.087-57.796-4.107-.112-7.574 3.188-7.667 7.329-.094 4.141 3.188 7.574 7.329 7.667 107.804 2.433 167.425 26.851 167.425 42.8 0 6.982-13.208 18.622-50.432 28.448-35.518 9.375-82.866 14.539-133.324 14.539s-97.807-5.164-133.324-14.539c-37.224-9.826-50.432-21.466-50.432-28.448 0-15.854 59.269-40.21 166.436-42.777 4.141-.099 7.417-3.537 7.318-7.678-.1-4.141-3.575-7.426-7.678-7.318-47.94 1.148-92.441 6.983-125.305 16.43-37.006 10.639-55.771 24.549-55.771 41.343z"/><path d="m374.246 238.469c4.143 0 7.5-3.358 7.5-7.5s-3.357-7.5-7.5-7.5h-1.029c-4.143 0-7.5 3.358-7.5 7.5s3.357 7.5 7.5 7.5z"/><path d="m244.5 228.066h-1.029c-4.143 0-7.5 3.358-7.5 7.5s3.357 7.5 7.5 7.5h1.029c4.143 0 7.5-3.358 7.5-7.5s-3.357-7.5-7.5-7.5z"/><path d="m402.648 264.272c4.143 0 7.5-3.358 7.5-7.5s-3.357-7.5-7.5-7.5h-1.029c-4.143 0-7.5 3.358-7.5 7.5s3.357 7.5 7.5 7.5z"/><path d="m181.721 303.579c-7.054 0-13.847.765-19.643 2.211-4.019 1.003-6.464 5.074-5.46 9.093.851 3.409 3.909 5.686 7.271 5.686.602 0 1.213-.073 1.822-.225 4.626-1.155 10.162-1.765 16.01-1.765 5.847 0 11.383.61 16.01 1.765 4.02 1.003 8.09-1.442 9.093-5.461s-1.441-8.09-5.46-9.093c-5.799-1.447-12.591-2.211-19.643-2.211z"/><path d="m228.396 331.761c-4.02 1.003-6.464 5.074-5.462 9.093 1.004 4.019 5.074 6.465 9.093 5.461 4.627-1.154 10.163-1.765 16.011-1.765s11.384.61 16.011 1.765c.609.152 1.22.225 1.821.225 3.361 0 6.42-2.277 7.271-5.686 1.002-4.019-1.442-8.09-5.462-9.093-5.797-1.446-12.589-2.211-19.642-2.211s-13.845.764-19.641 2.211z"/><path d="m358.236 330.826c4.626-1.155 10.162-1.765 16.01-1.765s11.384.61 16.01 1.765c.609.152 1.221.225 1.822.225 3.361 0 6.42-2.276 7.271-5.686 1.004-4.019-1.441-8.09-5.46-9.093-5.796-1.447-12.589-2.211-19.643-2.211s-13.847.765-19.643 2.211c-4.019 1.003-6.464 5.074-5.46 9.093 1.003 4.02 5.08 6.462 9.093 5.461z"/></svg>