<svg xmlns="http://www.w3.org/2000/svg" viewBox="0 0 251.48 115.11"><defs><style>.cls-1{fill:#fff1d4;}</style></defs><g id="Layer_2" data-name="Layer 2"><g id="Layer_1-2" data-name="Layer 1"><path class="cls-1" d="M28.57,56.11A64.14,64.14,0,0,0,22,52.22c-2.3-1.2-4.48-2.43-6.5-3.64a24.71,24.71,0,0,1-5-3.84,6.28,6.28,0,0,1-1.93-4.45,5.84,5.84,0,0,1,2.73-5.42,14.65,14.65,0,0,1,7.48-1.66,10,10,0,0,1,5.36,1.36,13.4,13.4,0,0,1,3.46,3,16.3,16.3,0,0,1,2.45,4.5l.09.26,3.92-2.69L34,39.52a20.43,20.43,0,0,0-3.76-4,21.42,21.42,0,0,0-4.73-2.73,16.71,16.71,0,0,0-6.6-1.23,33.4,33.4,0,0,0-6.49.6,14.92,14.92,0,0,0-5.15,2,9.47,9.47,0,0,0-3.4,3.73,12.32,12.32,0,0,0-1.2,5.7,10.28,10.28,0,0,0,2,6.28A23.7,23.7,0,0,0,9.6,54.69a50.71,50.71,0,0,0,6.37,4c2.27,1.2,4.4,2.44,6.34,3.67a25.65,25.65,0,0,1,4.85,3.87,6.43,6.43,0,0,1,1.89,4.51A7.63,7.63,0,0,1,26.27,77c-1.87,1.51-4.65,2.27-8.28,2.27a14,14,0,0,1-3.81-.48A12.59,12.59,0,0,1,11.1,77.5a15.11,15.11,0,0,1-2.47-1.87,13.86,13.86,0,0,1-1.86-2.11A19.23,19.23,0,0,1,4,67.78l-.09-.29L0,70.46l.1.16a20.77,20.77,0,0,0,4.27,5.13,22.79,22.79,0,0,0,5.52,3.58,18.39,18.39,0,0,0,8,1.62,20.28,20.28,0,0,0,7.93-1.42A17.71,17.71,0,0,0,31.37,76a14.31,14.31,0,0,0,3.23-4.69,12.48,12.48,0,0,0,1.06-4.8,9,9,0,0,0-2-5.8,22.72,22.72,0,0,0-5.06-4.57"/><polygon class="cls-1" points="73.17 64.44 59.82 32.33 52.24 32.33 52.24 79.26 53.9 79.26 53.9 37.38 69.9 75.8 87.28 37.05 87.28 79.26 94.67 79.26 94.67 32.33 87.55 32.33 73.17 64.44"/><path class="cls-1" d="M130.17,79.18c.35-.41.72-.83,1.09-1.23l.34-.36h-11V55.09h20.06V53.43H120.6V34h23.71V32.33h-31.1V79.26h16.9Z"/><path class="cls-1" d="M168.21,59.26h10.6a7.75,7.75,0,0,1,5,2,19.63,19.63,0,0,1,4.22,5,29.38,29.38,0,0,1,2.88,6.46A22,22,0,0,1,192,79v.22h7.4V79a25,25,0,0,0-.2-2.79,21.85,21.85,0,0,0-.76-3.61,28.93,28.93,0,0,0-1.51-4,20.74,20.74,0,0,0-2.4-3.95A20.11,20.11,0,0,0,191,61.23,15.35,15.35,0,0,0,187,59a13.66,13.66,0,0,0,3.84-1.33,12.83,12.83,0,0,0,3.74-2.91,13.91,13.91,0,0,0,2.52-4.07,12.93,12.93,0,0,0,.92-4.86A13.15,13.15,0,0,0,197,40.57a13.19,13.19,0,0,0-7.17-7.18,13.23,13.23,0,0,0-5.27-1.06H160.82V79.26h7.39Zm10.6-1.66h-10.6V34h10.6a11.44,11.44,0,0,1,4.58.93,11.91,11.91,0,0,1,3.74,2.52,12.06,12.06,0,0,1,2.53,3.78,11.75,11.75,0,0,1,.92,4.61,11.52,11.52,0,0,1-.92,4.57,12.11,12.11,0,0,1-2.53,3.74,11.77,11.77,0,0,1-3.74,2.53,11.37,11.37,0,0,1-4.58.93"/><path class="cls-1" d="M214.14,79.26l5.34-16.42h18.33l5.92,16.42h7.75L234.57,32.47l0-.14h-6.69L212.52,79.26ZM220,61.18l8.18-25,9,25Z"/><path class="cls-1" d="M125.24,113a11.32,11.32,0,0,0,4.22-1.81,46.84,46.84,0,0,0,5.93-4.67c2.47-2.21,4.92-4.51,7.29-6.84l2.6-2.49a1.35,1.35,0,0,1,.21-.2,3.08,3.08,0,0,1,1.06-.82,2,2,0,0,1,0,1.1h0v.09c-.16.78-.34,1.55-.53,2.29l-1.89,7.26c-.71,2.75-1.41,5.49-2.12,8.23h1.43l2-7.52c.72-2.84,1.47-5.71,2.21-8.54a9,9,0,0,0,.36-4,1.89,1.89,0,0,1,1.06-.2h.27c1.9.08,2.93-.09,3.14-.53.1-.21,0-.46-.25-.76l0,0h0a42.54,42.54,0,0,0-6.39,0l-3,.18-2.72.12a2,2,0,0,0-.59.14.58.58,0,0,0-.33.56.66.66,0,0,0,.3.57,1.17,1.17,0,0,0,.72.16.35.35,0,0,0,.21-.07l.15,0c.47,0,1,0,1.42-.09a29.39,29.39,0,0,1,3.5-.12.17.17,0,0,1,0,.12.3.3,0,0,1-.09.13L143,97.46c-1.69,1.64-3.44,3.31-5.19,5a92.67,92.67,0,0,1-7.1,6.18,18.67,18.67,0,0,1-4.2,2.56,3,3,0,0,1-4.72-2.68,17.07,17.07,0,0,1,.61-7.11A49.07,49.07,0,0,1,133.66,81a34.8,34.8,0,0,1,10.06-7.86,16.73,16.73,0,0,1,5.08-1.7,6.46,6.46,0,0,1,5.61,1.71A6.38,6.38,0,0,1,156,78.78a13.36,13.36,0,0,1-.83,2.93c-.17.44-.33.88-.47,1.33a1.33,1.33,0,0,0-.06.55.61.61,0,0,0,1,.36,1.18,1.18,0,0,0,.28-.47c.1-.26.2-.5.3-.74a21.36,21.36,0,0,0,1.15-3.64A7.34,7.34,0,0,0,149.61,70a12.4,12.4,0,0,0-4.27.89,28.57,28.57,0,0,0-7.81,4.58,51.51,51.51,0,0,0-15.74,22.76,31.15,31.15,0,0,0-1.48,6.64,11.58,11.58,0,0,0,.5,5.62,3.76,3.76,0,0,0,4.43,2.46"/><path class="cls-1" d="M155.69,102.75a1.84,1.84,0,0,0,1,.27,4,4,0,0,0,1.76-.51A12.82,12.82,0,0,0,161.7,100c.57-.57,1.13-1.16,1.66-1.77.22-.26.46-.52.71-.77l.06,0,0,.45c-.05.42-.09.82-.15,1.21a5,5,0,0,0,.09,1.8,2.09,2.09,0,0,0,.95,1.4,2.13,2.13,0,0,0,1.72,0,5.86,5.86,0,0,0,1.73-1.08,43.18,43.18,0,0,0,4.32-4.34l.12-.15c.16,0,.32,0,.48-.06l.46-.05a1.76,1.76,0,0,0,.34,0,5.18,5.18,0,0,1,1.42,0,.65.65,0,0,1,.51.25.63.63,0,0,1,0,.55,8.16,8.16,0,0,1-.61,1.26c-.35.57-.7,1.13-1,1.68l-.71,1.12a7.81,7.81,0,0,0-.83,1.84,3,3,0,0,0-.14,1.14,1.56,1.56,0,0,0,.55,1,1.61,1.61,0,0,0,1.06.4,3.28,3.28,0,0,0,1.14-.21,10.49,10.49,0,0,0,1-.5l0,0h0a15.06,15.06,0,0,0,2-1.48c1.05-1,2.07-2,3.08-3-.07.2-.14.4-.2.61a4.47,4.47,0,0,0-.24,1.77,1.87,1.87,0,0,0,.64,1.35,1.81,1.81,0,0,0,1.46.22,5.63,5.63,0,0,0,1.95-.92,25.57,25.57,0,0,0,3.31-2.84A90.73,90.73,0,0,0,197.43,90a2.17,2.17,0,0,0,.15-.22,2.48,2.48,0,0,1,.52-.66,2,2,0,0,1-.19.75,2,2,0,0,1-.09.26c-.87,2.54-1.76,5.08-2.63,7.55-2.05,5.78-4.05,11.62-6,17.47h1.5c3.34-10,6.83-20.09,10.41-30a12,12,0,0,1,1.2-2.4,157.44,157.44,0,0,0,10.5-19.21,72.72,72.72,0,0,0,4.55-12.28,10,10,0,0,0,.38-3A1.15,1.15,0,0,0,217,47.1a1.06,1.06,0,0,0-.7,0,1.58,1.58,0,0,0-.56.36,7.7,7.7,0,0,0-1.43,1.91A57.25,57.25,0,0,0,210.94,56c-3.61,8.49-7,17.21-10.14,25.9a10.73,10.73,0,0,1-1,2.11c-2,3-4,5.92-6.19,8.75a2.29,2.29,0,0,0-.15.24,1.73,1.73,0,0,1-.56.58.35.35,0,0,1-.13-.08.56.56,0,0,1-.11-.17.58.58,0,0,0-.1-.12A2.85,2.85,0,0,0,189,92a7.1,7.1,0,0,0-3,1.78,17.3,17.3,0,0,0-1.83,2c-1.88,2.14-3.89,4.21-6,6.16a15.49,15.49,0,0,1-2.89,2.17l-.17.06a2.25,2.25,0,0,1-.51.22.48.48,0,0,1-.45-.14.42.42,0,0,1-.11-.38,1.8,1.8,0,0,1,.16-.46.63.63,0,0,1,.08-.17,8,8,0,0,1,.68-1.38c.27-.46.55-.93.85-1.38s.46-.74.68-1.09a8,8,0,0,0,.86-1.73A1.84,1.84,0,0,0,176,95.17a2.52,2.52,0,0,0-.52-.06,1.57,1.57,0,0,1-.68-.15.76.76,0,0,1,.11-.26l.23-.28a.88.88,0,0,0,.22-.21.25.25,0,0,0,.05-.08,6.08,6.08,0,0,0,.79-1.24,3,3,0,0,0,.23-.86,1.17,1.17,0,0,0-.3-.88,1.29,1.29,0,0,0-.84-.44,1.87,1.87,0,0,0-.87.16,6.07,6.07,0,0,0-3.52,3.07,2.65,2.65,0,0,0-.31,1.4,1.43,1.43,0,0,0,.59,1.15,33.26,33.26,0,0,1-4.1,4,.65.65,0,0,1-.15.11,2.17,2.17,0,0,1-.63.42.77.77,0,0,1-.69,0,.66.66,0,0,1-.33-.47,2.76,2.76,0,0,1,0-.7v-.29A14.41,14.41,0,0,1,166,96c0-.17.09-.35.15-.53a10.34,10.34,0,0,0,.24-1.16.77.77,0,0,0-.41-.79.73.73,0,0,0-.43,0,1.1,1.1,0,0,0-.39.22l-.19.18a1.75,1.75,0,0,1-.16.2.4.4,0,0,1-.16.08l-.07-.11-.12-.3a2.8,2.8,0,0,0-3.26-2,4.12,4.12,0,0,0-2,.78,10.34,10.34,0,0,0-4.36,7.66,2.54,2.54,0,0,0,.87,2.56m49.47-28.59c.68-1.78,1.38-3.6,2.1-5.43,1.88-5,4-9.94,6.16-14.77A42.4,42.4,0,0,1,215.51,50l.12-.19a3.46,3.46,0,0,1,.29-.46,1.83,1.83,0,0,1,.35-.32,5.33,5.33,0,0,1-.2,1.44c0,.1,0,.19-.06.26a63.59,63.59,0,0,1-3.18,9.19,139.9,139.9,0,0,1-8.08,16,5.48,5.48,0,0,1-.31.52l-.14.18,0,0a0,0,0,0,0,0,0Zm-22.58,28.28a.81.81,0,0,1,0-.19,3.74,3.74,0,0,1,.2-.76,16,16,0,0,1,4.37-6.84,6.11,6.11,0,0,1,2.16-1.33,2.49,2.49,0,0,1,.81-.15,1.67,1.67,0,0,1,1.57,1.2.67.67,0,0,1-.08.85h0c-1,1.29-2.16,2.56-3.3,3.78a30.73,30.73,0,0,1-3.68,3.35,4.29,4.29,0,0,1-1.42.78c-.26.09-.45.1-.54,0s-.15-.2-.12-.71m-7.66-10.13a5.41,5.41,0,0,1-2.76,2.78,3.51,3.51,0,0,1,2.76-2.78m-18.68,7.46a10.48,10.48,0,0,1,3-5.55,7.57,7.57,0,0,1,1.05-.73,3.05,3.05,0,0,1,1.45-.44,1.43,1.43,0,0,1,.77.2,2.26,2.26,0,0,1,.85,2.09,1.43,1.43,0,0,1-.31,1,24.87,24.87,0,0,1-4.26,4.32,6.6,6.6,0,0,1-1.51.84.91.91,0,0,1-.8,0,.9.9,0,0,1-.31-.73,2.86,2.86,0,0,1,.06-1"/><path class="cls-1" d="M248.3,94.9a2.39,2.39,0,0,0-.74.12l-1.77.62c-2.53,1-5,2-7.5,3.16l-.12.07a1,1,0,0,1-.42.15c-.11,0-.19-.1-.26-.32a25.07,25.07,0,0,0-1.87-3.91c-.27-.44-.52-.91-.76-1.38a7.4,7.4,0,0,1-1-3.15,7.53,7.53,0,0,1,1.49-5.05,8.52,8.52,0,0,1,4.73-3.28,4,4,0,0,1,1.59-.08,2.17,2.17,0,0,1,2,2.66v.13l-.06.31a1.51,1.51,0,0,0,.07.5.59.59,0,0,0,.41.35.52.52,0,0,0,.56-.18,1.67,1.67,0,0,0,.2-.53,3.41,3.41,0,0,0-2.14-4.37,5.46,5.46,0,0,0-3.86.15A9.79,9.79,0,0,0,233.21,86a8.31,8.31,0,0,0-.06,7,22.2,22.2,0,0,0,1,2l.11.19a1.45,1.45,0,0,0-.21.22l-.21.17-2.06,1.92c-1.57,1.47-3.21,2.91-4.87,4.31l-.27.23a3.18,3.18,0,0,1-.62.49.53.53,0,0,1-.6,0,.59.59,0,0,1-.21-.54,4.42,4.42,0,0,1,.15-.83c0-.12,0-.23.06-.32a42.32,42.32,0,0,1,1.29-4.33l.36-1.07.06-.23a21.54,21.54,0,0,0,.92-3.28,3.43,3.43,0,0,0-.07-1.46,1.41,1.41,0,0,0-1.71-1,3.41,3.41,0,0,0-1.44.57,15.6,15.6,0,0,0-2.64,2,38.25,38.25,0,0,0-5.61,6.65l-.19.25a1.74,1.74,0,0,1-.48.62s0,0,0,0v-.15c.18-.55.36-1.1.53-1.67.9-3.1,1.95-6.21,3.12-9.24a.21.21,0,0,0,0-.11l.11-.22a.81.81,0,0,0,.13-.51.61.61,0,0,0-.31-.42.54.54,0,0,0-.59,0,.91.91,0,0,0-.37.43,6.61,6.61,0,0,0-.45,1c-.84,2.19-1.63,4.42-2.37,6.66l-.35.27a40.12,40.12,0,0,1-6.06,4,11.55,11.55,0,0,1-4.52,1.53,4.7,4.7,0,0,1-2.05-.18,2,2,0,0,1-1.38-2.57l.32.1.72.21a5.51,5.51,0,0,0,4.75-1.37,1.77,1.77,0,0,0,.71-1.86A1.89,1.89,0,0,0,206.32,94l-.58-.09A6.14,6.14,0,0,0,200,97.55a3.57,3.57,0,0,0,1.72,4.43,4.83,4.83,0,0,0,2.19.51h.27a9.39,9.39,0,0,0,3.77-.78,39,39,0,0,0,7-4.06c-.44,1.4-.86,2.82-1.26,4.23-.11.37-.21.76-.29,1.17a1.23,1.23,0,0,0,.25.83,1,1,0,0,0,.7.46l.16,0a.5.5,0,0,0,.42-.2,1.86,1.86,0,0,0,.24-.49v-.06h0v0a.51.51,0,0,1,.09-.18,38.13,38.13,0,0,1,9.06-11.33,7.06,7.06,0,0,1,1.47-.94c.33-.21.57-.28.69-.19s.17.32.13.7a10.52,10.52,0,0,1-.59,2.43,2.13,2.13,0,0,0-.09.27c-.17.55-.35,1.09-.53,1.62a41.6,41.6,0,0,0-1.35,4.49,6.24,6.24,0,0,0-.15,2.36,1.65,1.65,0,0,0,.68,1.23,1.74,1.74,0,0,0,1.46,0,6.91,6.91,0,0,0,2.09-1.34l5.42-4.9,1.06-.94a2.27,2.27,0,0,0,.31-.31,21.39,21.39,0,0,1,1.16,2.53.76.76,0,0,1-.38,1.13,9.4,9.4,0,0,0-2.73,2.26,4,4,0,0,0-.91,1.69,2.06,2.06,0,0,0,.34,1.62,2.09,2.09,0,0,0,1.55.63,3.61,3.61,0,0,0,2.77-1.45,4.76,4.76,0,0,0,1.14-3.45,1.25,1.25,0,0,1,.92-1.42c2.88-1.33,5.84-2.55,8.82-3.63l0,0v0a6.26,6.26,0,0,0,.93-.38.57.57,0,0,0,.24-.71.55.55,0,0,0-.57-.44m-13.15,9.69a2.66,2.66,0,0,1-.6.32,1.58,1.58,0,0,1-.53.12.5.5,0,0,1-.44-.22.41.41,0,0,1-.12-.4,2.11,2.11,0,0,1,.2-.43l.05,0a8.22,8.22,0,0,1,2.83-2.56,3.86,3.86,0,0,1-1.39,3.22m-28.71-8.53a1.09,1.09,0,0,1-.25.27,4.71,4.71,0,0,1-2.81,1.08h-.27a3,3,0,0,1-.63-.07.43.43,0,0,1-.32-.29.38.38,0,0,1,.11-.42,2.25,2.25,0,0,1,.47-.34l.21-.12h0a4,4,0,0,1,2.45-.81l.49,0a.76.76,0,0,1,.36.08.47.47,0,0,1,.24.24.42.42,0,0,1-.05.35"/><path class="cls-1" d="M2.37,9.77A9.43,9.43,0,0,1,12.08,0a9,9,0,0,1,7.33,3.51L17.54,4.7a7,7,0,0,0-5.46-2.61C7.94,2.09,4.8,5.24,4.8,9.77s3.14,7.67,7.28,7.67a7.46,7.46,0,0,0,5.1-2V11.58H10.66V9.49H19.5v6.79a9.78,9.78,0,0,1-7.42,3.29,9.47,9.47,0,0,1-9.71-9.8"/><path class="cls-1" d="M38.78,19.2,34,11.69H30.2V19.2H27.85V.31h7.59c3.46,0,6,2.21,6,5.69a5.25,5.25,0,0,1-4.93,5.5l5.1,7.7ZM39,6a3.52,3.52,0,0,0-3.79-3.59h-5V9.63h5A3.56,3.56,0,0,0,39,6"/><polygon class="cls-1" points="58.21 0.31 55.29 0.31 47.67 19.2 50.37 19.2 52.03 14.98 52.74 12.91 56.73 2.72 60.76 12.91 61.44 14.98 63.11 19.2 65.8 19.2 58.21 0.31"/><polygon class="cls-1" points="76.93 19.2 69.31 0.31 72 0.31 78.37 16.62 84.74 0.31 87.43 0.31 79.84 19.2 76.93 19.2"/><rect class="cls-1" x="94.43" y="0.31" width="2.35" height="18.89"/><polygon class="cls-1" points="110.4 19.2 110.4 2.41 104.42 2.41 104.42 0.31 118.75 0.31 118.75 2.41 112.75 2.41 112.75 19.2 110.4 19.2"/><polygon class="cls-1" points="131.89 19.2 131.89 11.21 124.44 0.31 127.19 0.31 133.05 9.09 138.91 0.31 141.66 0.31 134.24 11.21 134.24 19.2 131.89 19.2"/><rect class="cls-1" x="55.29" y="15.94" width="2.86" height="2.86" transform="translate(4.33 45.19) rotate(-45)"/></g></g></svg>