<svg id="_x33_0" enable-background="new 0 0 64 64" height="512" viewBox="0 0 64 64" width="512" xmlns="http://www.w3.org/2000/svg"><g><path d="m40.802 45h2.198v-2h-22v2h2.198l3.556 16h-1.754v2h14v-2h-1.754zm-15.556 0h13.507l-3.556 16h-6.396z"/><path d="m18 51h-6.279l-3.184-9.552c-.489-1.465-1.854-2.448-3.397-2.448h-.559c-1.975 0-3.581 1.606-3.581 3.581 0 .384.062.765.184 1.133l3.956 11.867c.681 2.045 2.588 3.419 4.743 3.419h3.117v2h-4v2h10v-2h-4v-2h5c1.654 0 3-1.346 3-3 0-2.757-2.243-5-5-5zm2 6h-10.117c-1.293 0-2.437-.824-2.846-2.052l-3.955-11.865c-.055-.163-.082-.332-.082-.502 0-.872.709-1.581 1.581-1.581h.559c.682 0 1.284.435 1.5 1.081l3.639 10.919h7.721c1.654 0 3 1.346 3 3 0 .552-.449 1-1 1z"/><path d="m59.419 39h-.559c-1.543 0-2.909.983-3.397 2.448l-3.184 9.552h-6.279c-2.757 0-5 2.243-5 5 0 1.654 1.346 3 3 3h5v2h-4v2h10v-2h-4v-2h3.117c2.155 0 4.062-1.374 4.743-3.419l3.957-11.869c.121-.366.183-.747.183-1.131 0-1.975-1.606-3.581-3.581-3.581zm1.5 4.081-3.956 11.867c-.409 1.228-1.553 2.052-2.846 2.052h-10.117c-.551 0-1-.448-1-1 0-1.654 1.346-3 3-3h7.721l3.64-10.919c.215-.646.818-1.081 1.499-1.081h.559c.872 0 1.581.709 1.581 1.581 0 .17-.027.339-.081.5z"/><path d="m61 7h-18v2h18v20h-20v-8h4.105l-.812-8.114c-.187-1.871-1.538-3.341-3.293-3.757v-6.129h2v-2h-22v2h2v6.129c-1.755.416-3.106 1.886-3.293 3.756l-.812 8.115h4.105v8h-20v-20h18v-2h-18c-1.103 0-2 .897-2 2v20c0 1.103.897 2 2 2h20c1.103 0 2-.897 2-2v-8h2.095l-.2 2h10.21l-.2-2h2.095v8c0 1.103.897 2 2 2h20c1.103 0 2-.897 2-2v-20c0-1.103-.897-2-2-2zm-39.895 12 .592-5.915c.118-1.189 1.109-2.085 2.303-2.085s2.185.896 2.303 2.085l.592 5.915zm3.895-9.871v-6.129h6v8.129c-1.138.269-2.096.985-2.685 1.967l-.021-.21c-.188-1.871-1.539-3.341-3.294-3.757zm4.105 11.871.592-5.915c.118-1.189 1.109-2.085 2.303-2.085s2.185.896 2.303 2.085l.592 5.915zm6.602-8.114-.021.21c-.59-.982-1.547-1.697-2.685-1.967v-8.129h6v6.129c-1.756.416-3.107 1.886-3.294 3.757zm1.99.199c.118-1.189 1.109-2.085 2.303-2.085s2.185.896 2.303 2.085l.592 5.915h-5.79z"/><path d="m43 23v4h16v-16h-14v2h12v12h-12v-2z"/><path d="m19 13v-2h-14v16h16v-4h-2v2h-12v-12z"/></g></svg>