<svg id="Capa_1" enable-background="new 0 0 512 512" height="512" viewBox="0 0 512 512" width="512" xmlns="http://www.w3.org/2000/svg"><g><path d="m308.559 68.597c-1.545-4.756-5.579-8.157-10.528-8.876l-20.962-3.046-9.374-18.995c-2.214-4.484-6.695-7.27-11.695-7.27-5.001 0-9.481 2.786-11.694 7.269l-9.374 18.996-20.963 3.046c-4.948.719-8.982 4.12-10.527 8.876-1.545 4.755-.28 9.877 3.3 13.368l15.169 14.786-3.581 20.877c-.845 4.929 1.143 9.816 5.188 12.755 2.286 1.661 4.96 2.504 7.652 2.504 2.073 0 4.156-.5 6.081-1.512l18.749-9.856 18.749 9.857c4.425 2.327 9.688 1.947 13.733-.992 4.046-2.939 6.034-7.827 5.189-12.755l-3.581-20.877 15.168-14.786c3.581-3.491 4.846-8.613 3.301-13.369zm-29.677 18.132c-3.074 2.997-4.476 7.311-3.75 11.543l3.084 17.98-16.147-8.489c-3.8-1.997-8.337-1.997-12.137 0l-16.147 8.489 3.084-17.981c.725-4.23-.677-8.545-3.75-11.542l-13.064-12.734 18.054-2.623c4.248-.617 7.918-3.284 9.819-7.134l8.072-16.36 8.074 16.359c1.9 3.85 5.571 6.517 9.819 7.134l18.054 2.623z"/><path d="m282.37 352.75c-4.142 0-7.5 3.358-7.5 7.5v16.741c0 4.142 3.358 7.5 7.5 7.5s7.5-3.358 7.5-7.5v-16.741c0-4.142-3.358-7.5-7.5-7.5z"/><path d="m229.63 352.75c-4.142 0-7.5 3.358-7.5 7.5v16.741c0 4.142 3.358 7.5 7.5 7.5s7.5-3.358 7.5-7.5v-16.741c0-4.142-3.357-7.5-7.5-7.5z"/><path d="m133.798 261.272h-54.057c-6.893 0-12.5 5.607-12.5 12.5v143.969c0 6.893 5.607 12.5 12.5 12.5h54.057c6.893 0 12.5-5.607 12.5-12.5v-143.969c0-6.892-5.608-12.5-12.5-12.5zm-2.5 15v23.492h-49.057v-23.492zm-49.057 138.969v-100.476h49.057v100.477h-49.057z"/><path d="m499.5 234.514c6.893 0 12.5-5.607 12.5-12.5v-30c0-6.893-5.607-12.5-12.5-12.5h-16.961v-57.423c0-12.407-10.093-22.5-22.5-22.5h-68.971c-18.169-58.927-72.895-99.591-135.068-99.591s-116.899 40.664-135.067 99.591h-14.163c-4.142 0-7.5 3.358-7.5 7.5s3.358 7.5 7.5 7.5h19.817c3.405 0 6.382-2.293 7.252-5.585 14.611-55.35 64.846-94.006 122.161-94.006s107.55 38.656 122.162 94.005c.869 3.292 3.847 5.585 7.251 5.585h74.625c4.136 0 7.5 3.365 7.5 7.5v26.206h-115.772c-4.142 0-7.5 3.358-7.5 7.5s3.358 7.5 7.5 7.5h115.772v16.217h-423.077v-16.217h274.619c4.142 0 7.5-3.358 7.5-7.5s-3.358-7.5-7.5-7.5h-274.619v-26.206c0-4.136 3.364-7.5 7.5-7.5h22.161c4.142 0 7.5-3.358 7.5-7.5s-3.358-7.5-7.5-7.5h-22.161c-12.407 0-22.5 10.093-22.5 22.5v57.423h-16.961c-6.893 0-12.5 5.607-12.5 12.5v30c0 6.893 5.607 12.5 12.5 12.5h16.961v222.487h-16.961c-6.893 0-12.5 5.607-12.5 12.5v30c0 6.893 5.607 12.5 12.5 12.5h487c6.893 0 12.5-5.607 12.5-12.5v-30c0-6.893-5.607-12.5-12.5-12.5h-16.961v-222.486zm-484.5-40h482v25h-482zm248.5 262.486v-193.108c36.147 3.763 64.423 34.405 64.423 71.531v121.577zm-79.423-121.577c0-37.126 28.276-67.768 64.423-71.531v193.108h-64.423zm71.923-86.923c-29.871 0-56.27 15.147-71.923 38.163v-52.15h143.846v52.15c-15.653-23.016-42.052-38.163-71.923-38.163zm-86.923 208.5h-124.616v-222.486h124.616zm327.923 40h-482v-25h482zm-154.077-262.486h124.616v222.486h-124.616z"/><path d="m378.202 430.241h54.057c6.893 0 12.5-5.607 12.5-12.5v-40.648c0-4.142-3.358-7.5-7.5-7.5s-7.5 3.358-7.5 7.5v38.148h-49.057v-100.476h49.057v29.642c0 4.142 3.358 7.5 7.5 7.5s7.5-3.358 7.5-7.5v-70.634c0-6.893-5.607-12.5-12.5-12.5h-54.057c-6.892 0-12.5 5.607-12.5 12.5v143.969c0 6.892 5.608 12.499 12.5 12.499zm51.557-153.969v23.492h-49.057v-23.492z"/></g></svg>