<svg id="Capa_1" enable-background="new 0 0 512 512" height="512" viewBox="0 0 512 512" width="512" xmlns="http://www.w3.org/2000/svg"><g><path d="m497.275 464.931-31.155-369.97c2.983-.96 5.692-2.704 7.809-5.101 3.339-3.783 4.896-8.825 4.27-13.832l-7.576-60.61c-1.101-8.79-8.609-15.418-17.467-15.418h-22.572c-8.858 0-16.367 6.628-17.465 15.418l-4.134 33.072h-135.485c-4.142 0-7.5 3.358-7.5 7.5s3.358 7.5 7.5 7.5h35.61v17.32h-106.22v-17.32h35.61c4.142 0 7.5-3.358 7.5-7.5s-3.358-7.5-7.5-7.5h-135.485l-4.134-33.072c-1.098-8.79-8.607-15.418-17.465-15.418h-22.572c-8.858 0-16.367 6.628-17.465 15.418l-7.576 60.609c-.626 5.007.93 10.049 4.27 13.832 2.117 2.398 4.827 4.142 7.811 5.102l-5.847 69.419c-.348 4.127 2.717 7.755 6.844 8.103.214.018.427.027.638.027 3.857 0 7.136-2.958 7.465-6.871l5.881-69.826h17.269l-31.062 368.862h-17.274l22.245-264.175c.348-4.127-2.717-7.755-6.844-8.103-4.132-.354-7.755 2.717-8.103 6.844l-22.373 265.69c-8.338 1.381-14.723 8.622-14.723 17.345v12.122c0 9.706 7.896 17.602 17.602 17.602h40.407c9.706 0 17.602-7.896 17.602-17.602v-12.122c0-8.301-5.783-15.26-13.526-17.106l31.103-369.36h62.377v14.727c0 4.142 3.358 7.5 7.5 7.5h8.663v273.112c-7.023 2.354-12.583 7.914-14.937 14.937h-11.908c-4.142 0-7.5 3.358-7.5 7.5v32.325c0 4.142 3.358 7.5 7.5 7.5h222.235c4.142 0 7.5-3.358 7.5-7.5v-32.325c0-4.142-3.358-7.5-7.5-7.5h-11.908c-2.354-7.023-7.915-12.583-14.937-14.937v-273.112h8.663c4.142 0 7.5-3.358 7.5-7.5v-14.727h62.38l17.741 210.729c.33 3.914 3.608 6.871 7.465 6.871.21 0 .424-.009.638-.027 4.127-.348 7.192-3.975 6.844-8.103l-17.636-209.467h17.269l31.063 368.862h-17.274l-10.482-124.514c-.347-4.127-3.965-7.193-8.103-6.845-4.128.348-7.192 3.975-6.845 8.103l10.417 123.752c-7.742 1.847-13.524 8.806-13.524 17.105v12.122c0 9.706 7.896 17.602 17.602 17.602h40.407c9.706 0 17.602-7.896 17.602-17.602v-12.122c0-8.724-6.386-15.965-14.725-17.345zm-66.691-449.931h22.572c1.309 0 2.419.979 2.582 2.279l7.576 60.61c.126 1.013-.341 1.715-.631 2.044-.291.329-.929.88-1.951.88l-37.746-.003c-1.007-.009-1.64-.551-1.928-.876-.29-.329-.758-1.031-.631-2.045l7.576-60.61c.162-1.3 1.272-2.279 2.581-2.279zm-374.321 2.279c.162-1.3 1.272-2.279 2.581-2.279h22.572c1.309 0 2.419.979 2.582 2.279l7.576 60.61c.126 1.014-.341 1.716-.631 2.045-.288.325-.921.868-1.928.876l-37.746.003c-1.021 0-1.66-.551-1.951-.88-.29-.329-.757-1.031-.631-2.044zm4.347 477.119c0 1.435-1.167 2.602-2.602 2.602h-40.406c-1.435 0-2.602-1.167-2.602-2.602v-12.122c0-1.435 1.167-2.602 2.602-2.602h40.407c1.435 0 2.602 1.167 2.602 2.602v12.122zm45.766-413.588c.235-1.57.282-3.176.082-4.782l-1.568-12.538h50.675v17.32zm64.189-17.32h17.325v39.546h-17.325zm189.053 374.921h-207.236v-17.325h207.235v17.325zm-34.346-47.263c-7.023 2.354-12.583 7.914-14.937 14.937h-108.67c-2.354-7.023-7.915-12.583-14.937-14.937v-273.111h8.663c4.142 0 7.5-3.358 7.5-7.5v-14.727h106.22v14.727c0 4.142 3.358 7.5 7.5 7.5h8.663v273.111zm-1.162-288.111v-39.547h17.325v39.546h-17.325zm32.325-39.547h50.675l-1.567 12.538c-.201 1.606-.153 3.211.082 4.782h-49.189v-17.32zm140.565 430.908c0 1.435-1.167 2.602-2.602 2.602h-40.407c-1.435 0-2.602-1.167-2.602-2.602v-12.122c0-1.435 1.167-2.602 2.602-2.602h40.407c1.435 0 2.602 1.167 2.602 2.602z"/></g></svg>