<svg id="Capa_1" enable-background="new 0 0 511.996 511.996" height="512" viewBox="0 0 511.996 511.996" width="512" xmlns="http://www.w3.org/2000/svg"><g><path d="m448.571 245.998c4.143 0 7.5-3.357 7.5-7.5v-217.445c0-11.609-9.445-21.053-21.053-21.053-16.643 0-344.023 0-358.04 0-11.608 0-21.053 9.444-21.053 21.053v469.891c0 11.608 9.444 21.053 21.053 21.053h358.04c11.608 0 21.053-9.444 21.053-21.053v-217.446c0-4.143-3.357-7.5-7.5-7.5s-7.5 3.357-7.5 7.5v217.445c0 3.338-2.715 6.053-6.053 6.053h-43.373c0-10.785.001-226.503.001-233.498h14.853c4.143 0 7.5-3.357 7.5-7.5s-3.357-7.5-7.5-7.5h-14.853c0-7.025-.001-222.713-.001-233.498h43.373c3.338 0 6.053 2.715 6.053 6.053v217.445c0 4.143 3.357 7.5 7.5 7.5zm-328.22 2.5h-14.853c-4.143 0-7.5 3.357-7.5 7.5s3.357 7.5 7.5 7.5h14.853v233.498h-43.373c-3.338 0-6.053-2.715-6.053-6.053v-469.89c0-3.338 2.715-6.053 6.053-6.053h43.373zm256.294 248.498h-241.294v-140.272h241.294zm0-155.272h-241.294v-78.226h241.294zm0-186.452h-103.147c-4.143 0-7.5 3.357-7.5 7.5s3.357 7.5 7.5 7.5h103.147v78.226h-241.294v-78.226h103.146c4.143 0 7.5-3.357 7.5-7.5s-3.357-7.5-7.5-7.5h-103.146v-140.272h241.294z"/></g></svg>