<svg xmlns="http://www.w3.org/2000/svg" xmlns:xlink="http://www.w3.org/1999/xlink" version="1.1" id="Layer_1" x="0px" y="0px" width="100%" viewBox="0 0 256 256" enable-background="new 0 0 256 256" xml:space="preserve">
<path fill="#ffffff" opacity="1.000000" stroke="none" d=" M138.000000,257.000000   C92.000000,257.000000 46.500004,257.000000 1.000006,257.000000   C1.000004,171.666672 1.000004,86.333351 1.000002,1.000018   C86.333321,1.000012 171.666641,1.000012 257.000000,1.000006   C257.000000,86.333313 257.000000,171.666626 257.000000,256.999969   C217.500000,257.000000 178.000000,257.000000 138.000000,257.000000  M22.998384,247.998520   C93.991386,247.998734 164.984390,248.004211 235.977386,247.968307   C237.731537,247.967422 239.725098,247.937943 241.167389,247.133560   C242.432556,246.427963 243.691406,244.662338 243.802490,243.272949   C243.888977,242.191254 242.428345,240.567810 241.250671,239.914368   C239.930328,239.181793 238.156189,239.047943 236.576813,239.036896   C226.473541,238.966141 216.369522,239.000839 206.276031,239.000839   C206.276031,227.060318 206.276031,215.657028 206.276031,203.904373   C217.632889,203.904373 228.719177,203.904373 240.388565,203.904373   C239.736923,202.067200 239.533386,200.555740 238.752914,199.452332   C235.012466,194.164185 230.130936,189.436829 227.493744,183.669373   C222.952606,173.738068 215.232315,172.991943 206.238770,174.040237   C205.927429,174.076523 205.632919,174.257095 205.955307,174.136261   C204.351501,179.750519 203.394379,185.211365 201.216080,190.131561   C199.046967,195.031021 195.652145,199.387817 192.833359,203.920486   C193.861069,203.976364 195.287506,204.053894 196.787476,204.135437   C196.787476,215.754852 196.787476,227.186401 196.787476,238.780548   C176.505859,238.780548 156.437241,238.780548 136.228607,238.780548   C136.228607,228.489822 136.228607,218.420425 136.228607,207.999954   C146.580460,207.999954 156.736099,208.472702 166.827072,207.867416   C176.979904,207.258408 185.744537,203.407288 192.017151,194.618820   C196.937531,187.724976 198.590454,180.297165 198.011124,172.085831   C197.337997,162.545135 193.793472,154.576782 185.736450,148.962448   C183.111786,147.133499 180.557419,145.203659 177.976654,143.324158   C192.254883,122.756874 180.153961,98.187401 158.182083,95.557472   C163.269699,79.850182 157.267517,68.184662 148.712234,61.364178   C138.576645,53.283848 122.515060,53.962330 114.020554,60.726788   C103.261353,69.294678 98.910851,78.016739 103.318459,94.351524   C97.593468,96.670387 91.659348,98.323044 86.580345,101.391266   C83.109467,103.488014 80.196411,107.237213 78.334602,110.907425   C77.596375,112.362717 80.411171,115.586067 81.536293,118.037468   C81.998688,119.044930 82.499245,120.119637 82.593422,121.197739   C83.271843,128.964188 85.411568,135.765884 93.478043,139.043121   C94.128799,139.307510 94.503326,140.275970 94.982712,140.934372   C100.774689,148.889282 102.834435,157.464554 99.590179,167.058884   C99.304619,167.903381 100.057495,169.450989 100.793610,170.234772   C108.530243,178.472244 113.176086,187.660110 109.981537,199.300461   C109.200378,202.146881 108.065598,204.896255 106.940063,208.130920   C114.141006,208.130920 120.914276,208.130920 127.750427,208.130920   C127.750427,218.553207 127.750427,228.622971 127.750427,238.743790   C105.764679,238.743790 84.029350,238.743790 62.265930,238.743790   C62.265930,231.080521 62.265930,223.676941 62.265930,216.000046   C69.165916,216.000046 75.806633,216.128738 82.440811,215.975021   C99.757469,215.573837 109.520050,197.429398 102.542999,183.439224   C99.994186,178.328461 95.150513,174.362152 91.099594,169.573257   C99.480431,157.236145 94.900871,144.008789 79.118263,137.832825   C78.250191,137.493149 77.614433,135.097626 77.788612,133.780472   C79.761139,118.863693 68.880203,107.556213 55.279461,109.347549   C40.253906,111.326546 34.870949,121.669746 37.537651,136.557129   C15.649429,141.794296 13.696923,159.851440 24.030066,173.431885   C22.678524,174.702713 21.206200,175.883423 19.976074,177.277802   C13.433085,184.694412 12.090034,193.048416 16.035160,202.079330   C20.273319,211.781097 27.968798,216.155518 38.434155,216.012070   C43.539043,215.942093 48.645687,215.999954 53.719627,215.999954   C53.719627,223.950867 53.719627,231.354858 53.719627,239.000854   C43.633556,239.000854 33.825966,238.999390 24.018375,239.001877   C21.474203,239.002518 19.225540,239.242889 18.724182,242.542618   C18.277475,245.482666 19.203606,247.273041 22.998384,247.998520  M206.501678,128.999969   C212.938248,128.999969 219.374832,128.999969 227.498978,128.999969   C218.433884,115.096825 210.085678,102.293182 201.289764,88.802887   C196.470215,95.966530 192.318161,102.052246 188.299820,108.225014   C187.825241,108.954063 187.886642,110.191185 188.034790,111.140472   C188.950226,117.005852 189.961685,122.856247 190.989487,128.999969   C195.535812,128.999969 200.519791,128.999969 206.501678,128.999969  M201.502380,136.000031   C197.181152,136.000031 192.859924,136.000031 188.663986,136.000031   C186.077240,139.896820 187.447220,142.550995 190.587067,145.189453   C196.668289,150.299561 201.136703,156.542648 203.157730,164.414444   C203.425583,165.457672 205.060135,166.863586 206.088379,166.886124   C214.999435,167.081482 223.916595,166.998657 234.089966,166.998657   C227.491348,156.090378 221.464447,146.127167 215.338364,136.000031   C211.144196,136.000031 206.818832,136.000031 201.502380,136.000031  M187.275711,37.000820   C185.857895,37.753502 183.490631,38.276207 183.239853,39.311565   C182.841553,40.955936 183.308746,44.066875 184.371033,44.584415   C188.371445,46.533390 188.656601,49.922768 188.996841,53.484642   C189.400101,57.706150 192.700150,60.536400 196.209457,58.746014   C200.223770,56.697971 203.749435,56.460232 207.927475,57.829109   C209.272491,58.269783 211.265915,56.731434 212.962708,56.098450   C212.132004,54.117920 211.775269,50.934242 210.380753,50.384884   C206.369995,48.804863 201.939804,48.289494 196.991623,47.206345   C195.410660,42.440624 192.616577,38.995193 187.275711,37.000820  M79.612572,10.046781   C74.961227,12.789760 74.499168,15.050342 78.228127,18.643177   C80.701752,21.026497 82.230026,23.319420 82.164604,27.114208   C82.081009,31.964212 86.325958,34.162369 90.566490,31.729742   C93.860542,29.840073 96.641747,29.673271 100.137947,31.359104   C101.528076,32.029408 105.167061,30.993242 105.691475,29.808510   C106.478378,28.030750 107.192810,24.688139 103.489998,23.877270   C99.257614,22.950438 95.012100,22.083546 90.236687,21.077805   C88.831795,16.505360 86.020767,12.038090 79.612572,10.046781  M64.062325,87.394920   C66.420494,80.584976 64.807762,79.477715 52.615288,78.874123   C50.014370,75.604004 48.212723,72.446899 45.561169,70.380234   C44.229694,69.342453 41.352119,70.288330 39.173748,70.337120   C39.356533,72.301590 38.813961,74.926727 39.874805,76.091438   C42.009403,78.435020 43.085606,80.617035 43.203785,83.855453   C43.266071,85.562286 45.351929,88.554672 46.643715,88.620537   C52.066662,88.897018 57.534794,88.287743 62.986298,88.001266   C63.151508,87.992592 63.315819,87.966843 64.062325,87.394920  z"/>
<path fill="#000000" opacity="1.000000" stroke="none" d=" M22.552464,247.992462   C19.203606,247.273041 18.277475,245.482666 18.724182,242.542618   C19.225540,239.242889 21.474203,239.002518 24.018375,239.001877   C33.825966,238.999390 43.633556,239.000854 53.719627,239.000854   C53.719627,231.354858 53.719627,223.950867 53.719627,215.999954   C48.645687,215.999954 43.539043,215.942093 38.434155,216.012070   C27.968798,216.155518 20.273319,211.781097 16.035160,202.079330   C12.090034,193.048416 13.433085,184.694412 19.976074,177.277802   C21.206200,175.883423 22.678524,174.702713 24.030066,173.431885   C13.696923,159.851440 15.649429,141.794296 37.537651,136.557129   C34.870949,121.669746 40.253906,111.326546 55.279461,109.347549   C68.880203,107.556213 79.761139,118.863693 77.788612,133.780472   C77.614433,135.097626 78.250191,137.493149 79.118263,137.832825   C94.900871,144.008789 99.480431,157.236145 91.099594,169.573257   C95.150513,174.362152 99.994186,178.328461 102.542999,183.439224   C109.520050,197.429398 99.757469,215.573837 82.440811,215.975021   C75.806633,216.128738 69.165916,216.000046 62.265930,216.000046   C62.265930,223.676941 62.265930,231.080521 62.265930,238.743790   C84.029350,238.743790 105.764679,238.743790 127.750427,238.743790   C127.750427,228.622971 127.750427,218.553207 127.750427,208.130920   C120.914276,208.130920 114.141006,208.130920 106.940063,208.130920   C108.065598,204.896255 109.200378,202.146881 109.981537,199.300461   C113.176086,187.660110 108.530243,178.472244 100.793610,170.234772   C100.057495,169.450989 99.304619,167.903381 99.590179,167.058884   C102.834435,157.464554 100.774689,148.889282 94.982712,140.934372   C94.503326,140.275970 94.128799,139.307510 93.478043,139.043121   C85.411568,135.765884 83.271843,128.964188 82.593422,121.197739   C82.499245,120.119637 81.998688,119.044930 81.536293,118.037468   C80.411171,115.586067 77.596375,112.362717 78.334602,110.907425   C80.196411,107.237213 83.109467,103.488014 86.580345,101.391266   C91.659348,98.323044 97.593468,96.670387 103.318459,94.351524   C98.910851,78.016739 103.261353,69.294678 114.020554,60.726788   C122.515060,53.962330 138.576645,53.283848 148.712234,61.364178   C157.267517,68.184662 163.269699,79.850182 158.182083,95.557472   C180.153961,98.187401 192.254883,122.756874 177.976654,143.324158   C180.557419,145.203659 183.111786,147.133499 185.736450,148.962448   C193.793472,154.576782 197.337997,162.545135 198.011124,172.085831   C198.590454,180.297165 196.937531,187.724976 192.017151,194.618820   C185.744537,203.407288 176.979904,207.258408 166.827072,207.867416   C156.736099,208.472702 146.580460,207.999954 136.228607,207.999954   C136.228607,218.420425 136.228607,228.489822 136.228607,238.780548   C156.437241,238.780548 176.505859,238.780548 196.787476,238.780548   C196.787476,227.186401 196.787476,215.754852 196.787476,204.135437   C195.287506,204.053894 193.861069,203.976364 192.833359,203.920486   C195.652145,199.387817 199.046967,195.031021 201.216080,190.131561   C203.394379,185.211365 204.351501,179.750519 205.955307,174.136261   C205.632919,174.257095 205.927429,174.076523 206.238770,174.040237   C215.232315,172.991943 222.952606,173.738068 227.493744,183.669373   C230.130936,189.436829 235.012466,194.164185 238.752914,199.452332   C239.533386,200.555740 239.736923,202.067200 240.388565,203.904373   C228.719177,203.904373 217.632889,203.904373 206.276031,203.904373   C206.276031,215.657028 206.276031,227.060318 206.276031,239.000839   C216.369522,239.000839 226.473541,238.966141 236.576813,239.036896   C238.156189,239.047943 239.930328,239.181793 241.250671,239.914368   C242.428345,240.567810 243.888977,242.191254 243.802490,243.272949   C243.691406,244.662338 242.432556,246.427963 241.167389,247.133560   C239.725098,247.937943 237.731537,247.967422 235.977386,247.968307   C164.984390,248.004211 93.991386,247.998734 22.552464,247.992462  M115.491386,163.994339   C117.963074,166.466187 120.250587,169.164246 122.947220,171.359802   C127.643692,175.183640 129.731277,179.622391 129.145813,185.904648   C128.504166,192.789581 128.999741,199.780502 128.999741,206.762512   C131.213196,206.762512 132.948425,206.762512 135.000000,206.762512   C135.000000,190.244843 134.873291,173.960098 135.137192,157.681702   C135.176575,155.252365 136.481705,152.304443 138.180984,150.539978   C143.784622,144.721359 149.746185,139.233948 155.753860,133.823151   C159.209839,130.710510 158.244476,128.780731 154.729279,126.843246   C148.311020,132.733612 142.083572,138.448853 135.000000,144.949814   C135.000000,142.198929 134.999985,140.614563 135.000000,139.030197   C135.000015,126.046417 135.020493,113.062584 134.980011,100.078926   C134.973221,97.903603 135.810013,95.055138 132.064423,94.999672   C128.345123,94.944603 129.024414,97.722946 129.011566,99.956352   C128.977020,105.961563 128.999756,111.967110 128.999756,117.972519   C129.408707,117.245056 129.817642,116.517593 130.226593,115.790123   C125.898476,112.781418 121.671387,109.607933 117.185112,106.857178   C115.700523,105.946907 113.548203,106.125679 111.701180,105.806526   C112.092880,107.649826 111.889290,110.028770 112.981079,111.242134   C117.314651,116.058273 122.088097,120.476013 126.613480,125.124191   C127.588882,126.126083 128.877823,127.463936 128.892838,128.661194   C129.056488,141.710678 128.995270,154.762970 128.995270,168.869049   C127.186615,167.358505 126.151253,166.660950 125.321312,165.771698   C121.733467,161.927429 118.349579,157.876190 114.552452,154.255844   C113.631424,153.377670 111.420563,153.852310 109.802795,153.704880   C109.888214,155.319443 109.437912,157.263336 110.181656,158.473206   C111.367111,160.401611 113.347389,161.841415 115.491386,163.994339  M54.999752,209.390366   C54.999752,211.174530 54.999752,212.958694 54.999752,214.752060   C57.228317,214.752060 58.964359,214.752060 60.999073,214.752060   C60.999073,203.874863 60.838440,193.237869 61.125439,182.612946   C61.187916,180.300064 62.330967,177.558350 63.887371,175.838699   C67.180641,172.199966 71.288185,169.301208 74.611565,165.685196   C75.838150,164.350632 76.880829,160.983871 76.130890,160.048508   C73.962921,157.344528 71.857574,159.568893 70.069359,161.387360   C67.397972,164.103928 64.697105,166.791504 62.008770,169.491409   C60.998981,159.025223 61.100719,149.390289 60.876450,139.762939   C60.846802,138.490311 59.155357,137.256378 58.233547,136.004532   C57.155773,137.268127 55.338665,138.429810 55.147678,139.815628   C54.691017,143.129166 55.000229,146.548279 55.000229,149.924759   C54.312477,150.351913 53.624722,150.779068 52.936970,151.206207   C51.395523,149.093765 50.125923,146.663483 48.192242,145.009659   C47.292763,144.240341 45.104092,144.978363 43.499805,145.033127   C43.788307,146.310806 43.694294,147.898178 44.433369,148.811081   C47.218220,152.250854 50.300404,155.448318 53.209900,158.789917   C53.924015,159.610107 54.899693,160.623810 54.916431,161.563492   C55.054287,169.303925 54.994320,177.047882 54.994320,186.179642   C50.648785,182.111603 47.254459,178.934036 44.019096,175.905273   C39.620300,178.472229 40.781334,180.708542 43.543873,183.088074   C51.274509,189.746887 57.390636,197.173950 54.999752,209.390366  z"/>
<path fill="#000000" opacity="1.000000" stroke="none" d=" M206.002716,128.999969   C200.519791,128.999969 195.535812,128.999969 190.989487,128.999969   C189.961685,122.856247 188.950226,117.005852 188.034790,111.140472   C187.886642,110.191185 187.825241,108.954063 188.299820,108.225014   C192.318161,102.052246 196.470215,95.966530 201.289764,88.802887   C210.085678,102.293182 218.433884,115.096825 227.498978,128.999969   C219.374832,128.999969 212.938248,128.999969 206.002716,128.999969  z"/>
<path fill="#000000" opacity="1.000000" stroke="none" d=" M201.997925,136.000031   C206.818832,136.000031 211.144196,136.000031 215.338364,136.000031   C221.464447,146.127167 227.491348,156.090378 234.089966,166.998657   C223.916595,166.998657 214.999435,167.081482 206.088379,166.886124   C205.060135,166.863586 203.425583,165.457672 203.157730,164.414444   C201.136703,156.542648 196.668289,150.299561 190.587067,145.189453   C187.447220,142.550995 186.077240,139.896820 188.663986,136.000031   C192.859924,136.000031 197.181152,136.000031 201.997925,136.000031  z"/>
<path fill="#000000" opacity="1.000000" stroke="none" d=" M187.683929,37.000774   C192.616577,38.995193 195.410660,42.440624 196.991623,47.206345   C201.939804,48.289494 206.369995,48.804863 210.380753,50.384884   C211.775269,50.934242 212.132004,54.117920 212.962708,56.098450   C211.265915,56.731434 209.272491,58.269783 207.927475,57.829109   C203.749435,56.460232 200.223770,56.697971 196.209457,58.746014   C192.700150,60.536400 189.400101,57.706150 188.996841,53.484642   C188.656601,49.922768 188.371445,46.533390 184.371033,44.584415   C183.308746,44.066875 182.841553,40.955936 183.239853,39.311565   C183.490631,38.276207 185.857895,37.753502 187.683929,37.000774  z"/>
<path fill="#000000" opacity="1.000000" stroke="none" d=" M80.002892,10.027115   C86.020767,12.038090 88.831795,16.505360 90.236687,21.077805   C95.012100,22.083546 99.257614,22.950438 103.489998,23.877270   C107.192810,24.688139 106.478378,28.030750 105.691475,29.808510   C105.167061,30.993242 101.528076,32.029408 100.137947,31.359104   C96.641747,29.673271 93.860542,29.840073 90.566490,31.729742   C86.325958,34.162369 82.081009,31.964212 82.164604,27.114208   C82.230026,23.319420 80.701752,21.026497 78.228127,18.643177   C74.499168,15.050342 74.961227,12.789760 80.002892,10.027115  z"/>
<path fill="#000000" opacity="1.000000" stroke="none" d=" M63.771439,87.671982   C63.315819,87.966843 63.151508,87.992592 62.986298,88.001266   C57.534794,88.287743 52.066662,88.897018 46.643715,88.620537   C45.351929,88.554672 43.266071,85.562286 43.203785,83.855453   C43.085606,80.617035 42.009403,78.435020 39.874805,76.091438   C38.813961,74.926727 39.356533,72.301590 39.173748,70.337128   C41.352119,70.288330 44.229694,69.342453 45.561169,70.380234   C48.212723,72.446899 50.014370,75.604004 52.615288,78.874123   C64.807762,79.477715 66.420494,80.584976 63.771439,87.671982  z"/>
<path fill="#ffffff" opacity="1.000000" stroke="none" d=" M115.241470,163.741089   C113.347389,161.841415 111.367111,160.401611 110.181656,158.473206   C109.437912,157.263336 109.888214,155.319443 109.802795,153.704880   C111.420563,153.852310 113.631424,153.377670 114.552452,154.255844   C118.349579,157.876190 121.733467,161.927429 125.321312,165.771698   C126.151253,166.660950 127.186615,167.358505 128.995270,168.869049   C128.995270,154.762970 129.056488,141.710678 128.892838,128.661194   C128.877823,127.463936 127.588882,126.126083 126.613480,125.124191   C122.088097,120.476013 117.314651,116.058273 112.981079,111.242134   C111.889290,110.028770 112.092880,107.649826 111.701180,105.806526   C113.548203,106.125679 115.700523,105.946907 117.185112,106.857178   C121.671387,109.607933 125.898476,112.781418 130.226593,115.790123   C129.817642,116.517593 129.408707,117.245056 128.999756,117.972519   C128.999756,111.967110 128.977020,105.961563 129.011566,99.956352   C129.024414,97.722946 128.345123,94.944603 132.064423,94.999672   C135.810013,95.055138 134.973221,97.903603 134.980011,100.078926   C135.020493,113.062584 135.000015,126.046417 135.000000,139.030197   C134.999985,140.614563 135.000000,142.198929 135.000000,144.949814   C142.083572,138.448853 148.311020,132.733612 154.729279,126.843246   C158.244476,128.780731 159.209839,130.710510 155.753860,133.823151   C149.746185,139.233948 143.784622,144.721359 138.180984,150.539978   C136.481705,152.304443 135.176575,155.252365 135.137192,157.681702   C134.873291,173.960098 135.000000,190.244843 135.000000,206.762512   C132.948425,206.762512 131.213196,206.762512 128.999741,206.762512   C128.999741,199.780502 128.504166,192.789581 129.145813,185.904648   C129.731277,179.622391 127.643692,175.183640 122.947220,171.359802   C120.250587,169.164246 117.963074,166.466187 115.241470,163.741089  z"/>
<path fill="#ffffff" opacity="1.000000" stroke="none" d=" M54.999752,208.908051   C57.390636,197.173950 51.274509,189.746887 43.543873,183.088074   C40.781334,180.708542 39.620300,178.472229 44.019096,175.905273   C47.254459,178.934036 50.648785,182.111603 54.994320,186.179642   C54.994320,177.047882 55.054287,169.303925 54.916431,161.563492   C54.899693,160.623810 53.924015,159.610107 53.209900,158.789917   C50.300404,155.448318 47.218220,152.250854 44.433369,148.811081   C43.694294,147.898178 43.788307,146.310806 43.499809,145.033127   C45.104092,144.978363 47.292763,144.240341 48.192242,145.009659   C50.125923,146.663483 51.395523,149.093765 52.936970,151.206207   C53.624722,150.779068 54.312477,150.351913 55.000229,149.924759   C55.000229,146.548279 54.691017,143.129166 55.147678,139.815628   C55.338665,138.429810 57.155773,137.268127 58.233547,136.004532   C59.155357,137.256378 60.846802,138.490311 60.876450,139.762939   C61.100719,149.390289 60.998981,159.025223 62.008770,169.491409   C64.697105,166.791504 67.397972,164.103928 70.069359,161.387360   C71.857574,159.568893 73.962921,157.344528 76.130890,160.048508   C76.880829,160.983871 75.838150,164.350632 74.611565,165.685196   C71.288185,169.301208 67.180641,172.199966 63.887371,175.838699   C62.330967,177.558350 61.187916,180.300064 61.125439,182.612946   C60.838440,193.237869 60.999073,203.874863 60.999073,214.752060   C58.964359,214.752060 57.228317,214.752060 54.999752,214.752060   C54.999752,212.958694 54.999752,211.174530 54.999752,208.908051  z"/>
</svg>