<svg xmlns="http://www.w3.org/2000/svg" xmlns:xlink="http://www.w3.org/1999/xlink" version="1.1" id="Layer_1" x="0px" y="0px" width="100%" viewBox="-3 -3 262 262" enable-background="new 0 0 256 256" xml:space="preserve"><g id="deeditor_bgCarrier" stroke-width="0">
    <rect id="dee_c_e" x="-3" y="-3" width="262" height="262" rx="0" fill="#000000" strokewidth="0"/>
  </g>
<path fill="#ffffff" opacity="1.000000" stroke="none" d=" M144.000000,257.000000   C96.000000,257.000000 48.500004,257.000000 1.000006,257.000000   C1.000004,171.666672 1.000004,86.333351 1.000002,1.000018   C86.333321,1.000012 171.666641,1.000012 257.000000,1.000006   C257.000000,86.333313 257.000000,171.666626 257.000000,256.999969   C219.500000,257.000000 182.000000,257.000000 144.000000,257.000000  M93.091919,214.688568   C98.835663,214.083740 99.785393,210.589447 99.735191,205.371521   C99.488312,179.707809 99.605835,154.040405 99.657120,128.374405   C99.661209,126.326355 99.001991,124.071152 100.832024,122.035736   C101.407661,122.330582 102.352020,122.516670 102.444305,122.905167   C104.642677,132.159546 102.433243,141.663681 103.762383,151.219330   C108.739655,148.931076 110.663177,142.472717 116.834618,142.068314   C117.113800,144.736221 115.594070,145.735123 114.319374,146.685196   C109.351051,150.388214 106.217789,155.381546 104.102699,161.052017   C101.689484,167.521713 103.190475,173.907013 107.847885,176.496567   C113.743279,179.774490 120.069885,180.816681 126.601120,178.694473   C139.290543,174.571289 145.790070,163.272507 143.159958,149.618027   C142.501297,146.198456 142.933029,144.839035 146.744095,144.545074   C154.578125,143.940811 160.260590,139.764908 162.737396,132.279343   C165.220566,124.774559 163.124115,118.228279 157.006577,113.064011   C155.766830,112.017456 154.362213,111.029007 154.174774,109.099327   C156.157166,105.868042 160.219666,105.118736 162.451416,102.102722   C169.449387,92.645584 168.745392,75.476418 154.861649,69.511208   C151.197830,67.937027 150.268127,66.123772 152.133224,62.265972   C156.735687,52.746075 155.326508,43.478008 148.294724,35.888424   C141.562805,28.622501 132.676163,26.470087 123.153870,29.775377   C119.786789,30.944128 118.257301,30.649769 116.527573,27.437464   C109.778625,14.903935 94.753723,8.321818 80.978157,11.530929   C66.989273,14.789733 56.555695,27.059460 56.371258,40.468258   C56.270191,47.815521 56.270187,47.815521 48.872765,49.268188   C26.391111,53.683018 17.402666,79.612877 32.705475,96.692856   C35.877911,100.233704 35.266109,102.090942 32.345814,104.797081   C24.539284,112.031166 23.197401,121.171364 27.022118,130.394608   C30.880405,139.698776 38.640240,144.647171 49.084808,144.649872   C50.694336,144.650284 52.435669,144.291214 53.893440,145.607880   C54.494003,147.836914 53.289650,149.776215 52.719559,151.808777   C48.179882,167.994125 61.938728,180.702499 75.068710,179.664032   C83.548599,178.993332 86.615707,176.113846 86.624275,167.770462   C86.626846,165.270523 86.502335,162.763260 86.648834,160.271881   C87.327148,148.736893 82.964973,139.542755 73.895439,132.513763   C72.665367,131.560440 71.171524,130.620361 72.368851,128.934921   C73.697395,127.064758 75.057777,128.713379 76.206703,129.437881   C80.007774,131.834824 82.449997,135.699585 85.855278,139.037186   C88.020058,133.089142 84.749489,126.685005 88.235573,121.103088   C91.191360,123.012680 90.319382,125.401772 90.323883,127.410202   C90.385132,154.742783 90.342422,182.075653 90.429237,209.408096   C90.435226,211.293274 89.181183,213.973602 93.091919,214.688568  M206.644302,75.931473   C204.439163,69.498482 200.216187,64.874832 194.333542,61.489517   C185.327744,56.306911 170.631027,57.967525 164.110794,64.973900   C161.864044,67.388184 161.484985,69.431541 164.081390,71.724403   C165.840881,73.278191 167.235397,75.095329 168.238815,77.268600   C172.832169,87.217087 171.082001,97.824379 163.351959,105.723900   C161.042633,108.083870 159.714035,109.940407 162.491623,113.268646   C172.194214,124.894745 167.333878,142.075073 152.955963,146.930389   C148.751358,148.350220 146.878296,150.357971 147.344421,154.788345   C148.166901,162.605820 145.062622,169.172256 139.945068,174.725693   C137.895187,176.950165 138.103851,178.656219 139.301926,180.902756   C143.908661,189.540863 156.231628,192.929153 165.375214,188.235001   C168.890686,186.430252 170.312561,183.773560 169.492981,180.104187   C168.197632,174.304611 165.633698,169.140640 160.782532,165.417175   C159.464706,164.405701 157.917770,163.641235 158.258804,161.193436   C163.685852,159.839584 164.578156,166.959732 169.949112,167.298996   C169.949112,159.857849 169.949112,152.560394 169.949112,144.690247   C174.168945,146.336288 173.331543,149.153366 173.337173,151.411438   C173.396545,175.231277 173.426041,199.051544 173.323883,222.871109   C173.307098,226.785889 174.130371,229.695953 178.341660,230.670059   C180.264923,228.964554 179.580704,226.824493 179.586533,224.929764   C179.642807,206.606873 179.619934,188.283707 179.621689,169.960632   C179.622330,163.131134 179.555481,156.300262 179.685974,149.473190   C179.716309,147.886642 178.794647,145.095154 181.575165,145.210617   C184.153900,145.317703 183.139984,148.023010 183.343353,149.672577   C183.656967,152.216141 182.899490,154.888290 184.270981,158.244797   C187.022354,154.279785 190.150833,151.799911 193.817459,150.079269   C196.147736,152.302704 194.802643,153.354919 193.123322,154.547653   C190.538300,156.383636 188.524261,158.676514 186.792847,161.450302   C182.091629,168.981903 183.546280,177.207993 183.504120,185.278275   C183.494278,187.161041 184.936249,188.047577 186.576401,188.795837   C193.108383,191.775803 200.420120,190.789658 205.635376,186.011688   C211.070084,181.032700 211.656372,174.841385 209.920624,168.134216   C209.517303,166.575729 208.254486,165.158752 209.310486,163.325653   C211.422272,162.165161 213.803177,162.760513 216.091675,162.617767   C223.308411,162.167603 228.462341,158.292038 231.180557,151.997116   C233.978729,145.517044 233.569214,138.805756 228.097229,133.555206   C224.724991,130.319427 224.276596,127.954544 227.517899,124.060616   C237.236801,112.384895 232.976578,94.605103 218.509842,90.293060   C210.530701,87.914757 206.273193,85.133888 206.644302,75.931473  M204.098557,238.404251   C198.454819,230.360306 187.947830,230.131653 181.000885,234.691879   C178.218201,236.518509 176.647491,235.621597 174.551392,233.796249   C165.573090,225.977646 157.985703,225.316711 147.827988,231.630966   C145.295837,233.204987 143.809128,233.375244 141.440887,231.185211   C137.095612,227.166855 131.694626,225.892075 126.212585,228.593414   C122.458275,230.443390 120.644424,230.036789 118.405701,226.207092   C113.913292,218.522156 106.355034,215.725769 97.425606,217.412628   C90.504204,218.720139 84.951157,224.746033 83.358826,232.986191   C82.655792,236.624298 80.713844,236.490097 77.888893,235.538010   C70.556160,233.066681 64.112679,234.345596 60.607964,239.123184   C59.320400,240.878387 56.930752,242.760986 58.187115,245.256714   C59.372780,247.611984 62.093853,246.579102 64.137199,246.581528   C109.776909,246.635605 155.416718,246.636307 201.056427,246.588577   C203.094208,246.586456 205.901871,247.609909 206.905945,245.121475   C207.832458,242.825241 206.212219,240.688400 204.098557,238.404251  z"/>
</svg>