<svg xmlns="http://www.w3.org/2000/svg" xmlns:xlink="http://www.w3.org/1999/xlink" version="1.1" id="Layer_1" x="0px" y="0px" width="100%" viewBox="0 0 256 256" enable-background="new 0 0 256 256" xml:space="preserve">
<path fill="#ffffff" opacity="1.000000" stroke="none" d=" M1.000000,91.000000   C1.000000,61.086590 1.000000,31.173182 1.000000,1.000000   C21.353491,1.000000 41.708088,1.000000 62.836067,1.279995   C59.492256,6.803822 55.394657,12.063188 51.253971,17.288410   C41.060249,30.152098 30.861633,43.011971 20.635181,55.849632   C15.132572,62.757267 9.568572,69.615990 3.627594,76.999741   C20.002102,76.999741 35.473289,76.963692 50.943974,77.035797   C53.473240,77.047585 54.510212,76.332016 55.263344,73.646111   C57.157497,66.890999 59.734455,60.328640 61.993633,53.674053   C63.131229,50.323189 64.374443,46.943382 68.683426,47.056190   C72.807274,47.164154 74.876457,49.841286 76.044655,53.629387   C78.030762,60.069771 80.499069,66.368652 82.299690,72.856079   C83.233421,76.220192 84.755051,77.112915 88.166985,77.088440   C111.654205,76.919937 135.143204,77.004166 158.631622,76.985039   C159.662460,76.984200 160.693130,76.768433 162.454605,76.570793   C155.906906,70.867897 150.059586,65.601654 144.026474,60.557617   C132.647690,51.044296 121.149452,41.673977 109.724380,32.215828   C99.799164,23.999325 89.841270,15.819726 80.052505,7.443052   C78.019356,5.703187 76.666420,3.168423 75.000000,1.000000   C111.020897,1.000000 147.041794,1.000000 183.831879,1.279624   C183.362366,2.574408 182.098480,3.560561 180.888779,4.609190   C168.280075,15.539030 155.826828,26.656534 142.966537,37.281506   C140.033371,39.704826 140.996918,40.787579 142.887573,42.377792   C152.874847,50.778019 163.015915,58.998428 172.888687,67.529961   C175.981598,70.202690 177.033966,68.686699 177.945786,65.977402   C179.380875,61.713367 180.161240,57.137592 182.197845,53.200222   C183.508911,50.665539 186.321335,47.833420 188.911713,47.292061   C192.583481,46.524704 194.837097,49.778603 195.997116,53.308430   C198.295532,60.302357 200.559082,67.311287 203.084442,74.223640   C203.507568,75.381882 205.167084,76.868866 206.269821,76.880951   C222.024353,77.053703 237.781372,76.998863 254.005066,76.998863   C251.160400,73.259033 248.721436,69.887901 246.114410,66.652191   C230.687973,47.505692 215.201675,28.407381 199.794586,9.245359   C197.694000,6.632838 195.923386,3.754998 194.000000,1.000000   C214.939774,1.000000 235.879562,1.000000 257.000000,1.000000   C257.000000,30.687317 257.000000,60.375000 256.531342,90.531387   C240.430649,91.000084 224.798630,91.000084 209.030777,91.000084   C209.140686,95.474190 213.614731,100.252632 208.744217,103.405006   C205.323837,105.618805 200.647079,105.891441 196.009644,107.175346   C195.662247,112.108887 197.816086,120.493729 189.214294,120.634476   C180.190872,120.782135 182.314590,112.220490 181.957596,106.437065   C167.007843,104.750595 167.007843,104.750595 168.802139,91.308151   C163.910934,91.308151 159.031784,91.308151 153.932907,91.308151   C159.350662,111.513855 164.683441,131.373627 169.999786,151.237808   C176.106155,174.053864 182.225616,196.866470 188.285034,219.695007   C191.581573,232.114563 194.765366,244.564026 198.000000,257.000000   C193.643097,257.000000 189.286194,257.000000 184.461227,256.602844   C183.663483,255.308456 183.255997,254.431534 183.015625,253.510956   C177.984894,234.243454 173.126053,214.929642 167.923782,195.708740   C158.734177,161.755661 149.256943,127.880150 140.169403,93.900154   C139.378708,90.943642 138.763840,90.336197 136.000183,91.618057   C136.000183,95.855553 136.007996,100.171082 135.998306,104.486580   C135.984528,110.623192 134.107590,112.935371 129.116852,112.991066   C124.026321,113.047890 122.023026,110.729431 122.003059,104.717941   C121.988197,100.243721 122.000130,95.769417 122.000130,91.295143   C121.495827,90.984894 120.991516,90.674644 120.487213,90.364395   C119.382866,91.727051 117.685730,92.927879 117.262962,94.476601   C110.746590,118.347649 104.364059,142.255478 98.014809,166.171860   C89.979362,196.439804 82.002258,226.723236 74.000000,257.000000   C69.643097,257.000000 65.286201,257.000000 60.464760,256.590637   C74.652161,201.233795 89.304100,146.286331 103.989212,91.214493   C98.711723,91.214493 93.935776,91.214493 89.016594,91.214493   C89.186424,95.496384 93.600227,100.269295 88.734062,103.414871   C85.316254,105.624184 80.643517,105.892113 75.999603,107.173653   C75.999603,108.712105 76.072456,111.006470 75.983650,113.294548   C75.824348,117.398621 72.768768,120.832817 69.241180,120.996918   C65.565651,121.167900 62.185493,117.614754 62.017105,113.283745   C61.923458,110.875099 62.000290,108.459816 62.000290,106.084267   C47.168491,105.763657 46.744122,105.263977 48.891418,91.000000   C32.888943,91.000000 16.944471,91.000000 1.000000,91.000000  M66.497414,82.998650   C65.587837,85.836433 64.678268,88.674210 63.701035,91.723099   C67.454788,91.723099 70.663643,91.723099 74.388336,91.723099   C72.633606,86.491165 71.016212,81.668709 69.398819,76.846252   C69.089531,76.877548 68.780251,76.908852 68.470963,76.940155   C67.966545,78.730644 67.462120,80.521141 66.497414,82.998650  M191.000183,81.509460   C190.432114,79.967339 189.864059,78.425217 188.896240,75.797905   C186.927063,81.819710 185.342514,86.665298 183.598053,91.999969   C185.944733,91.999969 187.574432,91.999977 189.204132,91.999977   C190.765289,91.999977 192.326431,91.999969 194.555984,91.999969   C193.205307,88.280319 192.123978,85.302422 191.000183,81.509460  z"/>
<path fill="#000000" opacity="1.000000" stroke="none" d=" M198.468658,257.000000   C194.765366,244.564026 191.581573,232.114563 188.285034,219.695007   C182.225616,196.866470 176.106155,174.053864 169.999786,151.237808   C164.683441,131.373627 159.350662,111.513855 153.932907,91.308151   C159.031784,91.308151 163.910934,91.308151 168.802139,91.308151   C167.007843,104.750595 167.007843,104.750595 181.957596,106.437065   C182.314590,112.220490 180.190872,120.782135 189.214294,120.634476   C197.816086,120.493729 195.662247,112.108887 196.009644,107.175346   C200.647079,105.891441 205.323837,105.618805 208.744217,103.405006   C213.614731,100.252632 209.140686,95.474190 209.030777,91.000084   C224.798630,91.000084 240.430649,91.000084 256.531342,91.000046   C257.000000,146.225540 257.000000,201.451096 257.000000,257.000000   C237.646973,257.000000 218.292145,257.000000 198.468658,257.000000  M216.528900,210.084122   C223.188873,212.265640 225.028442,209.709137 226.392395,196.000000   C230.622726,196.000000 234.910004,196.004547 239.197281,195.998993   C246.809875,195.989151 249.815186,191.239975 247.083359,184.197433   C242.559601,172.535431 238.376633,160.741745 233.960144,149.037460   C231.132477,141.543793 228.416718,133.984283 225.053406,126.731308   C224.092010,124.658073 221.035919,122.331970 218.955154,122.345825   C216.868546,122.359718 214.680389,125.020706 212.777512,126.781700   C211.895630,127.597824 211.479324,128.991806 211.031357,130.190826   C204.235764,148.379822 197.514145,166.596588 190.673553,184.768585   C188.232071,191.254440 191.166733,195.949371 197.961960,195.994202   C202.569824,196.024597 207.178055,196.000000 211.788971,196.000000   C212.511200,201.190430 210.397171,206.682220 216.528900,210.084122  z"/>
<path fill="#000000" opacity="1.000000" stroke="none" d=" M1.000000,91.468658   C16.944471,91.000000 32.888943,91.000000 48.891418,91.000000   C46.744122,105.263977 47.168491,105.763657 62.000290,106.084267   C62.000290,108.459816 61.923458,110.875099 62.017105,113.283745   C62.185493,117.614754 65.565651,121.167900 69.241180,120.996918   C72.768768,120.832817 75.824348,117.398621 75.983650,113.294548   C76.072456,111.006470 75.999603,108.712105 75.999603,107.173653   C80.643517,105.892113 85.316254,105.624184 88.734062,103.414871   C93.600227,100.269295 89.186424,95.496384 89.016594,91.214493   C93.935776,91.214493 98.711723,91.214493 103.989212,91.214493   C89.304100,146.286331 74.652161,201.233795 60.000107,256.590637   C40.371639,257.000000 20.743280,257.000000 1.000000,257.000000   C1.000000,201.979156 1.000000,146.958237 1.000000,91.468658  M39.984028,114.482002   C36.040890,113.983704 33.453175,115.904991 32.268250,119.418358   C24.833490,141.462845 17.402807,163.510056 10.216546,185.636185   C8.144671,192.015381 11.597073,195.980621 18.485617,195.997910   C22.924314,196.009048 27.363064,196.000000 31.752193,196.000000   C32.462692,207.498535 34.238171,211.474899 38.932259,210.883972   C48.047733,209.736481 45.524792,201.983551 46.077709,196.546860   C46.650967,196.213013 46.787865,196.064011 46.925869,196.062973   C50.921955,196.032913 54.918137,196.008377 58.914337,196.001923   C67.199455,195.988510 69.710487,192.509277 67.053955,184.484558   C60.094353,163.461273 52.970467,142.491333 46.195824,121.408951   C45.152630,118.162567 44.019749,115.778000 39.984028,114.482002  z"/>
<path fill="#000000" opacity="1.000000" stroke="none" d=" M74.468658,257.000000   C82.002258,226.723236 89.979362,196.439804 98.014809,166.171860   C104.364059,142.255478 110.746590,118.347649 117.262962,94.476601   C117.685730,92.927879 119.382866,91.727051 120.487213,90.364395   C120.991516,90.674644 121.495827,90.984894 122.000130,91.295143   C122.000130,95.769417 121.988197,100.243721 122.003059,104.717941   C122.023026,110.729431 124.026321,113.047890 129.116852,112.991066   C134.107590,112.935371 135.984528,110.623192 135.998306,104.486580   C136.007996,100.171082 136.000183,95.855553 136.000183,91.618057   C138.763840,90.336197 139.378708,90.943642 140.169403,93.900154   C149.256943,127.880150 158.734177,161.755661 167.923782,195.708740   C173.126053,214.929642 177.984894,234.243454 183.015625,253.510956   C183.255997,254.431534 183.663483,255.308456 183.996582,256.602844   C168.312439,257.000000 152.624878,257.000000 136.468781,256.531342   C136.000214,246.590714 136.029144,237.118607 135.988968,227.646805   C135.966064,222.243820 133.700027,219.897446 128.781113,219.999893   C124.159286,220.096161 122.033928,222.411346 122.012009,227.587082   C121.970482,237.391235 122.000000,247.195679 122.000000,257.000000   C106.312439,257.000000 90.624878,257.000000 74.468658,257.000000  M133.939835,131.582886   C126.486076,127.827644 122.010567,130.548187 122.000870,138.843781   C121.996231,142.818909 121.946884,146.794937 122.013580,150.768936   C122.097427,155.764832 124.366112,158.027542 129.098984,157.986252   C133.766785,157.945526 135.925262,155.668350 135.988510,150.571579   C136.044006,146.100250 136.171570,141.617584 135.909286,137.160995   C135.814545,135.551208 134.679703,134.002655 133.939835,131.582886  M122.000145,194.228851   C122.065079,200.750458 123.943504,203.065094 129.124268,203.007385   C134.208527,202.950729 135.994766,200.607895 135.999695,193.981262   C136.002655,189.983673 136.069183,185.984573 135.981232,181.988922   C135.887680,177.738327 133.147888,175.032349 129.095520,174.999985   C124.534958,174.963562 122.153610,177.175354 122.022385,181.800934   C121.913788,185.628876 122.000160,189.462341 122.000145,194.228851  z"/>
<path fill="#000000" opacity="1.000000" stroke="none" d=" M74.539368,1.000000   C76.666420,3.168423 78.019356,5.703187 80.052505,7.443052   C89.841270,15.819726 99.799164,23.999325 109.724380,32.215828   C121.149452,41.673977 132.647690,51.044296 144.026474,60.557617   C150.059586,65.601654 155.906906,70.867897 162.454605,76.570793   C160.693130,76.768433 159.662460,76.984200 158.631622,76.985039   C135.143204,77.004166 111.654205,76.919937 88.166985,77.088440   C84.755051,77.112915 83.233421,76.220192 82.299690,72.856079   C80.499069,66.368652 78.030762,60.069771 76.044655,53.629387   C74.876457,49.841286 72.807274,47.164154 68.683426,47.056190   C64.374443,46.943382 63.131229,50.323189 61.993633,53.674053   C59.734455,60.328640 57.157497,66.890999 55.263344,73.646111   C54.510212,76.332016 53.473240,77.047585 50.943974,77.035797   C35.473289,76.963692 20.002102,76.999741 3.627594,76.999741   C9.568572,69.615990 15.132572,62.757267 20.635181,55.849632   C30.861633,43.011971 41.060249,30.152098 51.253971,17.288410   C55.394657,12.063188 59.492256,6.803822 63.304726,1.279995   C66.692909,1.000000 70.385818,1.000000 74.539368,1.000000  z"/>
<path fill="#000000" opacity="1.000000" stroke="none" d=" M193.545898,1.000000   C195.923386,3.754998 197.694000,6.632838 199.794586,9.245359   C215.201675,28.407381 230.687973,47.505692 246.114410,66.652191   C248.721436,69.887901 251.160400,73.259033 254.005066,76.998863   C237.781372,76.998863 222.024353,77.053703 206.269821,76.880951   C205.167084,76.868866 203.507568,75.381882 203.084442,74.223640   C200.559082,67.311287 198.295532,60.302357 195.997116,53.308430   C194.837097,49.778603 192.583481,46.524704 188.911713,47.292061   C186.321335,47.833420 183.508911,50.665539 182.197845,53.200222   C180.161240,57.137592 179.380875,61.713367 177.945786,65.977402   C177.033966,68.686699 175.981598,70.202690 172.888687,67.529961   C163.015915,58.998428 152.874847,50.778019 142.887573,42.377792   C140.996918,40.787579 140.033371,39.704826 142.966537,37.281506   C155.826828,26.656534 168.280075,15.539030 180.888779,4.609190   C182.098480,3.560561 183.362366,2.574408 184.300537,1.279624   C187.030594,1.000000 190.061188,1.000000 193.545898,1.000000  z"/>
<path fill="#ffffff" opacity="1.000000" stroke="none" d=" M122.464645,257.000000   C122.000000,247.195679 121.970482,237.391235 122.012009,227.587082   C122.033928,222.411346 124.159286,220.096161 128.781113,219.999893   C133.700027,219.897446 135.966064,222.243820 135.988968,227.646805   C136.029144,237.118607 136.000214,246.590714 136.000122,256.531342   C131.643097,257.000000 127.286201,257.000000 122.464645,257.000000  z"/>
<path fill="#000000" opacity="1.000000" stroke="none" d=" M66.727554,82.655136   C67.462120,80.521141 67.966545,78.730644 68.470963,76.940155   C68.780251,76.908852 69.089531,76.877548 69.398819,76.846252   C71.016212,81.668709 72.633606,86.491165 74.388336,91.723099   C70.663643,91.723099 67.454788,91.723099 63.701035,91.723099   C64.678268,88.674210 65.587837,85.836433 66.727554,82.655136  z"/>
<path fill="#000000" opacity="1.000000" stroke="none" d=" M191.021423,81.916992   C192.123978,85.302422 193.205307,88.280319 194.555984,91.999969   C192.326431,91.999969 190.765289,91.999977 189.204132,91.999977   C187.574432,91.999977 185.944733,91.999969 183.598053,91.999969   C185.342514,86.665298 186.927063,81.819710 188.896240,75.797905   C189.864059,78.425217 190.432114,79.967339 191.021423,81.916992  z"/>
<path fill="#ffffff" opacity="1.000000" stroke="none" d=" M216.133179,210.027985   C210.397171,206.682220 212.511200,201.190430 211.788971,196.000000   C207.178055,196.000000 202.569824,196.024597 197.961960,195.994202   C191.166733,195.949371 188.232071,191.254440 190.673553,184.768585   C197.514145,166.596588 204.235764,148.379822 211.031357,130.190826   C211.479324,128.991806 211.895630,127.597824 212.777512,126.781700   C214.680389,125.020706 216.868546,122.359718 218.955154,122.345825   C221.035919,122.331970 224.092010,124.658073 225.053406,126.731308   C228.416718,133.984283 231.132477,141.543793 233.960144,149.037460   C238.376633,160.741745 242.559601,172.535431 247.083359,184.197433   C249.815186,191.239975 246.809875,195.989151 239.197281,195.998993   C234.910004,196.004547 230.622726,196.000000 226.392395,196.000000   C225.028442,209.709137 223.188873,212.265640 216.133179,210.027985  M218.593246,150.064209   C214.628296,160.496979 210.663345,170.929749 206.544098,181.768524   C215.056763,181.768524 222.935349,181.768524 231.448547,181.768524   C227.335770,170.942047 223.370026,160.502609 218.593246,150.064209  z"/>
<path fill="#ffffff" opacity="1.000000" stroke="none" d=" M40.293369,114.721161   C44.019749,115.778000 45.152630,118.162567 46.195824,121.408951   C52.970467,142.491333 60.094353,163.461273 67.053955,184.484558   C69.710487,192.509277 67.199455,195.988510 58.914337,196.001923   C54.918137,196.008377 50.921955,196.032913 46.925869,196.062973   C46.787865,196.064011 46.650967,196.213013 46.077709,196.546860   C45.524792,201.983551 48.047733,209.736481 38.932259,210.883972   C34.238171,211.474899 32.462692,207.498535 31.752193,196.000000   C27.363064,196.000000 22.924314,196.009048 18.485617,195.997910   C11.597073,195.980621 8.144671,192.015381 10.216546,185.636185   C17.402807,163.510056 24.833490,141.462845 32.268250,119.418358   C33.453175,115.904991 36.040890,113.983704 40.293369,114.721161  M36.000175,152.503876   C32.764133,162.256287 29.528095,172.008682 26.254501,181.874268   C35.023418,181.874268 43.276234,181.874268 51.791370,181.874268   C47.618607,169.393600 43.510616,157.106689 39.080189,143.855362   C37.758858,147.260513 36.900742,149.471939 36.000175,152.503876  z"/>
<path fill="#ffffff" opacity="1.000000" stroke="none" d=" M133.979660,132.004517   C134.679703,134.002655 135.814545,135.551208 135.909286,137.160995   C136.171570,141.617584 136.044006,146.100250 135.988510,150.571579   C135.925262,155.668350 133.766785,157.945526 129.098984,157.986252   C124.366112,158.027542 122.097427,155.764832 122.013580,150.768936   C121.946884,146.794937 121.996231,142.818909 122.000870,138.843781   C122.010567,130.548187 126.486076,127.827644 133.979660,132.004517  z"/>
<path fill="#ffffff" opacity="1.000000" stroke="none" d=" M122.000153,193.761108   C122.000160,189.462341 121.913788,185.628876 122.022385,181.800934   C122.153610,177.175354 124.534958,174.963562 129.095520,174.999985   C133.147888,175.032349 135.887680,177.738327 135.981232,181.988922   C136.069183,185.984573 136.002655,189.983673 135.999695,193.981262   C135.994766,200.607895 134.208527,202.950729 129.124268,203.007385   C123.943504,203.065094 122.065079,200.750458 122.000153,193.761108  z"/>
<path fill="#000000" opacity="1.000000" stroke="none" d=" M218.998764,150.063690   C223.370026,160.502609 227.335770,170.942047 231.448547,181.768524   C222.935349,181.768524 215.056763,181.768524 206.544098,181.768524   C210.663345,170.929749 214.628296,160.496979 218.998764,150.063690  z"/>
<path fill="#000000" opacity="1.000000" stroke="none" d=" M36.021400,152.093613   C36.900742,149.471939 37.758858,147.260513 39.080189,143.855362   C43.510616,157.106689 47.618607,169.393600 51.791370,181.874268   C43.276234,181.874268 35.023418,181.874268 26.254501,181.874268   C29.528095,172.008682 32.764133,162.256287 36.021400,152.093613  z"/>
</svg>