<svg xmlns="http://www.w3.org/2000/svg" xmlns:xlink="http://www.w3.org/1999/xlink" version="1.1" id="Layer_1" x="0px" y="0px" width="100%" viewBox="0 0 256 256" enable-background="new 0 0 256 256" xml:space="preserve">
<path fill="#080807" opacity="1.000000" stroke="none" d=" M1.000000,89.000000   C1.000000,87.611107 1.000000,86.222221 1.285328,84.718285   C6.234951,78.025002 10.899246,71.446762 16.178844,64.000732   C13.446181,64.000732 12.258836,64.165543 11.138299,63.962196   C9.448092,63.655472 7.804534,63.091690 6.141149,62.637169   C6.921891,61.091782 7.531742,59.426144 8.517598,58.025082   C10.842608,54.720879 13.346763,51.542725 16.274336,47.655087   C13.253937,47.281143 10.759296,46.972294 8.045197,46.636272   C8.103874,45.512398 7.731897,44.075832 8.286952,43.320438   C14.324553,35.103634 20.505943,26.992453 26.651476,18.855001   C28.772287,16.046785 30.739033,16.641380 32.593086,19.151402   C37.307114,25.533264 42.074673,31.876898 46.695618,38.325542   C48.483959,40.821224 49.934776,43.558765 51.760513,46.548229   C48.229286,46.985767 45.747131,47.293320 42.880627,47.648495   C46.646381,52.991116 49.957752,57.689087 53.995396,63.417446   C49.777489,63.757504 46.637405,64.010658 43.378338,64.273415   C48.502689,72.242386 53.598080,80.166321 59.386868,89.168564   C51.104233,89.168564 44.676754,89.168564 38.000454,89.168564   C38.000454,98.513573 37.928864,107.484001 38.033875,116.452354   C38.079151,120.318985 44.023434,128.730621 47.225845,128.880844   C54.454243,129.219925 61.709457,128.987366 69.000397,128.987366   C69.000397,123.095390 69.084625,117.929672 68.966614,112.768570   C68.902916,109.982407 69.990395,108.944260 72.790276,108.935104   C75.637505,108.925774 77.150322,109.620522 77.046127,112.837090   C76.875046,118.119110 76.999786,123.410721 76.999786,128.016602   C85.362183,129.817276 93.147026,131.493591 101.000214,133.184631   C101.000214,126.655281 101.119743,119.990692 100.948326,113.333595   C100.866203,110.144150 101.867088,108.872597 105.212822,108.911842   C108.480103,108.950165 109.073013,110.470650 109.037086,113.257431   C108.932068,121.403290 108.999748,129.551361 108.999748,135.730972   C117.375626,142.925201 124.801674,148.993378 131.796387,155.523590   C133.608002,157.214920 135.010559,158.401962 137.419159,157.991821   C141.876297,157.232849 146.486115,156.922455 150.746719,155.543030   C162.653900,151.687866 174.565842,151.818970 186.390442,155.179428   C196.302612,157.996414 205.894241,158.721451 215.824188,155.166550   C220.002594,153.670685 224.706055,153.574463 229.192932,153.021103   C238.806747,151.835434 247.916168,154.373093 257.000000,157.000000   C257.000000,190.303177 257.000000,223.606369 257.000000,256.954773   C171.774017,256.954773 86.548012,256.954773 1.000000,256.954773   C1.000000,214.646317 1.000000,172.291809 1.459247,129.468567   C3.413602,128.999878 4.908710,129.000000 6.403818,129.000000   C13.727697,129.000000 20.280487,124.139069 20.819721,116.860352   C21.499866,107.679611 20.983824,98.410263 20.983824,89.000000   C13.923139,89.000000 7.461569,89.000000 1.000000,89.000000  z"/>
<path fill="#ffffff" opacity="1.000000" stroke="none" d=" M257.000000,156.531342   C247.916168,154.373093 238.806747,151.835434 229.192932,153.021103   C224.706055,153.574463 220.002594,153.670685 215.824188,155.166550   C205.894241,158.721451 196.302612,157.996414 186.390442,155.179428   C174.565842,151.818970 162.653900,151.687866 150.746719,155.543030   C146.486115,156.922455 141.876297,157.232849 137.419159,157.991821   C135.010559,158.401962 133.608002,157.214920 131.796387,155.523590   C124.801674,148.993378 117.375626,142.925201 108.999748,135.730972   C108.999748,129.551361 108.932068,121.403290 109.037086,113.257431   C109.073013,110.470650 108.480103,108.950165 105.212822,108.911842   C101.867088,108.872597 100.866203,110.144150 100.948326,113.333595   C101.119743,119.990692 101.000214,126.655281 101.000214,133.184631   C93.147026,131.493591 85.362183,129.817276 76.999786,128.016602   C76.999786,123.410721 76.875046,118.119110 77.046127,112.837090   C77.150322,109.620522 75.637505,108.925774 72.790276,108.935104   C69.990395,108.944260 68.902916,109.982407 68.966614,112.768570   C69.084625,117.929672 69.000397,123.095390 69.000397,128.987366   C61.709457,128.987366 54.454243,129.219925 47.225845,128.880844   C44.023434,128.730621 38.079151,120.318985 38.033875,116.452354   C37.928864,107.484001 38.000454,98.513573 38.000454,89.168564   C44.676754,89.168564 51.104233,89.168564 59.386868,89.168564   C53.598080,80.166321 48.502689,72.242386 43.378338,64.273415   C46.637405,64.010658 49.777489,63.757504 53.995396,63.417446   C49.957752,57.689087 46.646381,52.991116 42.880627,47.648495   C45.747131,47.293320 48.229286,46.985767 51.760513,46.548229   C49.934776,43.558765 48.483959,40.821224 46.695618,38.325542   C42.074673,31.876898 37.307114,25.533264 32.593086,19.151402   C30.739033,16.641380 28.772287,16.046785 26.651476,18.855001   C20.505943,26.992453 14.324553,35.103634 8.286952,43.320438   C7.731897,44.075832 8.103874,45.512398 8.045197,46.636272   C10.759296,46.972294 13.253937,47.281143 16.274336,47.655087   C13.346763,51.542725 10.842608,54.720879 8.517598,58.025082   C7.531742,59.426144 6.921891,61.091782 6.141149,62.637169   C7.804534,63.091690 9.448092,63.655472 11.138299,63.962196   C12.258836,64.165543 13.446181,64.000732 16.178844,64.000732   C10.899246,71.446762 6.234951,78.025002 1.285328,84.301620   C1.000000,56.389473 1.000000,28.778948 1.000000,1.000000   C45.020752,1.000000 89.041718,1.000000 133.837646,1.305572   C129.729980,5.260744 124.890465,8.971049 119.921715,12.499349   C119.106842,13.077991 117.703270,13.070985 116.605606,12.969341   C108.181602,12.189267 103.256004,16.089581 100.948578,23.024033   C100.370972,24.759911 98.916809,26.239269 97.732437,27.730858   C95.172874,30.954338 91.497566,33.725807 90.138092,37.374912   C87.573273,44.259377 87.405815,50.620949 97.797241,50.014080   C99.621628,49.907539 101.457573,49.998959 103.288185,49.998959   C128.916718,49.998966 154.545258,50.009315 180.173782,49.991062   C185.931946,49.986961 188.072174,47.988220 187.979263,42.572220   C187.853165,35.220688 183.983734,30.301771 177.667343,26.944372   C176.586594,26.369911 175.365875,25.223473 175.081619,24.117245   C172.689713,14.808973 167.478485,7.938292 158.623154,3.889390   C157.535736,3.392188 156.864243,1.985317 156.000000,1.000001   C189.609268,1.000000 223.218521,1.000000 257.000000,1.000000   C257.000000,52.687435 257.000000,104.375061 257.000000,156.531342  M94.032310,91.807121   C95.156464,93.534134 96.052109,96.403152 97.465240,96.685913   C99.067192,97.006462 101.355980,95.272850 102.927185,93.938866   C104.218185,92.842789 104.979836,91.070358 105.826797,89.516327   C107.153053,87.082886 108.115952,84.373833 105.047264,82.678215   C102.531227,81.287971 99.796776,81.105934 98.102760,84.346596   C96.913330,86.621971 95.627449,88.846924 94.032310,91.807121  M127.260796,96.997971   C129.586426,94.096001 132.324570,91.413582 134.041473,88.187637   C134.761993,86.833832 133.320389,84.329330 132.861725,82.347961   C130.776794,82.867920 128.214462,82.816757 126.731316,84.056587   C124.991058,85.511353 124.152031,88.068047 122.987907,90.183022   C120.817947,94.125389 122.116058,96.349373 127.260796,96.997971  M158.966492,94.424080   C160.001587,92.441032 161.092819,90.484909 162.059891,88.469223   C163.983780,84.459259 162.527924,82.069092 158.171951,82.001923   C153.096024,81.923645 152.966507,86.660614 151.361664,89.583473   C150.469772,91.207870 150.621735,94.522125 151.745392,95.890602   C153.731506,98.309448 156.453033,97.322556 158.966492,94.424080  M111.083694,62.377930   C109.706177,64.710732 108.459816,67.134743 106.917297,69.352798   C105.069580,72.009720 105.797577,74.598511 108.244217,75.424454   C109.995476,76.015633 112.823532,74.887703 114.546410,73.654205   C116.086853,72.551323 117.114792,70.365028 117.734894,68.451340   C118.313438,66.665863 118.831764,63.482937 118.003563,62.914051   C116.410324,61.819668 113.846748,62.137901 111.083694,62.377930  M141.746490,61.001629   C139.444000,63.877464 136.742218,66.538658 135.026794,69.730057   C134.294922,71.091629 135.622665,73.560287 136.014496,75.525864   C138.180450,75.000839 140.813309,75.057465 142.386765,73.794357   C144.111023,72.410194 144.882782,69.821854 146.024719,67.733711   C148.180008,63.792507 146.854874,61.617409 141.746490,61.001629  M171.959488,71.395836   C172.568375,70.465538 173.263321,69.579498 173.769012,68.596130   C174.994858,66.212471 176.197250,63.668716 173.186768,61.749992   C170.315201,59.919811 167.888336,60.944813 166.075180,63.562767   C165.086044,64.990967 164.292618,66.555260 163.419724,68.063271   C161.837692,70.796432 160.756668,73.836388 164.273956,75.578964   C167.671249,77.262085 170.175461,75.432442 171.959488,71.395836  z"/>
<path fill="#080807" opacity="1.000000" stroke="none" d=" M155.531433,1.000001   C156.864243,1.985317 157.535736,3.392188 158.623154,3.889390   C167.478485,7.938292 172.689713,14.808973 175.081619,24.117245   C175.365875,25.223473 176.586594,26.369911 177.667343,26.944372   C183.983734,30.301771 187.853165,35.220688 187.979263,42.572220   C188.072174,47.988220 185.931946,49.986961 180.173782,49.991062   C154.545258,50.009315 128.916718,49.998966 103.288185,49.998959   C101.457573,49.998959 99.621628,49.907539 97.797241,50.014080   C87.405815,50.620949 87.573273,44.259377 90.138092,37.374912   C91.497566,33.725807 95.172874,30.954338 97.732437,27.730858   C98.916809,26.239269 100.370972,24.759911 100.948578,23.024033   C103.256004,16.089581 108.181602,12.189267 116.605606,12.969341   C117.703270,13.070985 119.106842,13.077991 119.921715,12.499349   C124.890465,8.971049 129.729980,5.260744 134.306305,1.305572   C141.020950,1.000000 148.041901,1.000000 155.531433,1.000001  z"/>
<path fill="#ffffff" opacity="1.000000" stroke="none" d=" M1.000000,89.468658   C7.461569,89.000000 13.923139,89.000000 20.983824,89.000000   C20.983824,98.410263 21.499866,107.679611 20.819721,116.860352   C20.280487,124.139069 13.727697,129.000000 6.403818,129.000000   C4.908710,129.000000 3.413602,128.999878 1.459247,128.999908   C1.000000,115.979103 1.000000,102.958214 1.000000,89.468658  z"/>
<path fill="#080807" opacity="1.000000" stroke="none" d=" M94.208481,91.450760   C95.627449,88.846924 96.913330,86.621971 98.102760,84.346596   C99.796776,81.105934 102.531227,81.287971 105.047264,82.678215   C108.115952,84.373833 107.153053,87.082886 105.826797,89.516327   C104.979836,91.070358 104.218185,92.842789 102.927185,93.938866   C101.355980,95.272850 99.067192,97.006462 97.465240,96.685913   C96.052109,96.403152 95.156464,93.534134 94.208481,91.450760  z"/>
<path fill="#080807" opacity="1.000000" stroke="none" d=" M126.859802,96.998718   C122.116058,96.349373 120.817947,94.125389 122.987907,90.183022   C124.152031,88.068047 124.991058,85.511353 126.731316,84.056587   C128.214462,82.816757 130.776794,82.867920 132.861725,82.347961   C133.320389,84.329330 134.761993,86.833832 134.041473,88.187637   C132.324570,91.413582 129.586426,94.096001 126.859802,96.998718  z"/>
<path fill="#080807" opacity="1.000000" stroke="none" d=" M158.716492,94.725822   C156.453033,97.322556 153.731506,98.309448 151.745392,95.890602   C150.621735,94.522125 150.469772,91.207870 151.361664,89.583473   C152.966507,86.660614 153.096024,81.923645 158.171951,82.001923   C162.527924,82.069092 163.983780,84.459259 162.059891,88.469223   C161.092819,90.484909 160.001587,92.441032 158.716492,94.725822  z"/>
<path fill="#080807" opacity="1.000000" stroke="none" d=" M111.384659,62.124100   C113.846748,62.137901 116.410324,61.819668 118.003563,62.914051   C118.831764,63.482937 118.313438,66.665863 117.734894,68.451340   C117.114792,70.365028 116.086853,72.551323 114.546410,73.654205   C112.823532,74.887703 109.995476,76.015633 108.244217,75.424454   C105.797577,74.598511 105.069580,72.009720 106.917297,69.352798   C108.459816,67.134743 109.706177,64.710732 111.384659,62.124100  z"/>
<path fill="#080807" opacity="1.000000" stroke="none" d=" M142.146027,61.000893   C146.854874,61.617409 148.180008,63.792507 146.024719,67.733711   C144.882782,69.821854 144.111023,72.410194 142.386765,73.794357   C140.813309,75.057465 138.180450,75.000839 136.014496,75.525864   C135.622665,73.560287 134.294922,71.091629 135.026794,69.730057   C136.742218,66.538658 139.444000,63.877464 142.146027,61.000893  z"/>
<path fill="#080807" opacity="1.000000" stroke="none" d=" M171.722839,71.703407   C170.175461,75.432442 167.671249,77.262085 164.273956,75.578964   C160.756668,73.836388 161.837692,70.796432 163.419724,68.063271   C164.292618,66.555260 165.086044,64.990967 166.075180,63.562767   C167.888336,60.944813 170.315201,59.919811 173.186768,61.749992   C176.197250,63.668716 174.994858,66.212471 173.769012,68.596130   C173.263321,69.579498 172.568375,70.465538 171.722839,71.703407  z"/>
</svg>