<svg xmlns="http://www.w3.org/2000/svg" xmlns:xlink="http://www.w3.org/1999/xlink" version="1.1" id="Layer_1" x="0px" y="0px" width="100%" viewBox="0 0 256 256" enable-background="new 0 0 256 256" xml:space="preserve">
<path fill="#ffffff" opacity="1.000000" stroke="none" d=" M142.000000,257.000000   C94.666672,257.000000 47.833340,257.000000 1.000006,257.000000   C1.000004,171.666672 1.000004,86.333351 1.000002,1.000018   C86.333321,1.000012 171.666641,1.000012 257.000000,1.000006   C257.000000,86.333313 257.000000,171.666626 257.000000,256.999969   C218.833328,257.000000 180.666672,257.000000 142.000000,257.000000  M78.631958,40.129509   C80.033638,40.419983 81.422729,40.820705 82.839104,40.982555   C90.487259,41.856495 95.892593,49.693390 92.845100,56.584827   C82.006317,48.562080 70.865273,39.508904 59.425129,56.286137   C68.878891,63.115471 77.741455,69.634842 86.728821,75.977371   C95.809181,82.385506 105.013214,88.618393 114.415794,95.102333   C115.028542,93.839676 115.541328,92.525093 116.262962,91.337418   C121.354935,82.956985 119.678749,75.276733 111.688255,69.936073   C107.979889,67.457497 104.430634,64.740860 100.912277,62.206364   C101.043091,61.354343 101.016373,60.830338 101.205200,60.401165   C105.314888,51.060452 103.030678,41.377098 95.037025,37.453747   C93.321533,36.611771 90.920204,35.344082 90.571815,33.863708   C89.249672,28.245787 84.499168,26.199709 80.657211,23.179852   C72.969154,17.136869 64.417419,15.191669 55.793972,20.276115   C51.831821,22.612226 48.838951,26.872696 45.929546,30.662085   C36.662174,42.732494 27.407011,54.937931 23.239017,69.868111   C22.084087,74.005180 22.328018,78.912575 23.319595,83.140694   C24.026085,86.153183 27.057976,88.620323 28.942749,91.182167   C25.906252,94.696548 22.799416,97.895088 20.147625,101.434563   C11.546106,112.915421 13.489653,128.795731 24.082666,137.410965   C31.326237,143.302109 39.265057,148.367249 47.074112,153.527695   C59.717968,161.883102 76.599258,157.821976 83.688156,145.889603   C92.693436,130.731476 102.030441,115.770424 111.152161,100.842636   C92.139305,87.335457 73.456001,74.062401 54.956318,60.919792   C48.738907,68.031509 42.790474,74.977333 36.606476,81.706688   C35.930534,82.442230 33.034817,82.488152 32.654457,81.897362   C31.405060,79.956779 29.755037,77.280304 30.258188,75.430336   C31.081917,72.401688 33.166012,69.523933 35.311535,67.109528   C36.925365,65.293449 40.097271,64.764503 41.490025,62.866142   C47.784763,54.286251 53.716125,45.438644 59.731213,36.655170   C62.683296,32.344414 66.140007,31.721401 70.261963,34.762810   C72.730080,36.583927 75.313766,38.248402 78.631958,40.129509  M51.500000,241.000626   C112.814636,241.000610 174.129272,241.000610 235.443909,241.000565   C236.443604,241.000565 237.750092,241.403458 238.383713,240.921677   C240.076645,239.634415 242.328705,238.197525 242.816711,236.401215   C243.733551,233.026367 240.911560,232.978134 238.424103,232.983093   C222.095779,233.015594 205.767349,233.005783 189.438980,232.989304   C188.008560,232.987854 186.578323,232.839279 183.756180,232.680969   C185.231400,224.029861 186.594971,215.908356 188.007629,207.795410   C188.869080,202.848038 191.402039,202.503464 196.189606,203.409164   C204.418854,204.965927 213.306564,205.627625 218.964310,197.365952   C222.691666,191.923111 225.488190,185.842819 228.999039,179.511398   C225.061935,178.148422 222.435486,176.900787 219.669754,176.339035   C206.189026,173.600937 199.047714,175.507767 191.299042,187.357513   C186.208069,195.142929 181.508163,203.184052 176.083069,212.005051   C174.365768,208.898483 172.477509,205.604477 170.704865,202.249359   C167.483673,196.152618 163.476807,190.731216 156.046509,190.080414   C150.118042,189.561127 144.097214,189.868378 138.138901,190.197678   C137.368637,190.240250 136.261993,192.574524 136.143509,193.920486   C135.993866,195.620499 136.645264,197.407852 137.042664,199.136490   C140.357895,213.557083 150.597137,220.249863 165.401413,218.145905   C167.883179,217.793182 171.920273,218.298019 172.955673,219.890732   C175.331192,223.544983 176.297913,228.115051 177.980865,232.707123   C150.027313,232.707123 123.622757,232.707123 96.999901,232.707123   C96.999901,228.438492 97.127205,224.455276 96.958481,220.484634   C96.830109,217.463577 97.624954,216.288742 101.023560,215.861816   C112.429825,214.429016 121.042847,201.678528 118.192215,190.870728   C110.202965,191.323730 102.573380,192.598602 96.747650,199.538010   C97.312607,195.960190 98.146217,192.571915 99.881142,189.734787   C105.535393,180.488373 102.841644,168.773178 93.604851,161.074127   C84.345284,169.693726 82.606155,179.182922 88.001465,190.470016   C89.171707,192.918198 89.730782,195.658508 90.571358,198.264267   C83.980194,193.019043 77.024811,191.224075 69.438759,190.989624   C67.188332,205.545746 76.744705,215.974182 89.784317,216.393326   C89.784317,221.807236 89.784317,227.223328 89.784317,232.999786   C87.948273,232.999786 86.316406,232.999786 84.684547,232.999786   C64.357368,232.999817 44.030186,232.988846 23.703035,233.013046   C21.005667,233.016266 17.841574,232.097992 17.923599,236.844238   C18.004251,241.511063 21.156237,240.959045 24.008177,240.978516   C32.838425,241.038803 41.669342,241.000595 51.500000,241.000626  M140.375366,134.952026   C140.789108,134.674210 141.171967,134.225174 141.621185,134.144196   C148.717072,132.865143 148.807602,132.706787 146.392303,126.114174   C148.083450,124.037842 150.884201,122.128090 150.737473,120.480881   C150.359314,116.235306 151.863297,112.782509 153.350098,109.147087   C155.454941,104.000450 153.606430,98.804916 148.868347,96.296745   C143.636444,93.527168 136.495712,94.897087 134.173782,99.676399   C130.819504,106.580605 128.078735,113.780426 124.965370,120.805008   C123.060364,125.103210 123.846878,128.655594 127.288361,131.805450   C130.840057,135.056183 134.751846,136.642960 140.375366,134.952026  M106.883888,128.029785   C110.437218,127.622406 113.990547,127.215027 117.482162,126.814728   C121.220787,118.066803 124.928360,109.391541 128.949722,99.982048   C126.464317,99.982048 125.121201,100.379623 124.229904,99.913414   C120.309875,97.862946 118.504921,99.398842 116.875183,103.099655   C115.400482,106.448387 112.925133,109.345306 111.013618,112.515381   C107.849915,117.762070 104.784721,123.068153 101.024826,129.459610   C103.668312,128.898392 104.882500,128.640625 106.883888,128.029785  M158.582840,171.951981   C157.823029,173.544556 156.023605,175.794464 156.525955,176.588989   C157.487762,178.110153 159.845734,179.711136 161.457932,179.555481   C162.759674,179.429794 164.872818,176.687164 164.758606,175.254333   C164.533890,172.435364 162.605087,170.338425 158.582840,171.951981  M159.577499,122.999504   C162.158890,123.185463 164.056152,122.899155 164.099670,119.436745   C164.132660,116.813393 163.186584,115.234573 160.823883,115.139282   C159.277878,115.076927 156.478516,115.951576 156.346069,116.754074   C155.980164,118.970779 154.428787,122.318130 159.577499,122.999504  M152.949783,146.157288   C152.966095,145.158630 153.340668,143.961533 152.921188,143.204285   C152.143448,141.800278 151.077118,139.905563 149.804474,139.606979   C148.499557,139.300873 146.050903,140.275711 145.478638,141.393982   C144.832031,142.657471 145.208847,145.803513 146.040253,146.188629   C147.913452,147.056320 150.341629,146.725861 152.949783,146.157288  M148.339783,162.987366   C152.201447,160.696579 153.387985,157.478271 150.887604,155.568207   C149.739761,154.691360 147.741592,153.919678 146.585953,154.344193   C145.428116,154.769516 143.932922,156.985062 144.198792,157.988449   C144.685211,159.824112 146.360077,161.344864 148.339783,162.987366  M172.607590,130.069794   C168.754379,126.320213 166.737411,126.006065 165.064926,129.197952   C164.460068,130.352295 164.444214,132.311646 165.033646,133.451782   C165.590897,134.529648 167.958572,135.914047 168.378983,135.603821   C170.146439,134.299622 171.482635,132.410965 172.607590,130.069794  M170.370789,146.889252   C174.864792,149.661499 177.600311,149.335648 177.800568,145.717056   C177.902725,143.870712 176.278702,140.433304 175.113663,140.287827   C171.355270,139.818512 169.822006,142.519531 170.370789,146.889252  M157.986542,136.504349   C159.072540,133.648849 160.984985,130.388809 156.326859,129.095932   C153.663223,128.356628 151.180573,129.606140 151.077332,132.726898   C150.936249,136.991226 154.100052,137.152664 157.986542,136.504349  M164.072510,143.613159   C162.227341,143.395782 159.569305,142.345673 158.733109,143.161926   C157.564590,144.302582 156.988785,147.166931 157.632416,148.657867   C158.066788,149.664032 161.814789,150.496353 162.696976,149.756546   C164.004272,148.660278 164.085114,146.101440 164.072510,143.613159  M179.595337,156.100922   C177.547226,156.102005 175.281937,155.588898 173.543457,156.323105   C172.686249,156.685135 172.000031,159.997269 172.665665,160.824677   C173.670013,162.073074 175.925491,162.314941 177.649200,162.984619   C178.419113,160.947632 179.189026,158.910629 179.595337,156.100922  M159.026749,158.763443   C159.018539,159.094101 159.020752,159.425400 159.000504,159.755310   C158.810806,162.844650 159.909851,165.041061 163.314545,164.935715   C165.497818,164.868149 167.339294,164.051483 167.031631,161.125107   C166.630615,157.311035 164.171982,156.730316 161.086121,157.064331   C160.510284,157.126678 159.989655,157.698868 159.026749,158.763443  M142.417175,168.000458   C140.204758,167.950302 137.585312,167.847824 138.132874,171.035919   C138.435852,172.799896 139.745010,174.880264 141.227982,175.758072   C142.040848,176.239212 145.489944,174.412186 145.442322,173.807785   C145.286346,171.828018 144.072525,169.931580 142.417175,168.000458  z"/>
<path fill="#000000" opacity="1.000000" stroke="none" d=" M78.238739,40.056396   C75.313766,38.248402 72.730080,36.583927 70.261963,34.762810   C66.140007,31.721401 62.683296,32.344414 59.731213,36.655170   C53.716125,45.438644 47.784763,54.286251 41.490025,62.866142   C40.097271,64.764503 36.925365,65.293449 35.311535,67.109528   C33.166012,69.523933 31.081917,72.401688 30.258188,75.430336   C29.755037,77.280304 31.405060,79.956779 32.654457,81.897362   C33.034817,82.488152 35.930534,82.442230 36.606476,81.706688   C42.790474,74.977333 48.738907,68.031509 54.956318,60.919792   C73.456001,74.062401 92.139305,87.335457 111.152161,100.842636   C102.030441,115.770424 92.693436,130.731476 83.688156,145.889603   C76.599258,157.821976 59.717968,161.883102 47.074112,153.527695   C39.265057,148.367249 31.326237,143.302109 24.082666,137.410965   C13.489653,128.795731 11.546106,112.915421 20.147625,101.434563   C22.799416,97.895088 25.906252,94.696548 28.942749,91.182167   C27.057976,88.620323 24.026085,86.153183 23.319595,83.140694   C22.328018,78.912575 22.084087,74.005180 23.239017,69.868111   C27.407011,54.937931 36.662174,42.732494 45.929546,30.662085   C48.838951,26.872696 51.831821,22.612226 55.793972,20.276115   C64.417419,15.191669 72.969154,17.136869 80.657211,23.179852   C84.499168,26.199709 89.249672,28.245787 90.571815,33.863708   C90.920204,35.344082 93.321533,36.611771 95.037025,37.453747   C103.030678,41.377098 105.314888,51.060452 101.205200,60.401165   C101.016373,60.830338 101.043091,61.354343 100.912277,62.206364   C104.430634,64.740860 107.979889,67.457497 111.688255,69.936073   C119.678749,75.276733 121.354935,82.956985 116.262962,91.337418   C115.541328,92.525093 115.028542,93.839676 114.415794,95.102333   C105.013214,88.618393 95.809181,82.385506 86.728821,75.977371   C77.741455,69.634842 68.878891,63.115471 59.425129,56.286137   C70.865273,39.508904 82.006317,48.562080 92.845100,56.584827   C95.892593,49.693390 90.487259,41.856495 82.839104,40.982555   C81.422729,40.820705 80.033638,40.419983 78.238739,40.056396  M58.514191,103.989815   C58.132404,104.303192 57.631626,104.544083 57.389065,104.942276   C56.226601,106.850586 53.982044,109.019806 54.297451,110.684013   C54.727348,112.952332 56.750332,115.708946 58.811123,116.612999   C60.299965,117.266151 64.137550,115.821678 64.881332,114.307533   C67.130508,109.728760 68.382484,104.660133 70.023102,99.782417   C69.586296,99.599281 69.149498,99.416138 68.712692,99.233002   C65.491600,100.635681 62.270500,102.038368 58.514191,103.989815  z"/>
<path fill="#000000" opacity="1.000000" stroke="none" d=" M51.000000,241.000626   C41.669342,241.000595 32.838425,241.038803 24.008177,240.978516   C21.156237,240.959045 18.004251,241.511063 17.923599,236.844238   C17.841574,232.097992 21.005667,233.016266 23.703035,233.013046   C44.030186,232.988846 64.357368,232.999817 84.684547,232.999786   C86.316406,232.999786 87.948273,232.999786 89.784317,232.999786   C89.784317,227.223328 89.784317,221.807236 89.784317,216.393326   C76.744705,215.974182 67.188332,205.545746 69.438759,190.989624   C77.024811,191.224075 83.980194,193.019043 90.571358,198.264267   C89.730782,195.658508 89.171707,192.918198 88.001465,190.470016   C82.606155,179.182922 84.345284,169.693726 93.604851,161.074127   C102.841644,168.773178 105.535393,180.488373 99.881142,189.734787   C98.146217,192.571915 97.312607,195.960190 96.747650,199.538010   C102.573380,192.598602 110.202965,191.323730 118.192215,190.870728   C121.042847,201.678528 112.429825,214.429016 101.023560,215.861816   C97.624954,216.288742 96.830109,217.463577 96.958481,220.484634   C97.127205,224.455276 96.999901,228.438492 96.999901,232.707123   C123.622757,232.707123 150.027313,232.707123 177.980865,232.707123   C176.297913,228.115051 175.331192,223.544983 172.955673,219.890732   C171.920273,218.298019 167.883179,217.793182 165.401413,218.145905   C150.597137,220.249863 140.357895,213.557083 137.042664,199.136490   C136.645264,197.407852 135.993866,195.620499 136.143509,193.920486   C136.261993,192.574524 137.368637,190.240250 138.138901,190.197678   C144.097214,189.868378 150.118042,189.561127 156.046509,190.080414   C163.476807,190.731216 167.483673,196.152618 170.704865,202.249359   C172.477509,205.604477 174.365768,208.898483 176.083069,212.005051   C181.508163,203.184052 186.208069,195.142929 191.299042,187.357513   C199.047714,175.507767 206.189026,173.600937 219.669754,176.339035   C222.435486,176.900787 225.061935,178.148422 228.999039,179.511398   C225.488190,185.842819 222.691666,191.923111 218.964310,197.365952   C213.306564,205.627625 204.418854,204.965927 196.189606,203.409164   C191.402039,202.503464 188.869080,202.848038 188.007629,207.795410   C186.594971,215.908356 185.231400,224.029861 183.756180,232.680969   C186.578323,232.839279 188.008560,232.987854 189.438980,232.989304   C205.767349,233.005783 222.095779,233.015594 238.424103,232.983093   C240.911560,232.978134 243.733551,233.026367 242.816711,236.401215   C242.328705,238.197525 240.076645,239.634415 238.383713,240.921677   C237.750092,241.403458 236.443604,241.000565 235.443909,241.000565   C174.129272,241.000610 112.814636,241.000610 51.000000,241.000626  z"/>
<path fill="#000000" opacity="1.000000" stroke="none" d=" M139.959442,134.975525   C134.751846,136.642960 130.840057,135.056183 127.288361,131.805450   C123.846878,128.655594 123.060364,125.103210 124.965370,120.805008   C128.078735,113.780426 130.819504,106.580605 134.173782,99.676399   C136.495712,94.897087 143.636444,93.527168 148.868347,96.296745   C153.606430,98.804916 155.454941,104.000450 153.350098,109.147087   C151.863297,112.782509 150.359314,116.235306 150.737473,120.480881   C150.884201,122.128090 148.083450,124.037842 146.392303,126.114174   C148.807602,132.706787 148.717072,132.865143 141.621185,134.144196   C141.171967,134.225174 140.789108,134.674210 139.959442,134.975525  z"/>
<path fill="#000000" opacity="1.000000" stroke="none" d=" M106.490280,128.206329   C104.882500,128.640625 103.668312,128.898392 101.024826,129.459610   C104.784721,123.068153 107.849915,117.762070 111.013618,112.515381   C112.925133,109.345306 115.400482,106.448387 116.875183,103.099655   C118.504921,99.398842 120.309875,97.862946 124.229904,99.913414   C125.121201,100.379623 126.464317,99.982048 128.949722,99.982048   C124.928360,109.391541 121.220787,118.066803 117.482162,126.814728   C113.990547,127.215027 110.437218,127.622406 106.490280,128.206329  z"/>
<path fill="#000000" opacity="1.000000" stroke="none" d=" M158.851440,171.667114   C162.605087,170.338425 164.533890,172.435364 164.758606,175.254333   C164.872818,176.687164 162.759674,179.429794 161.457932,179.555481   C159.845734,179.711136 157.487762,178.110153 156.525955,176.588989   C156.023605,175.794464 157.823029,173.544556 158.851440,171.667114  z"/>
<path fill="#000000" opacity="1.000000" stroke="none" d=" M159.145813,122.998230   C154.428787,122.318130 155.980164,118.970779 156.346069,116.754074   C156.478516,115.951576 159.277878,115.076927 160.823883,115.139282   C163.186584,115.234573 164.132660,116.813393 164.099670,119.436745   C164.056152,122.899155 162.158890,123.185463 159.145813,122.998230  z"/>
<path fill="#000000" opacity="1.000000" stroke="none" d=" M152.746887,146.520126   C150.341629,146.725861 147.913452,147.056320 146.040253,146.188629   C145.208847,145.803513 144.832031,142.657471 145.478638,141.393982   C146.050903,140.275711 148.499557,139.300873 149.804474,139.606979   C151.077118,139.905563 152.143448,141.800278 152.921188,143.204285   C153.340668,143.961533 152.966095,145.158630 152.746887,146.520126  z"/>
<path fill="#000000" opacity="1.000000" stroke="none" d=" M147.939545,162.992157   C146.360077,161.344864 144.685211,159.824112 144.198792,157.988449   C143.932922,156.985062 145.428116,154.769516 146.585953,154.344193   C147.741592,153.919678 149.739761,154.691360 150.887604,155.568207   C153.387985,157.478271 152.201447,160.696579 147.939545,162.992157  z"/>
<path fill="#000000" opacity="1.000000" stroke="none" d=" M172.792145,130.403015   C171.482635,132.410965 170.146439,134.299622 168.378983,135.603821   C167.958572,135.914047 165.590897,134.529648 165.033646,133.451782   C164.444214,132.311646 164.460068,130.352295 165.064926,129.197952   C166.737411,126.006065 168.754379,126.320213 172.792145,130.403015  z"/>
<path fill="#000000" opacity="1.000000" stroke="none" d=" M170.200989,146.525818   C169.822006,142.519531 171.355270,139.818512 175.113663,140.287827   C176.278702,140.433304 177.902725,143.870712 177.800568,145.717056   C177.600311,149.335648 174.864792,149.661499 170.200989,146.525818  z"/>
<path fill="#000000" opacity="1.000000" stroke="none" d=" M157.630463,136.731720   C154.100052,137.152664 150.936249,136.991226 151.077332,132.726898   C151.180573,129.606140 153.663223,128.356628 156.326859,129.095932   C160.984985,130.388809 159.072540,133.648849 157.630463,136.731720  z"/>
<path fill="#000000" opacity="1.000000" stroke="none" d=" M164.380295,143.889191   C164.085114,146.101440 164.004272,148.660278 162.696976,149.756546   C161.814789,150.496353 158.066788,149.664032 157.632416,148.657867   C156.988785,147.166931 157.564590,144.302582 158.733109,143.161926   C159.569305,142.345673 162.227341,143.395782 164.380295,143.889191  z"/>
<path fill="#000000" opacity="1.000000" stroke="none" d=" M179.777130,156.487274   C179.189026,158.910629 178.419113,160.947632 177.649200,162.984619   C175.925491,162.314941 173.670013,162.073074 172.665665,160.824677   C172.000031,159.997269 172.686249,156.685135 173.543457,156.323105   C175.281937,155.588898 177.547226,156.102005 179.777130,156.487274  z"/>
<path fill="#000000" opacity="1.000000" stroke="none" d=" M159.235153,158.399597   C159.989655,157.698868 160.510284,157.126678 161.086121,157.064331   C164.171982,156.730316 166.630615,157.311035 167.031631,161.125107   C167.339294,164.051483 165.497818,164.868149 163.314545,164.935715   C159.909851,165.041061 158.810806,162.844650 159.000504,159.755310   C159.020752,159.425400 159.018539,159.094101 159.235153,158.399597  z"/>
<path fill="#000000" opacity="1.000000" stroke="none" d=" M142.841278,168.001770   C144.072525,169.931580 145.286346,171.828018 145.442322,173.807785   C145.489944,174.412186 142.040848,176.239212 141.227982,175.758072   C139.745010,174.880264 138.435852,172.799896 138.132874,171.035919   C137.585312,167.847824 140.204758,167.950302 142.841278,168.001770  z"/>
<path fill="#ffffff" opacity="1.000000" stroke="none" d=" M58.781796,103.715431   C62.270500,102.038368 65.491600,100.635681 68.712692,99.233002   C69.149498,99.416138 69.586296,99.599281 70.023102,99.782417   C68.382484,104.660133 67.130508,109.728760 64.881332,114.307533   C64.137550,115.821678 60.299965,117.266151 58.811123,116.612999   C56.750332,115.708946 54.727348,112.952332 54.297451,110.684013   C53.982044,109.019806 56.226601,106.850586 57.389065,104.942276   C57.631626,104.544083 58.132404,104.303192 58.781796,103.715431  z"/>
</svg>