<svg xmlns="http://www.w3.org/2000/svg" xmlns:xlink="http://www.w3.org/1999/xlink" version="1.1" id="Layer_1" x="0px" y="0px" width="100%" viewBox="0 0 256 256" enable-background="new 0 0 256 256" xml:space="preserve">
<path fill="#ffffff" opacity="1.000000" stroke="none" d=" M1.000000,139.000000   C1.000000,93.096474 1.000000,47.192951 1.000000,1.000000   C24.353432,1.000000 47.708057,1.000000 71.838089,1.308969   C59.291874,7.245556 49.611015,16.143843 46.931530,30.025490   C41.844322,31.255938 37.124142,31.583406 33.175655,33.500385   C19.578424,40.101799 12.594837,55.679207 17.147251,69.964798   C20.857128,81.606476 31.224865,90.943230 43.063393,90.964668   C90.369850,91.050308 137.676758,91.054100 184.982773,90.886444   C188.378067,90.874413 192.098969,89.860909 195.101883,88.254158   C207.374771,81.687340 213.226303,71.131783 211.892471,57.293556   C210.810974,46.073292 201.968216,34.059372 190.222992,32.161419   C182.475815,30.909521 174.450241,31.448381 166.569122,30.900503   C164.968430,30.789227 162.902771,29.803381 161.988495,28.541691   C151.920837,14.648488 131.449356,11.787781 118.799309,21.065231   C118.344864,20.681091 117.701714,20.360895 117.391380,19.841751   C112.387604,11.471136 105.532066,5.403193 96.099129,2.447961   C95.931343,2.395395 96.027176,1.501385 96.000000,1.000000   C149.600464,1.000000 203.200928,1.000000 257.000000,1.000000   C257.000000,65.354088 257.000000,129.708389 256.710754,194.834183   C252.566772,189.457260 248.081726,183.724442 240.560394,182.358200   C235.947449,181.520248 231.058197,182.203247 226.000031,182.203247   C226.000031,169.039612 226.009247,156.580093 225.995773,144.120605   C225.989868,138.663727 224.218216,137.000565 218.505264,137.000015   C212.785629,136.999466 211.038818,138.659653 211.001755,144.144852   C210.990494,145.810364 211.405655,147.618301 210.885544,149.101517   C210.367523,150.578751 209.149857,152.068283 207.836578,152.959488   C204.251816,155.392181 199.856827,156.907089 196.856598,159.872116   C188.607544,168.024399 179.438400,168.588211 170.651794,160.361755   C165.202316,155.259689 158.712570,152.118820 150.618820,151.790787   C140.194717,151.368286 132.009338,154.948120 124.591843,161.801422   C118.636070,167.304169 111.191628,168.215378 103.671906,162.970627   C98.781433,159.559708 94.185089,154.945755 88.723961,153.293304   C76.503006,149.595459 64.946350,151.844528 55.333031,161.127792   C47.853813,168.350235 39.176014,167.888565 31.783390,161.394440   C28.778151,158.754471 25.527451,155.733734 21.866909,154.653473   C16.271168,153.002090 15.239174,149.768341 15.989993,144.877060   C16.064928,144.388885 15.991736,143.879089 16.001333,143.379593   C16.082827,139.137970 14.065159,136.705032 9.768930,137.078644   C6.812615,137.335709 3.920699,138.333344 1.000000,139.000000  M46.000420,125.341972   C46.000381,126.503197 45.970390,127.665321 46.005466,128.825485   C46.161083,133.972961 49.335663,137.113617 54.244461,136.999573   C58.892780,136.891586 61.910633,133.778992 61.982784,128.834106   C62.057808,123.692665 62.125004,118.545258 61.960987,113.407944   C61.818512,108.945503 58.474300,105.993889 53.983315,106.000214   C49.489151,106.006538 46.219460,108.957710 46.031815,113.440857   C45.879326,117.084023 46.000576,120.738655 46.000420,125.341972  M76.001244,129.937820   C77.724861,135.533188 80.569603,137.676971 85.364922,136.994263   C89.635292,136.386276 91.981796,133.112793 91.997032,127.705627   C92.009659,123.223831 92.052834,118.741180 91.985748,114.260345   C91.908257,109.084663 88.733658,105.921112 83.832863,106.000206   C79.169365,106.075470 76.100143,109.179344 76.018555,114.096191   C75.935936,119.074631 76.000313,124.055511 76.001244,129.937820  M118.185867,107.023560   C111.030602,104.270615 106.056831,107.487015 106.006477,114.931244   C105.973885,119.750038 105.896660,124.572136 106.030815,129.387421   C106.157127,133.921463 109.363632,136.927124 113.833107,136.999557   C118.545761,137.075928 121.856133,134.009033 121.974426,129.222885   C122.089348,124.572868 122.355453,119.879829 121.864471,115.279388   C121.576027,112.576691 119.940857,110.017715 118.185867,107.023560  M136.000305,114.868019   C136.000290,119.515800 135.943710,124.164467 136.015717,128.811127   C136.092422,133.760986 139.099960,136.885544 143.740631,136.999573   C148.656769,137.120346 151.898758,133.969116 151.983383,128.831848   C152.059921,124.185318 152.021103,119.536423 151.994049,114.888794   C151.963608,109.660988 149.379135,106.422676 144.959579,106.001625   C139.840958,105.513977 136.883545,108.142525 136.000305,114.868019  M171.187805,106.282013   C168.103760,107.855453 165.952637,110.037201 165.988327,113.805206   C166.037094,118.955490 165.907089,124.108772 166.027832,129.256683   C166.139923,134.034882 169.478439,137.090149 174.199142,136.999573   C178.653305,136.914124 181.841064,133.890915 181.971115,129.356659   C182.099670,124.874214 182.002914,120.385208 181.998901,115.899078   C181.992264,108.469948 179.490067,106.007957 171.187805,106.282013  z"/>
<path fill="#000000" opacity="1.000000" stroke="none" d=" M1.000000,139.468658   C3.920699,138.333344 6.812615,137.335709 9.768930,137.078644   C14.065159,136.705032 16.082827,139.137970 16.001333,143.379593   C15.991736,143.879089 16.064928,144.388885 15.989993,144.877060   C15.239174,149.768341 16.271168,153.002090 21.866909,154.653473   C25.527451,155.733734 28.778151,158.754471 31.783390,161.394440   C39.176014,167.888565 47.853813,168.350235 55.333031,161.127792   C64.946350,151.844528 76.503006,149.595459 88.723961,153.293304   C94.185089,154.945755 98.781433,159.559708 103.671906,162.970627   C111.191628,168.215378 118.636070,167.304169 124.591843,161.801422   C132.009338,154.948120 140.194717,151.368286 150.618820,151.790787   C158.712570,152.118820 165.202316,155.259689 170.651794,160.361755   C179.438400,168.588211 188.607544,168.024399 196.856598,159.872116   C199.856827,156.907089 204.251816,155.392181 207.836578,152.959488   C209.149857,152.068283 210.367523,150.578751 210.885544,149.101517   C211.405655,147.618301 210.990494,145.810364 211.001755,144.144852   C211.038818,138.659653 212.785629,136.999466 218.505264,137.000015   C224.218216,137.000565 225.989868,138.663727 225.995773,144.120605   C226.009247,156.580093 226.000031,169.039612 226.000031,182.203247   C231.058197,182.203247 235.947449,181.520248 240.560394,182.358200   C248.081726,183.724442 252.566772,189.457260 256.710754,195.302841   C257.000000,199.689255 257.000000,204.378510 256.677216,209.224884   C250.024567,214.866486 243.943146,212.933319 241.373459,204.975067   C240.555862,202.442932 238.944946,199.280914 236.813950,198.271652   C233.802933,196.845581 229.971725,197.151230 226.653458,196.736877   C226.275986,197.646622 226.049377,197.938538 226.048691,198.230988   C226.019882,210.674789 225.918823,223.119461 226.031540,235.562164   C226.110336,244.260834 221.875259,250.239700 214.830566,254.709015   C214.050064,255.204208 213.602173,256.223694 213.000000,257.000000   C146.979111,257.000000 80.958206,257.000000 14.771523,256.710785   C10.437793,252.197586 6.276511,247.966904 2.073383,243.778229   C1.930826,243.636169 1.367306,243.916534 1.000001,244.000000   C1.000000,209.312439 1.000000,174.624878 1.000000,139.468658  z"/>
<path fill="#000000" opacity="1.000000" stroke="none" d=" M95.531364,1.000000   C96.027176,1.501385 95.931343,2.395395 96.099129,2.447961   C105.532066,5.403193 112.387604,11.471136 117.391380,19.841751   C117.701714,20.360895 118.344864,20.681091 118.799309,21.065231   C131.449356,11.787781 151.920837,14.648488 161.988495,28.541691   C162.902771,29.803381 164.968430,30.789227 166.569122,30.900503   C174.450241,31.448381 182.475815,30.909521 190.222992,32.161419   C201.968216,34.059372 210.810974,46.073292 211.892471,57.293556   C213.226303,71.131783 207.374771,81.687340 195.101883,88.254158   C192.098969,89.860909 188.378067,90.874413 184.982773,90.886444   C137.676758,91.054100 90.369850,91.050308 43.063393,90.964668   C31.224865,90.943230 20.857128,81.606476 17.147251,69.964798   C12.594837,55.679207 19.578424,40.101799 33.175655,33.500385   C37.124142,31.583406 41.844322,31.255938 46.931530,30.025490   C49.611015,16.143843 59.291874,7.245556 72.306747,1.308969   C79.687576,1.000000 87.375153,1.000000 95.531364,1.000000  z"/>
<path fill="#ffffff" opacity="1.000000" stroke="none" d=" M213.468658,257.000000   C213.602173,256.223694 214.050064,255.204208 214.830566,254.709015   C221.875259,250.239700 226.110336,244.260834 226.031540,235.562164   C225.918823,223.119461 226.019882,210.674789 226.048691,198.230988   C226.049377,197.938538 226.275986,197.646622 226.653458,196.736877   C229.971725,197.151230 233.802933,196.845581 236.813950,198.271652   C238.944946,199.280914 240.555862,202.442932 241.373459,204.975067   C243.943146,212.933319 250.024567,214.866486 256.677216,209.690994   C257.000000,216.021149 257.000000,222.042297 256.677246,228.840759   C255.723770,229.077011 255.137558,228.470657 254.455124,228.005447   C250.038635,224.994843 242.036270,227.252243 242.152679,231.782059   C242.368896,240.195267 240.203262,248.842758 244.000000,257.000000   C233.979111,257.000000 223.958206,257.000000 213.468658,257.000000  z"/>
<path fill="#000000" opacity="1.000000" stroke="none" d=" M244.476654,257.000000   C240.203262,248.842758 242.368896,240.195267 242.152679,231.782059   C242.036270,227.252243 250.038635,224.994843 254.455124,228.005447   C255.137558,228.470657 255.723770,229.077011 256.677246,229.309052   C257.000000,238.228867 257.000000,247.457718 257.000000,257.000000   C252.989883,257.000000 248.971603,257.000000 244.476654,257.000000  z"/>
<path fill="#ffffff" opacity="1.000000" stroke="none" d=" M1.000001,244.476654   C1.367306,243.916534 1.930826,243.636169 2.073383,243.778229   C6.276511,247.966904 10.437793,252.197586 14.302866,256.710785   C9.743702,257.000000 5.487404,257.000000 1.000000,257.000000   C1.000000,252.986252 1.000000,248.969788 1.000001,244.476654  z"/>
<path fill="#000000" opacity="1.000000" stroke="none" d=" M46.000423,124.865082   C46.000576,120.738655 45.879326,117.084023 46.031815,113.440857   C46.219460,108.957710 49.489151,106.006538 53.983315,106.000214   C58.474300,105.993889 61.818512,108.945503 61.960987,113.407944   C62.125004,118.545258 62.057808,123.692665 61.982784,128.834106   C61.910633,133.778992 58.892780,136.891586 54.244461,136.999573   C49.335663,137.113617 46.161083,133.972961 46.005466,128.825485   C45.970390,127.665321 46.000381,126.503197 46.000423,124.865082  z"/>
<path fill="#000000" opacity="1.000000" stroke="none" d=" M76.000778,129.486572   C76.000313,124.055511 75.935936,119.074631 76.018555,114.096191   C76.100143,109.179344 79.169365,106.075470 83.832863,106.000206   C88.733658,105.921112 91.908257,109.084663 91.985748,114.260345   C92.052834,118.741180 92.009659,123.223831 91.997032,127.705627   C91.981796,133.112793 89.635292,136.386276 85.364922,136.994263   C80.569603,137.676971 77.724861,135.533188 76.000778,129.486572  z"/>
<path fill="#000000" opacity="1.000000" stroke="none" d=" M118.548653,107.208832   C119.940857,110.017715 121.576027,112.576691 121.864471,115.279388   C122.355453,119.879829 122.089348,124.572868 121.974426,129.222885   C121.856133,134.009033 118.545761,137.075928 113.833107,136.999557   C109.363632,136.927124 106.157127,133.921463 106.030815,129.387421   C105.896660,124.572136 105.973885,119.750038 106.006477,114.931244   C106.056831,107.487015 111.030602,104.270615 118.548653,107.208832  z"/>
<path fill="#000000" opacity="1.000000" stroke="none" d=" M136.000305,114.416306   C136.883545,108.142525 139.840958,105.513977 144.959579,106.001625   C149.379135,106.422676 151.963608,109.660988 151.994049,114.888794   C152.021103,119.536423 152.059921,124.185318 151.983383,128.831848   C151.898758,133.969116 148.656769,137.120346 143.740631,136.999573   C139.099960,136.885544 136.092422,133.760986 136.015717,128.811127   C135.943710,124.164467 136.000290,119.515800 136.000305,114.416306  z"/>
<path fill="#000000" opacity="1.000000" stroke="none" d=" M171.579010,106.152336   C179.490067,106.007957 181.992264,108.469948 181.998901,115.899078   C182.002914,120.385208 182.099670,124.874214 181.971115,129.356659   C181.841064,133.890915 178.653305,136.914124 174.199142,136.999573   C169.478439,137.090149 166.139923,134.034882 166.027832,129.256683   C165.907089,124.108772 166.037094,118.955490 165.988327,113.805206   C165.952637,110.037201 168.103760,107.855453 171.579010,106.152336  z"/>
</svg>