<svg xmlns="http://www.w3.org/2000/svg" xmlns:xlink="http://www.w3.org/1999/xlink" version="1.1" id="Layer_1" x="0px" y="0px" width="100%" viewBox="-3 -3 262 262" enable-background="new 0 0 256 256" xml:space="preserve"><g id="deeditor_bgCarrier" stroke-width="0">
    <rect id="dee_c_e" x="-3" y="-3" width="262" height="262" rx="0" fill="#000000" strokewidth="0"/>
  </g>
<path fill="#ffffff" opacity="1.000000" stroke="none" d=" M1.000000,170.000000   C1.000000,113.709038 1.000000,57.418076 1.000000,1.063557   C86.226738,1.063557 171.453537,1.063557 257.000000,1.063557   C257.000000,53.020458 257.000000,105.041573 256.752502,157.255112   C254.818985,153.504700 253.837326,149.324463 251.484634,145.591263   C242.498383,131.332184 228.636475,123.614372 213.700333,117.669952   C185.330933,106.379250 155.412201,102.797287 125.203888,101.541214   C113.955864,101.073502 102.659012,101.263206 91.341660,102.160515   C76.761314,103.316521 62.313999,104.896629 48.145164,108.496864   C40.739975,110.378494 33.425224,112.763908 27.135714,117.284004   C21.557034,121.293243 21.717836,124.779381 27.300236,128.368835   C29.532747,129.804321 31.933594,131.000443 34.061623,132.571304   C38.341709,135.730774 38.418842,140.683014 34.204666,143.843567   C31.690258,145.729324 28.940016,147.309753 26.245588,148.944717   C16.769051,154.695053 6.671206,159.690231 1.000000,170.000000  M67.174118,101.308952   C71.101387,100.748947 75.022293,99.796349 78.957603,99.732574   C83.443542,99.659874 84.721016,97.593803 84.622612,93.521118   C84.502167,88.536499 84.382408,83.506836 84.889114,78.560867   C86.188400,65.878387 88.276321,53.302532 91.037506,40.850281   C91.349884,39.441502 91.506271,38.177021 90.360138,37.189472   C88.897797,35.929462 87.405449,36.851086 86.228828,37.636086   C83.169106,39.677422 80.687546,42.385239 78.404213,45.249447   C67.318481,59.155346 62.075752,75.442612 58.895687,92.635139   C57.153263,102.055298 56.959717,102.034119 67.174118,101.308952  M42.709679,94.124146   C43.199089,96.219795 43.755638,98.302597 44.159760,100.414566   C44.597691,102.703262 44.483784,105.357605 48.089516,104.796219   C51.379734,104.283951 54.313229,103.524948 54.637970,99.331589   C54.880699,96.197258 55.125050,92.987488 56.005783,89.999077   C56.912373,86.922928 56.237411,84.457512 54.610527,81.992508   C50.923019,76.405319 46.774097,71.278198 40.825569,67.890076   C39.402798,67.079704 37.991463,65.505592 36.355255,66.716995   C34.737701,67.914597 35.609863,69.715599 36.160778,71.314941   C38.649837,78.540894 40.993633,85.810760 42.709679,94.124146  M91.793602,76.267044   C87.350403,81.135284 87.325386,87.147026 87.392998,93.191780   C87.421867,95.772217 87.306183,98.582451 90.938736,98.548416   C94.379631,98.516182 98.908630,100.035912 99.951263,94.799927   C101.742538,85.804298 104.758499,77.204681 107.672226,68.557510   C108.083389,67.337303 108.784546,65.919212 107.317780,64.930817   C106.020203,64.056442 104.695984,64.772484 103.542313,65.384209   C98.899605,67.845970 95.205803,71.386238 91.793602,76.267044  z"/>
<path fill="#ffffff" opacity="1.000000" stroke="none" d=" M1.000000,179.468658   C14.187262,201.261108 36.983135,206.983246 59.622211,212.479797   C75.097023,216.236954 90.990089,217.098419 106.937622,217.916214   C122.766678,218.727905 138.373016,216.918167 154.084991,216.647293   C157.270401,216.592377 158.482651,214.648422 159.256561,212.161224   C163.289551,199.199738 172.471161,193.227081 185.627319,192.641525   C187.529678,192.556870 189.021271,192.086731 190.487686,190.654312   C203.941971,177.511902 223.065948,175.797852 238.721909,186.547256   C242.069321,188.845596 244.202164,188.566864 246.880081,185.859528   C251.027405,181.666611 254.279633,176.949997 256.748444,171.250839   C257.000000,199.636780 257.000000,228.273560 257.000000,256.955170   C171.785538,256.955170 86.571030,256.955170 1.000000,256.955170   C1.000000,231.313538 1.000000,205.625427 1.000000,179.468658  M207.695908,184.252914   C203.469925,185.726013 199.232376,187.142487 195.941422,190.434052   C193.383667,192.992310 193.586395,194.779129 196.968658,196.426483   C205.470062,200.567169 209.250885,207.806656 209.291946,216.942886   C209.311829,221.365494 211.002151,222.794296 215.230057,222.679398   C222.872070,222.471741 230.548492,222.233780 238.165649,222.716705   C249.197540,223.416107 250.743210,215.863327 249.140381,208.663834   C245.276581,191.308884 228.440399,179.293961 207.695908,184.252914  M165.999512,205.556946   C163.408096,209.007126 162.186829,212.850464 162.348862,217.200363   C162.476212,220.618851 163.978256,222.571259 167.473846,222.582993   C178.457626,222.619888 189.443268,222.701416 200.424622,222.533081   C204.310013,222.473526 207.046021,220.000458 206.439255,216.132294   C205.422791,209.652237 203.052460,203.717194 196.872345,200.011215   C186.442520,193.756851 173.312866,195.531906 165.999512,205.556946  z"/>
<path fill="#ffffff" opacity="1.000000" stroke="none" d=" M111.859787,200.431122   C99.210403,200.716599 87.136574,200.345474 75.738319,195.303055   C74.678078,194.834030 73.603333,194.366470 72.619057,193.761902   C63.350403,188.069000 63.489967,180.097015 72.894600,174.469589   C80.687355,169.806641 89.479179,168.559906 98.184601,167.846527   C110.320915,166.851959 122.378990,167.975281 133.870346,172.580688   C134.793579,172.950699 135.742752,173.288269 136.604111,173.774994   C140.901779,176.203476 145.376953,179.005478 145.084320,184.503662   C144.812515,189.610641 140.503235,192.218903 136.280365,194.482651   C128.789841,198.498032 120.631218,199.694839 111.859787,200.431122  M129.157166,174.427521   C112.776093,169.976212 96.427376,169.757416 80.181549,175.013504   C75.440903,176.547287 69.745834,178.106110 69.675034,184.088165   C69.603600,190.122711 75.390511,191.769165 80.044540,193.328781   C92.651337,197.553436 105.592476,198.723862 118.756950,196.481033   C125.164505,195.389359 131.436066,193.762146 137.014420,190.281677   C143.205978,186.418625 143.093079,181.263779 136.741653,177.630447   C134.597809,176.404068 132.192856,175.634079 129.157166,174.427521  z"/>
<path fill="#ffffff" opacity="1.000000" stroke="none" d=" M156.951477,126.388985   C162.822220,125.698601 168.441788,124.559006 174.332245,127.096748   C170.930237,129.632538 159.290390,130.268387 156.802383,128.449829   C156.214294,128.019974 156.242233,127.320381 156.951477,126.388985  z"/>
<path fill="#ffffff" opacity="1.000000" stroke="none" d=" M116.211594,123.955940   C117.433510,124.807304 118.015350,125.609299 116.985466,126.524353   C114.974480,128.311127 102.742470,127.493401 99.741554,124.973335   C105.224762,122.522636 110.599434,123.975998 116.211594,123.955940  z"/>
<path fill="#ffffff" opacity="1.000000" stroke="none" d=" M188.149902,148.571442   C184.299164,148.082565 180.646423,149.238922 175.994751,146.665848   C182.886093,145.059525 188.319305,145.484497 194.468765,146.063141   C192.532959,149.196213 190.412704,148.430038 188.149902,148.571442  z"/>
<path fill="#ffffff" opacity="1.000000" stroke="none" d=" M142.175812,141.291718   C142.697281,143.028214 141.603333,143.234619 140.643936,143.250290   C135.905594,143.327744 131.134750,143.815811 126.416557,142.064377   C131.436127,140.111511 136.636505,140.554825 142.175812,141.291718  z"/>
</svg>