<svg xmlns="http://www.w3.org/2000/svg" xmlns:xlink="http://www.w3.org/1999/xlink" version="1.1" id="Layer_1" x="0px" y="0px" width="100%" viewBox="0 0 256 256" enable-background="new 0 0 256 256" xml:space="preserve">
<path fill="#ffffff" opacity="1.000000" stroke="none" d=" M0.999999,171.000000   C1.000000,114.374954 1.000000,57.749905 1.000000,1.062428   C86.229004,1.062428 171.458069,1.062428 257.000000,1.062428   C257.000000,57.353840 257.000000,113.708260 256.680603,170.840637   C253.148010,170.747055 249.781906,168.776886 246.748871,169.199188   C235.243118,170.801117 223.889450,173.480865 212.391479,175.158386   C204.627762,176.291107 196.717239,176.864929 188.872864,176.860428   C182.215958,176.856598 175.529877,175.879974 168.909470,174.955887   C155.588440,173.096420 142.162109,171.638458 129.034363,168.824509   C105.478859,163.775345 81.880135,159.784058 57.694672,161.047516   C48.547588,161.525360 39.308826,161.874130 30.328844,163.488632   C20.422619,165.269684 10.765579,168.436691 0.999999,171.000000  M177.068619,149.586792   C186.751389,155.519730 196.950180,156.946732 207.712265,152.981094   C221.636337,147.850327 228.951355,137.129028 229.901993,122.889336   C231.211533,103.273338 215.927902,86.250198 194.158920,86.933266   C180.886566,87.349739 167.383377,96.705040 164.089447,109.008331   C162.491302,114.977592 162.095245,121.268692 161.195267,127.150803   C153.184067,114.224976 144.951035,100.941231 136.487930,87.286270   C149.510117,83.730171 161.907547,80.361740 174.295166,76.957642   C190.646255,72.464409 196.850067,63.585037 196.070648,50.338264   C195.447495,39.747665 182.998016,28.383184 172.603928,30.126638   C165.656845,31.291906 158.873154,33.502350 152.067581,35.426327   C135.073624,40.230621 118.022354,44.863983 101.186401,50.175518   C96.283249,51.722397 90.950195,54.388870 87.679131,58.159851   C77.980377,69.340820 78.073753,82.553650 86.336250,94.949249   C92.542824,104.260506 98.158356,113.965729 104.255669,123.850037   C92.229492,131.387589 80.603012,138.674637 69.221413,145.808197   C82.633545,147.569809 95.730904,149.005737 108.727516,151.074539   C122.613365,153.284897 136.370544,156.297592 150.247467,158.572052   C160.648956,160.276871 171.151184,161.367096 181.608551,162.730957   C181.829361,162.265106 182.050186,161.799255 182.270996,161.333420   C180.366501,158.237198 178.377457,155.187790 176.618927,152.010788   C176.196655,151.247849 176.540100,150.061096 177.068619,149.586792  z"/>
<path fill="#ffffff" opacity="1.000000" stroke="none" d=" M257.000000,217.000000   C257.000000,230.315964 257.000000,243.631912 257.000000,256.945557   C171.666656,256.943237 86.333313,256.943237 1.000000,256.943237   C1.000000,243.903397 1.000000,230.920364 1.297424,217.164246   C4.378534,218.681900 6.855574,220.603012 11.197875,219.576935   C23.443789,216.683228 35.760620,213.270218 48.221371,212.323074   C62.197380,211.260788 76.475021,211.677322 90.414803,213.264801   C107.430840,215.202576 124.180603,219.366211 141.140778,221.939362   C157.234467,224.381027 173.410446,226.551147 189.630661,227.774673   C197.872040,228.396317 206.292175,226.692429 214.628403,226.002319   C229.132919,224.801590 243.465210,222.772919 257.000000,217.000000  z"/>
<path fill="#ffffff" opacity="1.000000" stroke="none" d=" M257.000000,182.000000   C257.000000,189.687576 257.000000,197.375168 256.680573,205.840668   C253.147949,205.747009 249.781784,203.776840 246.748734,204.199127   C235.242996,205.801102 223.892212,208.507080 212.390793,210.152130   C204.294922,211.310074 196.009018,212.215912 187.879730,211.807068   C176.191162,211.219208 164.512360,209.693573 152.931091,207.908447   C139.206223,205.792938 125.624794,202.758408 111.914665,200.531891   C100.692627,198.709442 89.409309,197.012756 78.085373,196.147217   C68.677017,195.428085 59.158607,195.717484 49.710575,196.097656   C43.220146,196.358810 36.660656,197.050354 30.321289,198.423355   C20.462969,200.558487 10.765592,203.436722 1.000000,206.000000   C1.000000,198.312424 1.000000,190.624832 1.297419,182.164185   C4.378570,183.681763 6.855564,185.602997 11.197906,184.576874   C23.443800,181.683151 35.760624,178.270172 48.221363,177.323044   C62.197380,176.260757 76.475029,176.677277 90.414818,178.264740   C107.430847,180.202530 124.180595,184.366165 141.140762,186.939331   C157.234451,189.381012 173.410446,191.551102 189.630661,192.774582   C197.872040,193.396225 206.292191,191.692383 214.628418,191.002274   C229.132904,189.801514 243.465195,187.772827 257.000000,182.000000  z"/>
<path fill="#000000" opacity="1.000000" stroke="none" d=" M257.000000,181.541931   C243.465195,187.772827 229.132904,189.801514 214.628418,191.002274   C206.292191,191.692383 197.872040,193.396225 189.630661,192.774582   C173.410446,191.551102 157.234451,189.381012 141.140762,186.939331   C124.180595,184.366165 107.430847,180.202530 90.414818,178.264740   C76.475029,176.677277 62.197380,176.260757 48.221363,177.323044   C35.760624,178.270172 23.443800,181.683151 11.197906,184.576874   C6.855564,185.602997 4.378570,183.681763 1.297419,181.695557   C1.000000,178.638718 1.000000,175.277420 0.999999,171.458069   C10.765579,168.436691 20.422619,165.269684 30.328844,163.488632   C39.308826,161.874130 48.547588,161.525360 57.694672,161.047516   C81.880135,159.784058 105.478859,163.775345 129.034363,168.824509   C142.162109,171.638458 155.588440,173.096420 168.909470,174.955887   C175.529877,175.879974 182.215958,176.856598 188.872864,176.860428   C196.717239,176.864929 204.627762,176.291107 212.391479,175.158386   C223.889450,173.480865 235.243118,170.801117 246.748871,169.199188   C249.781906,168.776886 253.148010,170.747055 256.680603,171.309296   C257.000000,174.361282 257.000000,177.722580 257.000000,181.541931  z"/>
<path fill="#000000" opacity="1.000000" stroke="none" d=" M1.000000,206.458069   C10.765592,203.436722 20.462969,200.558487 30.321289,198.423355   C36.660656,197.050354 43.220146,196.358810 49.710575,196.097656   C59.158607,195.717484 68.677017,195.428085 78.085373,196.147217   C89.409309,197.012756 100.692627,198.709442 111.914665,200.531891   C125.624794,202.758408 139.206223,205.792938 152.931091,207.908447   C164.512360,209.693573 176.191162,211.219208 187.879730,211.807068   C196.009018,212.215912 204.294922,211.310074 212.390793,210.152130   C223.892212,208.507080 235.242996,205.801102 246.748734,204.199127   C249.781784,203.776840 253.147949,205.747009 256.680573,206.309296   C257.000000,209.361282 257.000000,212.722580 257.000000,216.541931   C243.465210,222.772919 229.132919,224.801590 214.628403,226.002319   C206.292175,226.692429 197.872040,228.396317 189.630661,227.774673   C173.410446,226.551147 157.234467,224.381027 141.140778,221.939362   C124.180603,219.366211 107.430840,215.202576 90.414803,213.264801   C76.475021,211.677322 62.197380,211.260788 48.221371,212.323074   C35.760620,213.270218 23.443789,216.683228 11.197875,219.576935   C6.855574,220.603012 4.378534,218.681900 1.297424,216.695587   C1.000000,213.638718 1.000000,210.277420 1.000000,206.458069  z"/>
<path fill="#000000" opacity="1.000000" stroke="none" d=" M176.800003,149.328018   C176.540100,150.061096 176.196655,151.247849 176.618927,152.010788   C178.377457,155.187790 180.366501,158.237198 182.270996,161.333420   C182.050186,161.799255 181.829361,162.265106 181.608551,162.730957   C171.151184,161.367096 160.648956,160.276871 150.247467,158.572052   C136.370544,156.297592 122.613365,153.284897 108.727516,151.074539   C95.730904,149.005737 82.633545,147.569809 69.221413,145.808197   C80.603012,138.674637 92.229492,131.387589 104.255669,123.850037   C98.158356,113.965729 92.542824,104.260506 86.336250,94.949249   C78.073753,82.553650 77.980377,69.340820 87.679131,58.159851   C90.950195,54.388870 96.283249,51.722397 101.186401,50.175518   C118.022354,44.863983 135.073624,40.230621 152.067581,35.426327   C158.873154,33.502350 165.656845,31.291906 172.603928,30.126638   C182.998016,28.383184 195.447495,39.747665 196.070648,50.338264   C196.850067,63.585037 190.646255,72.464409 174.295166,76.957642   C161.907547,80.361740 149.510117,83.730171 136.487930,87.286270   C144.951035,100.941231 153.184067,114.224976 161.195267,127.150803   C162.095245,121.268692 162.491302,114.977592 164.089447,109.008331   C167.383377,96.705040 180.886566,87.349739 194.158920,86.933266   C215.927902,86.250198 231.211533,103.273338 229.901993,122.889336   C228.951355,137.129028 221.636337,147.850327 207.712265,152.981094   C196.950180,156.946732 186.751389,155.519730 176.800003,149.328018  z"/>
</svg>