<svg xmlns="http://www.w3.org/2000/svg" xmlns:xlink="http://www.w3.org/1999/xlink" version="1.1" id="Layer_1" x="0px" y="0px" width="100%" viewBox="0 0 256 256" enable-background="new 0 0 256 256" xml:space="preserve">
<path fill="#ffffff" opacity="1.000000" stroke="none" d=" M179.000000,257.000000   C119.333336,257.000000 60.166676,257.000000 1.000008,257.000000   C1.000005,171.666672 1.000005,86.333351 1.000003,1.000019   C86.333321,1.000013 171.666641,1.000013 257.000000,1.000006   C257.000000,86.333313 257.000000,171.666626 257.000000,256.999969   C231.166672,257.000000 205.333328,257.000000 179.000000,257.000000  M171.065079,208.245819   C171.302292,208.475723 171.539062,208.906387 171.776764,208.906891   C186.722397,208.938751 201.668091,208.935547 216.998032,208.935547   C216.998032,168.842422 216.998032,129.102341 216.998032,89.351105   C218.558884,89.045799 219.756485,88.811546 220.800415,88.607346   C220.800415,81.963753 220.800415,75.683937 220.800415,69.086365   C202.172592,69.086365 183.739700,69.086365 165.922348,69.086365   C157.940857,56.173210 148.015793,46.677238 132.914444,45.114906   C113.957993,43.153736 101.919701,53.892876 91.898254,69.152298   C74.174149,69.152298 55.743484,69.152298 37.159386,69.152298   C37.159386,75.771111 37.159386,82.054169 37.159386,88.563080   C38.423843,88.884476 39.726345,89.215538 41.207821,89.592094   C41.207821,129.470322 41.207821,169.066360 41.207821,208.761414   C56.536926,208.761414 71.603073,208.761414 87.049789,208.761414   C87.049789,168.781860 87.049789,129.038803 87.049789,88.954948   C88.639496,89.133125 89.811356,89.264473 91.181732,89.418076   C91.181732,129.421738 91.181732,169.022171 91.181732,208.777710   C97.166542,208.777710 102.901817,208.777710 109.043541,208.777710   C109.043541,192.824417 109.043541,177.087479 109.043541,161.230362   C122.519211,161.230362 135.585876,161.230362 149.059387,161.230362   C149.059387,177.192093 149.059387,192.929031 149.059387,208.758865   C155.205597,208.758865 160.941193,208.758865 167.054504,208.758865   C167.054504,168.776428 167.054504,129.033051 167.054504,88.948914   C168.644547,89.131050 169.816650,89.265312 171.005127,89.401451   C171.005127,128.978302 171.005127,168.129044 171.065079,208.245819  z"/>
<path fill="#000000" opacity="1.000000" stroke="none" d=" M171.035095,207.762802   C171.005127,168.129044 171.005127,128.978302 171.005127,89.401451   C169.816650,89.265312 168.644547,89.131050 167.054504,88.948914   C167.054504,129.033051 167.054504,168.776428 167.054504,208.758865   C160.941193,208.758865 155.205597,208.758865 149.059387,208.758865   C149.059387,192.929031 149.059387,177.192093 149.059387,161.230362   C135.585876,161.230362 122.519211,161.230362 109.043541,161.230362   C109.043541,177.087479 109.043541,192.824417 109.043541,208.777710   C102.901817,208.777710 97.166542,208.777710 91.181732,208.777710   C91.181732,169.022171 91.181732,129.421738 91.181732,89.418076   C89.811356,89.264473 88.639496,89.133125 87.049789,88.954948   C87.049789,129.038803 87.049789,168.781860 87.049789,208.761414   C71.603073,208.761414 56.536926,208.761414 41.207821,208.761414   C41.207821,169.066360 41.207821,129.470322 41.207821,89.592094   C39.726345,89.215538 38.423843,88.884476 37.159386,88.563080   C37.159386,82.054169 37.159386,75.771111 37.159386,69.152298   C55.743484,69.152298 74.174149,69.152298 91.898254,69.152298   C101.919701,53.892876 113.957993,43.153736 132.914444,45.114906   C148.015793,46.677238 157.940857,56.173210 165.922348,69.086365   C183.739700,69.086365 202.172592,69.086365 220.800415,69.086365   C220.800415,75.683937 220.800415,81.963753 220.800415,88.607346   C219.756485,88.811546 218.558884,89.045799 216.998032,89.351105   C216.998032,129.102341 216.998032,168.842422 216.998032,208.935547   C201.668091,208.935547 186.722397,208.938751 171.776764,208.906891   C171.539062,208.906387 171.302292,208.475723 171.035095,207.762802  M71.284767,136.994843   C71.835533,136.727188 72.873512,136.445984 72.866501,136.193832   C72.633354,127.814606 72.557976,119.416496 71.856544,111.071838   C71.571426,107.679840 68.774193,106.021965 65.184082,105.964905   C61.386723,105.904533 58.489590,107.536880 58.124580,111.208710   C57.285469,119.649803 57.041935,128.150116 56.535316,136.999573   C61.748150,136.999573 66.035126,136.999573 71.284767,136.994843  M115.078339,109.542633   C112.669006,108.361946 110.162117,106.109093 107.879112,106.316818   C105.799103,106.506073 102.508652,109.181160 102.268288,111.079247   C101.201141,119.506378 101.039108,128.048111 100.535736,136.791382   C106.456879,136.791382 111.522888,136.791382 117.616592,136.791382   C116.953178,127.743393 116.307693,118.939796 115.078339,109.542633  M141.005051,135.278580   C141.768723,135.851639 142.515549,136.892166 143.298859,136.920380   C147.736221,137.080246 152.182312,136.997742 156.998993,136.997742   C156.998993,129.479919 157.190414,122.367737 156.940048,115.271141   C156.729523,109.303627 153.785065,106.062096 149.199478,106.001648   C143.365585,105.924751 141.891754,108.965652 141.156052,115.381447   C140.441116,121.616074 141.000565,127.996826 141.005051,135.278580  M185.000000,132.377594   C185.000000,133.816589 185.000000,135.255585 185.000000,136.758179   C190.559067,136.758179 195.619385,136.758179 200.998871,136.758179   C200.998871,129.408997 201.560150,122.238579 200.830948,115.201897   C200.184219,108.960991 198.609650,106.059601 193.117355,105.997734   C187.584152,105.935410 185.975204,108.781105 185.133057,115.460037   C184.472977,120.695160 185.000259,126.079994 185.000000,132.377594  M59.030174,160.708878   C55.080544,169.913284 57.809414,179.446671 57.011494,188.673004   C62.718319,188.673004 67.787491,188.673004 73.000000,188.673004   C73.000000,186.694000 73.000008,185.041382 73.000000,183.388748   C72.999977,178.227234 73.259590,173.049728 72.942924,167.907715   C72.377892,158.732498 66.594925,155.144089 59.030174,160.708878  M193.399139,157.996643   C189.438141,157.815247 186.446533,159.453705 186.087540,163.499039   C185.339005,171.933914 185.068512,180.411209 184.614166,188.643265   C190.782089,188.643265 195.855179,188.643265 200.999954,188.643265   C200.999954,181.631821 201.242691,174.964874 200.915543,168.326019   C200.693466,163.819534 200.064224,159.095108 193.399139,157.996643  M109.388451,76.092529   C107.999825,80.177650 106.611206,84.262772 105.106422,88.689606   C112.677368,88.689606 118.750809,88.689606 124.731750,88.689606   C124.731750,80.972404 124.731750,73.568336 124.731750,65.811516   C118.407578,67.428589 113.654198,70.694832 109.388451,76.092529  M151.999741,85.745239   C150.777527,75.051392 140.928940,66.601051 133.256531,66.474052   C133.256531,73.887062 133.256531,81.297729 133.256531,88.999336   C138.798767,88.999336 144.093781,89.109276 149.375504,88.893524   C150.279160,88.856606 151.125992,87.428711 151.999741,85.745239  z"/>
<path fill="#ffffff" opacity="1.000000" stroke="none" d=" M70.803436,136.997208   C66.035126,136.999573 61.748150,136.999573 56.535316,136.999573   C57.041935,128.150116 57.285469,119.649803 58.124580,111.208710   C58.489590,107.536880 61.386723,105.904533 65.184082,105.964905   C68.774193,106.021965 71.571426,107.679840 71.856544,111.071838   C72.557976,119.416496 72.633354,127.814606 72.866501,136.193832   C72.873512,136.445984 71.835533,136.727188 70.803436,136.997208  z"/>
<path fill="#ffffff" opacity="1.000000" stroke="none" d=" M115.370270,109.839417   C116.307693,118.939796 116.953178,127.743393 117.616592,136.791382   C111.522888,136.791382 106.456879,136.791382 100.535736,136.791382   C101.039108,128.048111 101.201141,119.506378 102.268288,111.079247   C102.508652,109.181160 105.799103,106.506073 107.879112,106.316818   C110.162117,106.109093 112.669006,108.361946 115.370270,109.839417  z"/>
<path fill="#ffffff" opacity="1.000000" stroke="none" d=" M141.002731,134.795990   C141.000565,127.996826 140.441116,121.616074 141.156052,115.381447   C141.891754,108.965652 143.365585,105.924751 149.199478,106.001648   C153.785065,106.062096 156.729523,109.303627 156.940048,115.271141   C157.190414,122.367737 156.998993,129.479919 156.998993,136.997742   C152.182312,136.997742 147.736221,137.080246 143.298859,136.920380   C142.515549,136.892166 141.768723,135.851639 141.002731,134.795990  z"/>
<path fill="#ffffff" opacity="1.000000" stroke="none" d=" M185.000000,131.887955   C185.000259,126.079994 184.472977,120.695160 185.133057,115.460037   C185.975204,108.781105 187.584152,105.935410 193.117355,105.997734   C198.609650,106.059601 200.184219,108.960991 200.830948,115.201897   C201.560150,122.238579 200.998871,129.408997 200.998871,136.758179   C195.619385,136.758179 190.559067,136.758179 185.000000,136.758179   C185.000000,135.255585 185.000000,133.816589 185.000000,131.887955  z"/>
<path fill="#ffffff" opacity="1.000000" stroke="none" d=" M59.257977,160.366119   C66.594925,155.144089 72.377892,158.732498 72.942924,167.907715   C73.259590,173.049728 72.999977,178.227234 73.000000,183.388748   C73.000008,185.041382 73.000000,186.694000 73.000000,188.673004   C67.787491,188.673004 62.718319,188.673004 57.011494,188.673004   C57.809414,179.446671 55.080544,169.913284 59.257977,160.366119  z"/>
<path fill="#ffffff" opacity="1.000000" stroke="none" d=" M193.814972,157.998718   C200.064224,159.095108 200.693466,163.819534 200.915543,168.326019   C201.242691,174.964874 200.999954,181.631821 200.999954,188.643265   C195.855179,188.643265 190.782089,188.643265 184.614166,188.643265   C185.068512,180.411209 185.339005,171.933914 186.087540,163.499039   C186.446533,159.453705 189.438141,157.815247 193.814972,157.998718  z"/>
<path fill="#ffffff" opacity="1.000000" stroke="none" d=" M109.668686,75.835464   C113.654198,70.694832 118.407578,67.428589 124.731750,65.811516   C124.731750,73.568336 124.731750,80.972404 124.731750,88.689606   C118.750809,88.689606 112.677368,88.689606 105.106422,88.689606   C106.611206,84.262772 107.999825,80.177650 109.668686,75.835464  z"/>
<path fill="#ffffff" opacity="1.000000" stroke="none" d=" M151.999405,86.194321   C151.125992,87.428711 150.279160,88.856606 149.375504,88.893524   C144.093781,89.109276 138.798767,88.999336 133.256531,88.999336   C133.256531,81.297729 133.256531,73.887062 133.256531,66.474052   C140.928940,66.601051 150.777527,75.051392 151.999405,86.194321  z"/>
</svg>